<mxfile host="www.draw.io" modified="2020-01-17T06:54:56.495Z" agent="Mozilla/5.0 (Windows NT 10.0; Win64; x64) AppleWebKit/537.36 (KHTML, like Gecko) Chrome/78.0.3904.108 Safari/537.36" etag="70FAy9yKUUoDuy_qR5dB" version="12.5.5" type="github">
  <diagram id="NyZ8523nX-XAUMV5F85r" name="Page-1">
    <mxGraphModel dx="1233" dy="1879" grid="1" gridSize="10" guides="1" tooltips="1" connect="1" arrows="1" fold="1" page="1" pageScale="1" pageWidth="850" pageHeight="1100" math="0" shadow="0">
      <root>
        <mxCell id="0"/>
        <mxCell id="1" parent="0"/>
        <mxCell id="aqT0Fe9fvLwvooHaSvqg-3" style="edgeStyle=orthogonalEdgeStyle;rounded=0;orthogonalLoop=1;jettySize=auto;html=1;entryX=0;entryY=0.5;entryDx=0;entryDy=0;" edge="1" parent="1" source="aqT0Fe9fvLwvooHaSvqg-1" target="aqT0Fe9fvLwvooHaSvqg-2">
          <mxGeometry relative="1" as="geometry"/>
        </mxCell>
        <mxCell id="aqT0Fe9fvLwvooHaSvqg-1" value="Agency" style="rounded=0;whiteSpace=wrap;html=1;" vertex="1" parent="1">
          <mxGeometry x="150" y="160" width="150" height="60" as="geometry"/>
        </mxCell>
        <mxCell id="aqT0Fe9fvLwvooHaSvqg-5" style="edgeStyle=orthogonalEdgeStyle;rounded=0;orthogonalLoop=1;jettySize=auto;html=1;entryX=0;entryY=0.5;entryDx=0;entryDy=0;" edge="1" parent="1" source="aqT0Fe9fvLwvooHaSvqg-2" target="aqT0Fe9fvLwvooHaSvqg-4">
          <mxGeometry relative="1" as="geometry"/>
        </mxCell>
        <mxCell id="aqT0Fe9fvLwvooHaSvqg-2" value="Contract" style="rounded=0;whiteSpace=wrap;html=1;" vertex="1" parent="1">
          <mxGeometry x="350" y="160" width="150" height="60" as="geometry"/>
        </mxCell>
        <mxCell id="aqT0Fe9fvLwvooHaSvqg-4" value="Manual add&amp;nbsp;" style="rounded=0;whiteSpace=wrap;html=1;" vertex="1" parent="1">
          <mxGeometry x="550" y="160" width="150" height="60" as="geometry"/>
        </mxCell>
        <mxCell id="aqT0Fe9fvLwvooHaSvqg-6" value="AS IS" style="rounded=0;whiteSpace=wrap;html=1;fillColor=#f5f5f5;strokeColor=#ABABAB;fontColor=#333333;" vertex="1" parent="1">
          <mxGeometry y="80" width="120" height="40" as="geometry"/>
        </mxCell>
        <mxCell id="aqT0Fe9fvLwvooHaSvqg-7" value="" style="shape=image;verticalLabelPosition=bottom;labelBackgroundColor=#ffffff;verticalAlign=top;aspect=fixed;imageAspect=0;image=data:image/png,iVBORw0KGgoAAAANSUhEUgAAA6AAAALOCAYAAAC3TH4vAAAgAElEQVR4AezdS0xc577n/R+t3d1HfTktvbTcdpycdmnTwyDLroGhvDMoJQfJA6OAbCVAkAKeRQKUk1mAAYVnUYSR8o4MWyKYbNmCCOtVJLSjGiQBPChbFhkdyUfl3nFit3XoVqsvanWrxatnrfWs9dSqK1AFRfGtyKpV6/JcPqvCw389F9r29vb2xAsBBBBAAAEEEEAAAQQQQACBBgv8k8ePHzc4C5JHAAEEEEAAAQQQQAABBBBAQPonICCAAAIIIIAAAggggAACCCBwFAIEoEehTB71EXi9rvFkUsmxde3WJ8UglV2tjyWVNGknx7X+uq6JkxgCCCCAAAIIIIAAAggEAg0PQHfmT/gv9jbo8YKToC7zO4f+Au0+HPcDnjqkVbowO5qrMaAKy+LWse5BXulS1m+vG0QG96nGOuw+nFFmS0pNbyiXu6PeM/UrFSkhgAACCCCAAAIIIIBAJPC7aLMRWzvKLtl0N5V9tKve6+12R/O/P51T8tay1D2ljfleeSU3Aemfmr/otZXQBG09YfB1J7w3JnjN6lfJr3NtiR3zWe3qnc/p6sNx9cxsesFkVJ/KRfv1+aZ3QuJvTtB3s3KVOIoAAggggAACCCCAQFMKNLYH9GlWy6ba3SmlJG1+/1Ph0EkT4Lm9bmbb7bWKHw+P2d69Oa3bnsRkUuMPnYGZ8WuTc9qx+8JeR9trVmrY5a7WF03pU5qaDIJPU5czvboz1hncTHt9iV5e23M6tq71sBc4qbmnkp7OeUGSl8jSiGdg9tueyPGH637vpVdfW1ebR8xIUtTLbHtof9T62Ihvr01lrhVf4+X99Gsv+NTwogqDtU5N5CZkaxlPP3K2ZdvHfahwD10D93vhmQXiB3krcvW+c3My/djm2EjwkGT5luNkvyv2+xl+Z0wJbL2jexKZHKSEXIMAAggggAACCCCAwOkQqNoDut9Vci9fvhzK7fzghZ8aGplWQj3a3Mro66e9mrgoyQRopndRQ1o0wY75hd/7HFwefDbDIk1wZAKFnpmMZh5e1Z3rNotlZbWh3Hc/afxaRpszX2vnupOW23PpXbKrqe5lZZay2hnrVOfrn5TdMgFyWleLhl3+qrw5poQSRcfMftt7mNLUd2bYpglKRpS5NqeEE7xpK6P8SE65d/z6LS+u66P5CW1M5/0gdHhRuSCg3f2LX6/NmYz8Pjnz2QSDOU34h7xgc2TJOrQHn/3ho4VB5KLySROE2vIFCThvu3/Je59SF847ews3TfA5smTTCOo8M6P1K+5Q1cr3odo9zMxEebZfv6Ocvb/mO3Ito+Vbc0q7ptHp+9ranMlrNJdT2qvTshYefqQ71+9o8bmpo2Nov4vBvfG/eyMav2C+iwqCe2tSXIT9/j9TnAJ7EEAAAQQQQAABBBA4uQJuTBivRdUA1FxQKYF4gtFnO/x2SOmL7Tr/bkra2tTyDzuauNip3UdZP8gaToc9bdG1kg1eN2d6lHQClM3nZmCofQ1p1Bs2mlDC9LAGu+21qXevxoaQtuuqV45lZZ9O6Pxf/DIMjTg9nDbp13n54ZndEXu3wWsYoHYqPSwtL/lpd74RnN89pY+8gDvh9wLHkin10QZs9pgfANna2b3m3RqnlL5y+OGjfrBp0zcPBtLBEGq/FzVjD2lT+d9Mb7DdUfk+VLuH3gMIm5TXu2h7b8OdddlITX/kfdd2L3j98WXTDL8/QWDefiWtlDb9HvzrV4PrIpOhuzn/oUpw5GD/v5QtDgcQQAABBBBAAAEEEDgxAtU6Yxo2BHf34UIwBHRZI8mkM+Q06w19tIKVet/MOf7CMDnlcsG/cPirTWF/734wIS3/sK6fvjdBnQmQS6Rx5qrS3WZ/XvlKq6J2J1S+/7BEuvvdZYfrmt7cXE4b0yZ4qs+r/W9M2C7ZoL5zLKfcd1NeoFyYg+ntc+6B6ZEtZVZ4Ufip9ntoelj94NMEdbncoobCVI5+o/ScUH+u6eJwVB5v6G7BEN3oGFsIIIAAAggggAACCCAQCTQoAN0NgjvJDyRMMLGhKS+gMz2EUhj8xOeFBmXrfMcPPbxhtba8ZkhmDb/oh9eWSvtMr0ZN8LCUCRbf8XvFbBbRe7t6R0wZNpWZdf7shy2DDVC3svrJC1Btb2SZgDZK2Nuy9Y/tLvpoh8mqIxHrzTWn+r2upoxmgafC13klPO/CvQWfLn7k35OlkcL5s+FJUfqZP0Ur/5oe2VrmZYb3wQyNtmlaP/u54N0Oe04pYXuQC44fzQdbbtNbb162t97tUfeCdfNQ5O5xhshH40EuCCCAAAIIIIAAAgjUS6CmIbj7ziwcnuoGY3b466YK50Fm1JOMBneGeV2cUO6uvHmhI0l/Lql3bHgxPKXsRnitm3Yw19SEbSa4XfLnn/pDeMukVDIdySzaY9aH7Z3fkMwqsteS8mtgegqjxXvKpOrvvpjWkJa1bBYhWvID9Y9KXNB+fVRDM5vhefFTTCC0qKRG3KHKwdxFf7hxMFS0aD6sScnvzUuYOZHu9eZQ0LPbbtMPymnzH7prtyq8h36mF7yWe9ipj6ZTWp6JhrdWSD12yM7J9Xd7w36/91cvjp1Y/WNYbv/eeBeECzX5c32d2virJB+yZ756oTgDAQQQQAABBBBAAIGTL9CWy+X2Ks1ZM2N4Kx2vF4Gd5xif/1iv9N10bF4mkLQLALnH2UYAAQQQQAABBBBAAAEEENi/QLX4sTE9oDWVs7DHyrsk7GWqKYEDnrSjr2fM3M+Upj6wf2jkgElxGQIIIIAAAggggAACCCCAQM0CxxiA+sM/e2suar1OLPyzJvVKlXQQQAABBBBAAAEEEEAAAQQqCzRoEaLKmXIUAQQQQAABBBBAAAEEEEDg9AkQgJ6+e06NEUAAAQQQQAABBBBAAIFjESAAPRZ2MkUAAQQQQAABBBBAAAEETp8AAejpu+fUGAEEEEAAAQQQQAABBBA4FgEC0GNhJ1MEEEAAAQQQQAABBBBA4PQJEICevntOjRFAAAEEEEAAAQQQQACBYxEgAD0WdjJFAAEEEEAAAQQQQAABBE6fAAHo6bvn1BgBBBBAAAEEEEAAAQQQOBYBAtBjYSdTBBBAAAEEEEAAAQQQQOD0CRCAnr57To0RQAABBBBAAAEEEEAAgWMRIAA9FnYyRQABBBBAAAEEEEAAAQROnwAB6Om759QYAQQQQAABBBBAAAEEEDgWAQLQY2EnUwQQQAABBBBAAAEEEEDg9AkQgJ6+e06NEUAAAQQQQAABBBBAAIFjESAAPRZ2MkUAAQQQQAABBBBAAAEETp8AAejpu+fUGAEEEEAAAQQQQAABBBA4FgEC0GNhJ1MEEEAAAQQQQAABBBBA4PQJEICevntOjRFAAAEEEEAAAQQQQACBYxEgAD0WdjJFAAEEEEAAAQQQQAABBE6fAAHo6bvn1BgBBBBAAAEEEEAAAQQQOBYBAtBjYSdTBBBAAAEEEEAAAQQQQOD0CRCAnr57To0RQAABBBBAAAEEEEAAgWMR+N2x5EqmCLSAwP3791ugFlShVQRu3rzZKlWhHgggcEgB2qdDAnJ5UwvQ3jX17ampcASgNTFxEgKlBfghWNqFvUcrwC+bR+tNbgicBAHap5NwlyjjfgVo7/Yr1pznMwS3Oe8LpUIAAQQQQAABBBBAAAEEWk6AALTlbikVQgABBBBAAAEEEEAAAQSaU4AAtDnvC6VCAAEEEEAAAQQQQAABBFpOgAC05W4pFTo+gW3dbmtTW2a7qAivvulXmzlW8K9fKy+KTpVerKi/rU3937yKHXyllZvxNILPNs/g2jAfuz+WEh8RQAABBFpfwGt7bq6oqDUxbZKzfzvjtyW3H8VNgnatLWqvyqXpXmnSK04rOsNvE6M0oyP72PLau0OmUUN2tZfVb6OL2+5YJkdU7liu0cdD5V9jHaPcatuK/+5if1fid5ja/E7gWQSgdb5puw/HlZzfqXOqJHciBB5lNTkzq9nprIpDUEk37unl3p72gn8vV6TBt24Xnfvqx1VpZlb6Nhv7peGsBu5H1/vpbGlW0ux7XZK2dfutQV3atudsaXa6u0QgeyI0KSQCCCCAwBEK9N3o0+SfY62Xadf2XYZXyv/cp8Sb5S58pey30uyMtPpjPDQud81x7T9JZa2Pkfcw4lgCvz7d+8X+/mLe+R2mPne0OVNpeAC6M59UMjmu9dfNCVBYqh3NJU15o39zTwvP4BMCpQVeaeXLSc2+N6rEjUl9UdR7WXzV2T/0q09PlC/oBd3WwoDU/3Falx4MaqHoabSbjnkS2a3JmS19fsXs79Lne3vBtv85PSOtPcu7F7GNAAL7FmjdtsFvo5Ny2zqzb/zh7r6VuOCEC7x9SX2xB6iv8k/UNzOrvv1U7UVWq+pXulwA+mhBg+rX6HuXtDawUPQQdj9ZNfzcRpT1zQGt7q1qoJxPwyt1UjLo0uhKn9aKHsaflPJTzkoCDQ5Ad5RdGtLUtJR91OyNmfkFY0T56Q3lcrng36K0uK5mL3mlG8yxIxIwDe6DWaWvnFX6/dp+YJqezrUbsUbaPG329nXJBI9FT6Od6rz65hMN6p5eTpneT14IINAYgdZvG1LDQ8rT1jXm63OSUu1Iq//GpLLhg0+/96//vcS+auGN4nk/rbNlrtr+86T6zPErac3KzU/BFJR+rXxzO5yyYoa0+sNg/WHCRUNcfyw8183Wvc4dcqxHt9V287Zue9Nayg/jrVhWk5E7dPTmgsLHvSb9NneEkzN0NTYE1g5/9qbOOMOiTfJly++lcVu37dDph2bqTnF+lYZBu0522+TXPS1pujuaTlSujvYi3hE4gEBjA9CnWS0Pp9V7JS19/1NhIPd6XeNOT2NyzAn0ns45vZBzsgNa/eGtc04vZXTM1N0+yfV6MMfW9Sw+HNbLs/Aaa7b7cEHLw4u6c73d7pLUqYn5Xvl7drU+VqZn1Clvz8ymc70k51gyWTrvwgv4dBIFvGByJi0TCp798DPNPlhVtqBnU9KDQZ2z8xra2nRu4JK27g8UNNJhY2f6Mz++V/Q0OrR5dFvnBqR7XxZeHx43Gy9W9MW0HZ5bcIQPCCBQo8CB2wavvRnXeNhumJFAbk9q1B5UbNsK2hC3Z9KkNa65+fGwvbS9lkU9mCYNt42N1/3CRxrtyOjrUiN+quQf1c/0orrtZGzkU0E6Ud3jReHzcQokvAeo4YPPaj2ZZYqaf7amS4my4aey033q/4M57vdwhfmF6a1p8Fnan66yPau1gXP6RF95n1+aHrGCXtM1DX6b8Ke3/HJPGjgXzT312slL2gqmvWy9Pahz7tDSB5PSp2aoZ7neyO0qZX2llU8HpZWXflk/lSYfBJWIB9feQ2pb77CiMoFw98/R9BxTxk/sCKqC8r/UPcXKr0k96fDz/vx67OFB+FDcyauGzbMfrmprRtLMlva8h9sV6lhDeoc7xYwIW/MfVngJxYaHHy5xrj5mgYYGoDs/LGvonU7pzFWlldVP4TDcHc1dyyhxN+hpvDsUMZhG+5a0aHsh70oj7pzKJSkdHFscXtZCMEzINOAjz6a0YY915PU/r49qaCkbBbCPstL0R+qMcgu3fn2+qdSF8+Hn+MbOfI8yHYtRz+itoHH1ypvX1Hd+XTamU9Gl1eoSncnWiRbwnxLf+9j2RJrey7XiuS2xOaB721K3s7CDmcOZnZ7VZx8GDfebsQYlNNrW7a5J9a18VWEIjz8fdC0cnhtezAYCCOxD4MBtQ5BHetK2DVLmWjZovzY01b2srBvwxdq2sN27OFEwKicxM+NMadlU/sK0f/y7KWnma6+96/xgquChr9cWj9iHqaUrb64p2QtaJf/ESNSOL98ywzb8z4vDm9HIJ9rC0uhNuNebGvJz3lt/wHuw+nai4CFp9SL77VjamxZS4mxvrYTPwrbLyy827FfqU9ievplQn6LA7WziUlGis58GD2LfHNBnzsgh74Huyqj3YNhcVPxQ14xaKkou2lGtrPGg8sqo7t2wl8dGMb3Ia20mqrc9y3t3ptt0Te1pNfgdwJRfwYNt6awGPp2VCqwiF3PcjL6ywbz7ULwgr/1+qFjH/SZW7fw1Db7lLrToTzGyHuaBBa/WEWhcAPp6XQtLQ0pfNFjtuvqulPlT0Jf5Oq9895Q+8o7FMH/La1PLGrG9o7eWpWf5qPd0OB0GkOcvRMGe+SVhyGlgO8cm1KlOpcMgdUdfz0jpK24PZyzvsh93lX+W0tQHNnQ16QaNqynv8Kh6z5S4uFpdSlzCrhMoYOaIPCj8wWmGsBQ+pS1RL6+xigLVV998oUlNqjvsJT2nwQfS5JeFKxhuZ+I/lONpm1UL/XP8J5jx43xGAIH6CFRoG7wMEkq4bUPYfrUr0SHl/+JM8AiPSZ3vDDntnturOKLlgoKnojbtTELhQEnvoW/Qo1nQFhdcXPjhTG+ZXtDK+SfecJLpTutqUF/TPm8+/9U/SFvoIB3tphewPchHQ0OrZf9mQpe8ETzmwepasMBdtYuc4y/yenLD+S46hyR/rQRveKdt594a1JpqWzehIKnwQ+FiR4kOO1vVLIRk2uFz4VDeNi+v+LoLYUKxjRrKaoJKXXIWWzqrxNtRMm7Aa4JJf7HA6Li3deVz7W3ParIrCrz8YbN++fs6wv+rYxcWf3SDedMLXTK/4ssq76lSx8oX7/dofBGivaAX1qbT7AtW2XLyXotAwwLQ3UfZgkDSG5rq9EZWLFx31JPpzccMh8FWvKrkwfBJsDccuEygKKmgsSyZ0gF31rEuBywBlzVYwH/KGgzBCVe5NavTxua2VCxH0NiHK9gGK8H9ck997nBeM1xnelZbZed9+sHnEzMkqOw5FQvCQQQQcAQa1jY4eVTajI++ccYLVbisXb0jQ1r+YUemLS438ieegO0FDeexeVNbCkf/1JZ/PGVJtIUlUI5vlwlQVLJ3MxjB88eFYF2D/ZXR9Lyp3PzPYFioHRIbrQhf27oJtZTEq5d3oh8M9tnhsWHbXG64bSz1Wsrq9c66Aa0fNIYphaOYqvQKmyA0XB2/T5NdZi6nX/59LSJYa35hAWvYqFbHGpKo2ymPFuqWFAkdv0CDAtBd/fS9wmGpdlEfM2TWG3JkntRuRUNyd//iNHdvJJTacuei7Gr9oZ0FWh7M/JKw7CyisDMfzDEJnur23Mo7PZjF6bR7w3VHYiv/7WjOmzdjnlZvRj24MosrBU+eTXmdwNr0xIavA9YlvJ6NEyEQzWdxixsbfuMesttez2kwhCZo7IqGA3kNStBLahYC6JrU7PbnZQaiRKviRkNWbGa8I4DAQQQO3DYcJDPvml2tLy4r9e7VYP0BRdNDzOihWtO9+JGmno2oZyah0YK1DSokELSXmaXCc8LpKfvJ302CttDVONrtYC5itzv3scr6AF3vzWptelJr4fDPWoscLFrkze8svqbcsFCv58590Fp8aYU9axr8YzA3MFYvrx7OfFF/QR93oZ7yydZU1qB9jvI3ixG6aQbDYru69cQZCuye4ZXJWXjI67EOepBN+aMht0GPbMV7EuU3WbYX2s29hu2qdawhDU5BoITA70rsO/yu1z8pq7Sm3aFHZkmfd4Y08sOOJi52auJuQslrSWUkpbqjobQ606s7d/NK3kqGQ41S0xvqrVKq9ut3tPg8qZ6kSVHS8KJywTX+cKZEODQo2B1769REblFzyR4lzQRs75XS1Hd3vF8C2sc2NDXWo2TSPzJ0NxcMu+3V9PS4eoIDXl06gssPWJfgat5OiIBZtfZlieXUvcaj6wutfLyqtKmLtwjRYEGtZrf3vLkw25lBmfmaqwVHzQe/QRkcWND/t/JEa5LWutpK/F22WW39kvAbvwfdajOr2NmXmXsaW+zIHuIdAQSqCRywbQjXPKiWfnB8aURJG/iZ9isIGr1RPNeCdqk7Jae1rJKwmfqSkjqiaStVLvAOm/xSS0E7atptM5/0QPk7udEWOhhHvWn+PNeW1FbYLpi2x//zXSXK4wWtkry/L13ieNldeeUfXFL6fqkT/AVlZreLWzl5Qc6gF0gOfFzq2kr7+nSvI6u2tm7vJNPjGdbryud6udLvLf7np2CGeJZ7gOvmUWNZp7o0cH9L+dB21vvbpk+cpLzgWgoWXXIOBJveoj/P2nSuzf5u4JfRWwkiXn7TllcZ2eTnt1a+Fzosgj9tyObq7Q4WHvJ/d+lWm1kc6f5AxTqaAPrcs8+iBYtunlP+0wrfrTD/A2xcGT3ARVzSrAJtuVxu7/Lly2XL9/jxY1U6XvbCfRwwCwj1PB9VbszOsdzHxTWcalYEzL6T00SpOac1XM8pCJQSuH//vm7evFnqEPsQOFIBvotHyl33zBrTBpq5m2ZFljul1yioey1IsJkE+JnQTHfjKMtipuF8ocQvNQ41rnfRHt3WbX0ePQSod/qS+G43ALUBSVaLHxvTA1pDRUxQOGKf9mpIi7nGBJ/mz6B4q+OO1VAoTkEAAQQQQKAFBHYfzijTMapcbCRSC1SNKiCAQDmB4G+JlxqVVe6Seu7f/rOUnqpniqTVqgLHFoB2juWUO4qg0CwhP9+qt496IYAAAgicdAEzhcROGalXXRqRZr3KRjoIIFB/ge1Mm7qnnSG89c+iaopdU59XPYcTEDACxxaAwo8AAggggAACCCCAAAKHFzB/Q3SP3sfDQ5LCkQg0aBXcIyk7mSCAAAIIIIAAAggggAACCJwgAXpAT9DNoqjNJ2Amw/NCAAEEEECg2QRon5rtjlAeBBCwAgSgVoJ3BPYpwAq4+wTjdAQQQACBIxGgfToSZjJBAIEDCjAE94BwXIYAAggggAACCCCAAAIIILA/AQLQ/XlxNgIIIIAAAggggAACCCCAwAEFCEAPCMdlCCCAAAIIIIAAAggggAAC+xNgDuj+vDgbgVDgyZMn+od/+IfwMxsIHJfA73//e126dOm4sidfBBBoMgHapya7IRSnbgK0d3WjPNaECECPlZ/MT7KACT5v3LhxkqtA2VtE4MGDBwSgLXIvqQYC9RCgfaqHImk0owDtXTPelf2XiSG4+zfjCgQQQAABBBBAAAEEEEAAgQMIEIAeAI1LEEAAAQQQQAABBBBAAAEE9i9AALp/M65AoAaBbd1ua1NbZrvo3O2M3f9KKzfb1P/NK0nudtEljd3x6LbaTFnDf7dVXOrGFqGm1F+sqL+tXysvSpzt1aFJy12iuOxCAAEEjk0g/jO/oJ3y26K2mysyLVPBy/sZ3Kbbj8xev43zt4Oz4unG0vDavrCdsW1OmZ/pBRlX+xCUOUy7Hmn6eUbtdbUy2OO1+e0/XZt++ffqvsf4e0b5YnPklAoQgJ7SG0+1GyzwKKvJmVnNTmebM5gLqv/qm361dT3RvV/2tLfn/3u58kTd5QK9BrORPAKnQ2BX62NJzT09HbWlls0j4P/Ml7aCn/fm5/6WutXWZh/gnVX6/T7pQV75WLFf/biqNc0qfSV2wHw0wWe8LXl/VediQahmtsK2xuT9ckUafMvmXSLdqrtMIHxOq++/jNL9pV+rb9mHu1UTqPMJB/SrVynq7luvgpEOAoUCDQtAdx+OK5lMFv6b3ynM/ZCfduaTGn+4e8hUuByBegu80sqXk5p9b1SJG5P6wuvhrJbHWQ3c39Pqh2ernVi/4y9W9MnAmma3VzXwZpTs2Q+/0r0ba1r9sej5d3QSWw0V6OnpcXqk/Z4Cs4/X0QsUtWVj6zr+VmdHc8lxrb8u72HaR9MGu0EubWZ5r1NxxPuZL9375XN1ORXumnqpe05bdfYP/erTpLJeT6c98ZWy366pb2W04NrwaP6JdKNf6YK25DPNPlhVttSoleDCsx9+ptmivGyq1d+3M92anNkqbDvfHNDq9qzWBhYO/QC4a2pPe1OuVvUy1eJ3kHSr51x8xmF9i1Os/x7au/qbnoQUGxaAepUfXlQul4v+jXWeBBPKiMDhBF5ktfrAPCX2n4SufZstHspUlEN8aEx8SJHzhDgYbnrbDOUNhhz5w3gl7+l2OAwpOB5/Ah3k7T3NvnFPo0VPs0sEw8HQKz8/d3hTUO7MbfWH+TplNXmVu9bbf1u2HnYoV+EwIjevIrQyO6qVKWbrDD+LD4vyPK2fcb95W7dvGldbrlhaYS9C0CPQFtXP2Nn75Be8/EDnv/u7vyuqW6l9RSexozECTlu22JFRT50fpjam0FJqeEj5xWYImBtVQ9Ldj4D/M78wSPSvj7VVb6bVf0Oa/LPzM8pr1/rU/4fSD0nPJi5JRcFmlz7fK3zAuZ/yVj93W9lpafa9EgHilXRRYFu+bYn9HC/XJhS0ZXYocolS1uBX0NZUTDdWNreNKZF1zbu8PG07Zq6KDamuWKaac6npxFJtW6l9NSXGSSdGoLEBaCmG1+saT85pLng6mwwacvu01jyxdXs1vSe283Mat72p9unz0zmNLEmbMz0FT3nddGzakv+0eG4+6JW1aZQqH/sQOKSA18jPpL2nxN7Tx6JGuXoGr775RINv26FKhU+n/asn9aQjGHLkPen9xJsbefbD1WgY0t6WZiXNfjqgUr8y5J+tSW8nSh4rLOG2br81qEvbwTDd7UtFQ6bWpqXPvCFdflm7wwa82rVRPT43gfCj2+r++Z5eBsPDtmbWNPhH55egwoJV/FSuTEW2P3cHc5oqJucffDApfWoc/F+qitJyehH8C6L67Tn3yZ/z2102w7/927+V+Wdf8c92P+9HL9D5zpD0LO/1gha2T0GP5NO5aORPrK2J2qceZbaispv9UU9lfHiu/zkcUTS/o535ES1rU5lrppdzTmXHFl34SKMdGX1daqivW86CdtdvL8fHohFMc0/dMsR6XgvSqVCWqLpsHZNApZ/5fgBph90Gw0idKSTlg9egMlc+l/fz+i37YDT2ILJMnV9984Umyw3rLXNNuPtFXk/Up4TT6xoeU0KJG9KTfDCSp7v53TcAACAASURBVELbUvRzvGSb8Eornzrt4C/39KSrXB3341c53aKyFbUxUY1LbR3Mt3KZSuVzmH3x9i3++TBpc23zCjQ2AF0aiRriguFCy9I7Qc/oWKfMEKeRZ1Pa8HpLN5T+vsdpjKXNZwlNB8emFDSmFye0OCylpje8HtaJi/LTUdTruqgRJ51N5S9M+72x871qb957QslOtIAZpiTd+9g+ke1Semb/w1m9QDIc9pNX/kEcZVaf2eG6bybUFz/sLWrUrScrL+UFdkXHS+yIPfEMF6Ew81ndntIro95wLXd4VjQs66wSbztpV7029kT9yufau28D5lfK/+yktc/NsmUy6Ux/ESxm5Pf21mwU+0XpwPcp6E2oVCX3CbC7XekajjVeYOeHZakjEbYhUft0R71a1/itvKa+89u3jXezYW9pvJ2bKv/8oaASO/M9ynTYdm1DU8rr/NiihpQK8plQpbFFnR9Mle4FvTgRjU7KLSoxM+MM6d1UYiRoo+8OafnWjDTpf14c3lT2UTAI2TxQviUt2pFOd6WRE9I7XIDMhyIBfxjpE+W94bPB8Nv30xUfWHrDSr2Hh+bh56S6zagYO4LE5jBt5pvaILVN5waKhwTbU+v6Xq1tqbFNmPwyWJzJDPPdKxzK7JZ3v37l0q3exri5mratfr7lyhTLsS4f3TbO3a5L4iTSlAKNDUCdYUu53B31nrEGQ0pftNvSr883NTRig8J2XX03peUfome6qXevBo19uxId0XXxLZOOnKDX9JDm/2Jn66SUvkLYGTfjc50FHi1o8MGaBsOnwG3qntb+56IUrCb4hZ7c2F85tzPnvB7USnNKEx190s/5aHiw16DahYiikPaVmdvzYFDnwl8azmnwgfNkuULR9n1tQRD8iVYrpH3QQ6ZB9xe+sL8EucOQ9pnqQe/Ti7zWdKliZvYpsH2veDIHGyvgtivmIacznSRqnyT9ltfm8GjY1rVfSSu1lPV6KAvbuVqLu6v8s5SmPrAhZrt6x2xbWWMaZ3rL9IK6vZqmR9V9pZR4w/ncndbVoP0+fyGlzee/+gdNfbWsETtC6dZy2DvsXM1mkwgU/cx3yuX9rL6RUMLu84aRBg9Pqwy/tZdE72borWlLtjT7YFCfuOsgxBbJsaNJomujrcIpJSV6G99M6JLWgiA5us7f8h/cXkoE438qtC21tQnmYeVL3ZPTFsaDa7cINftVSXe/bcw+fN3iFm5XKVPhyXX5ZNs5+16XREmkqQUaG4AeQ9Vtj6ide3rnOkHnMdyGU5vl9p8n1bfirMZnG+F9LbLgL2IUpfOV+vchahptbxhr2INa+mLvCe2DQS0ULDRRfK43NOtGNCzWrpZbKbi1qez32u0/DmotbEBX9Znbm2oTrcO791TZHeb7aYk/OVA1n0PcJ6/X+knVHMyTYJ4GV2Vq/Anuw1Qn+Gx8xvXJwfaCuquaFvasmh7VA7667eiloMeUEUYHhGz8Zf7P/FKLApXq4YzmhW6b1W9jCwwVltafp2jn8UfH/GGw0ef9bbk/p/dK9jaaEUaxuao2CzP6xhmxUq1tcfPyhhKXbBP8ETN+G1giuLZ5e+/78SuX7iHamIKyHORDuTIdJK3arqG9q82pVc5qigDUPFFdDhdK2NVP329q6B37xLd2au/J7MzX0XyY1+taLzX3pfYkOROBfQlkp2NDSr2rKzSSFVJfexb8uuj1qlY40T306LbODVzSVjiM1T0Y235zQF+t9GmyK9YD6KWxFp1sFnNwA9XgSXLxLxvRJeHWQa61vbIvVvTFdJhS3TYKFn+Q5PUKBHNhve1w3pP/S1m1jA90n4Kn49XS5mlwNaEmO/5GQqmlhXAo6+6jrDaH094QWa+dC0f2/Kq8MwfU1CIcrfP6J2XDY2bUz6Yyf7Ijgna1Pn+ARYWCXtDMUqFX6sJ5f8drO/ev8HjVT6a+W+4c012tP7RlrXo1Jxy1gPczv/jPnngjZh440zqCctmHlN0Da+qrOPzWD7aK2xIzIqhUm1i/indNbWl2urtwgTfTRnWZh8GxFXvLtC2V2oSopLFFeoI5pmEPa3RiuFWbX/V0D9TGhKUosxH0Hoer3XsBuz23epnsmfV8p72rp2bzp9UUAWj79TvyVhb0hvH0KPvuhsyczmov81RXziJEXjrDznCga1nJHUZULUGOI3BIgckyT4m73pt15h1Wy+SsBj415wdzOf6c1taMFDZCZS/3n5bKzr0Jh8yWGLoUpOE99Q3+Zlo4L6drUrNmwaEwiO3S596CC8GQ1bcGpZrnlu7v2q6P76nPDvf9VPpsJTZMuGzdaz/g/cmBn6N5Ml7AHvQW2yXrvblLbZ9I75tlnMq9DnqfTHrm6XIYZZTLgP0nTeBMr+7cTQSLAyXV831aG0GPafv1aU09s+siLCjvzAF127LkbF4J99jYhnNdj7IXzJSUTn00reqLEDl+Jo9U7LNtP5OzWefIPja9+po5onbBoh5lFQS1+0iGU49OwPuZvy1/fmbQRnTLLHhXYj5jsJqrVD2I9NM1C9TZqQ1tausyf2+0kavgGjcz3Pel+r89F80tfWtV/b8U/lmzSm1LpTYhujOxtqzNn+ZScf2AmvwqpXuYNiYqeemtLo2u9GltIHD7c0L3wqk+lcpUOjX2IrBfgbZcLrd3+fLlstc9fvxYlY6XvZADCLS4wIMHD3TjRvgTu8VrS/WaWYDvYjPfHcqGwNEL8DPh6M3J8WgE+G4fjfNhc6kWPzZFD+hhK8n1CCCAAAIIIIAAAggggAACzS9AANr894gSIoAAAggggAACCCCAAAItIUAA2hK3kUoggAACCCCAAAIIIIAAAs0v8LvmLyIlRKA5BX7/+9/LzEXghcBxC5jvIi8EEEDACtA+WQneW02A9q417igBaGvcR2pxDAKXLl2S+ccLAQQQQACBZhKgfWqmu0FZEEAgLsAQ3LgInxFAAAEEEEAAAQQQQAABBBoiQADaEFYSRQABBBBAAAEEEEAAAQQQiAsQgMZF+IwAAggggAACCCCAAAIIINAQAQLQhrCSKAIIIIAAAggggAACCCCAQFyARYjiInxGAAEEEEAAAQROsMCTJ0/0D//wDye4BhQdgdICZhVcFoAsbXOS9hKAnqS7RVkRQAABBBBAAIEqAib4vHHjRpWzOIzAyRMwf/6OAPTk3bd4iRmCGxfhMwIIIIAAAggggAACCCCAQEMECEAbwkqiCCCAAAIIIIAAAggggAACcQEC0LgInxGos8B//s//Wc+fP9ff//3fe//MttnHC4FyAnxnysmwHwEEDi+wrdttbWrLbJdP6tFttZlzwn+3Ve7s7Yw5r/Rx/5hNp18rL0pn6Z3nlOfVN/1qu7miV7HTy+2PncZHBBBocoHmD0Bfr2t8bF27TQ5ZXLxdrY8lNfe0+Ah7TofA//k//8cLPP/H//gf+jf/5t/orbfe8v6ZbbPPBKLmHF4IWAG+M1biJL3vaC45p53DFtlt68x2PdJUncq2j7rtzCc1/vD4W2xTDtrfMjfuUVaTM7Oanc6WDCq9IK/rie79sqe9Pf/fy5Un6m4rFUBuKzs9q9mZSWUfFeZn0un++Z5ehmlIg2+VCFQf3Vb3dOG1fEIAgdYWaEwAWqbx3H04ruT8PpvpM726M9+r9kPch2oNoleuZFJJ+68pAl7zi8O41l+Xr7iplymz28hWq2v51DhSb4EXL17or/7qr9Te3q5//s//eZi82Tb7zDFzDi8ErADfGSvRPO9F7UPsZ67UqYnchDorFblMm1hwSR3auuI2toayFRSi1g+mfXLazCKTWtPhvKMXeKWVLyc1+96oEjcm9cU3sT7GFyv6ZGBNs9urGngzKt3ZD7/SvRtrWv2x8PxX33yhyZm0Rjv6NPllYY/l2Q9XtXd/QGeDZM7+oV99eqJ8QbNnyvNEfayXFGGfsq2enh6np93vLTf7eLW2QGMC0DNXle5eVrag929XP32/qaF3KjbTx6c9vKhcLuf9W+zIqGe/gfIxlTw1PKT84knsIT4msCPK9h//8R+9nP7lv/yX+r//9//q119/Db9fZtvsM8fMy557REUjmyYVsN8D+50x35H4P74zx3TznPYhl1uUbiX3/zD1mIpe/2xN8Dmi/PRG+DPNM6Edqj91I1J8kdXqg1mlr5xV+v0+rX2bLRjm+urHVa3duKfRK/HMz2rg/p5WP7ThpDn+Stlv1zT7Xpe84PLBqrIFwWU8jeLPr775RKvvf6XP3i4+xp7TIfB3f/d3RRUtta/oJHacaIHGBKBq19V3U1r+wentfP2TsltDSl+U9HQu6m1MusN1/F6/uflx/7jpiXSHJXnDiZynrk5Ppf/kd855KhsMiXo6p5ElaXOmp6i3sNyd63xnSHqW94b9ej2K83Ma9572Bj2S3tNsW47CoVe2VzKZ7FFmK8rBlM8dlhTvqYyuSyo5tq6f5ke0rE1lrpl8CvOIUpV04SONdmT0dUGwH5xR1lny8h8LnE3d5nfkPul3y1p4vyqUpaBgp/vDf/kv/0X/4l/8Cy+A+O233/T06VP9p//0n7x/ZtvsM8GFOcecywsB9zsTDzzdz3xnjvu7YnoVFzW0tBCMUDHtVvRzMf6zfFe7Wp/NaFPLGjE/a712q1pbZ+qY18KYbWeckS4FbWLQngZt5czMprQ04rV1/s/wwrKpTNtVtv0sQb37cEHLw4u6c90dl9SpCXek0vOvgzbT1tck5E9LCUcaOWZ+ueY0F4zqKRjZ45W5zDH5bVmY5gl5cFyC9ch2eQHmTFpdks5++JlmY0Fj/tma9HYi7LWsWLAwmJX05oA+mynuIXWv3/7joNZu9Csd9qxua2Hgkj4rCGqdKx4M6lw4B9XvGTs3sOacwGYrCPzt3/6tzD/7in+2+3lvLYEGBaBS+5W0UkvZcF7M7qOsNofT/jClixMFT04TMzPOUNNN5S9M+8fdBs1zNw2/30tpeitNT+WMO9dkSUrbXszhZS2YYxcntDgspYKntRMmAK7y2vlhWepIhMN+N58lNO2le0e9Z3Y0dy2jxN2gHHelkSAQNo34yLMpbXjnbmiqu0pGweHC60y98vrrsUUNKaWp70w+lYd3dX4wVboXtKKztNkxGtwH88vUiGYUuN8d0ub3P/nzbk3jf0tatO6mvjTyVW/s//pf/0v/9J/+U2/+jAk24y+zz8ytMeeYc2t7mV8mo19IvV+6wntRfKzgIYKXQewc5wGOn3/8F8TCXp6CX6zDX6RrKzlnVRdwvzN23lWp91q/M/Z+lRui7z5wCn+BH1vXMzNVIv49Cz67aVWvUSufcV6J7k3l4/9rmweeYRuQ08a70q9qV+/klFIa8n+Ohu1apbbOt0tP2nZmSMu3oiC3pOyZXk1Pp6Sgt7YwQDRXlG+7vPRKtZ8lMvr1+aZSF86XOBLtitrMDU3JPiBtV+981H5vTOdjbcmy9I5T34Ie1dLHvLZTzugljRRMSYlKxJYvYHospXsfm/DTvLqUrhI06sWK+t0g0FkYyASzWhn1glkvtfdmi3pU/Xwkbz7odJ/ufRkNyd3OdEvbn4fX23PD9xvR/FH7s/DlSl94mI3WEXB7PN3t1qkhNYkL/C6+o26fz/RqdDip7NMJdV40w2+lqUk7/Nb8ouv2EKY0FWacUvqK+2Q1POBtmAanxzzlDV4pd+K6DXAlnb+QsqfU9m6eGi8Fp5oGfMyWVUq9ezUMRvU6r3z3lKZtIHsxraGtBf30uleJ55saGrkTnVtbzjINuntd59iE98tCtsbrZaw7kvr6aa/SBddUclbslwjH/Y2EUlt5/Sqp/be89+R+M7kcpdyd0K46913PKAG29i1gHgTYBx/2u+f1KJiHN+bBiEnRPLCw2ybYnNH6FffziGQenATXe/8vJfNaDB5w7Mz3KPvuhnLz9v+/Xa3PmwcRnZJ5uOL9ohf9f7EzP+d/R/ZdGS44KoFwiH4Y9MRyjv2s84/2KnfdbPk/P/IjOdXy4C6W8un86P3szKjH/n91vdL6Bc7P3JJaCSW8/68lmXZGC8q/NjNOD/iq0HZdNUkepv2MFSlqM9uV6DB9ucHLjMq55bQlw6P2iKRghJTZYxydI+WOmbZTS5tR221+Cl4wD57tz7CCRPjwaEGDD9akB20aLNBY0PaHfiCY6OiTvs3rlbr8XtA3B7S6N+CdbYLIc9/aC03v5ZrMf23+YXtAC48G9LkzhNe7bkC694szr/TFir74+Z6+in75C69n4/QJuL2ebm/o6ZM4PTVuWA+oITRDWb1huGb4rdK6GjSm5hfdTId9aml6+mp8PZ1Tz0wi7I0zPZt1e7lzfJzgs27pNzgh2wsaNvTe0KQDOsfL2m17dYOn0+V+mY1fd4o/mwWG/vf//t+ewLlz54ok7D5zjjm32mvnTxlpeiMWCJgeBRtgxlMo7KGxw+bcQKL9+rSmwrnau8o/kxJ/4/7i1q7eMf8X6FK9HuZByYF/GY4Xl8/e98B+Zypx1Pqd8dKoNES/UiYcqyLwq/JbKSXeiJ1mFhLyRouklfV6jSsvJBe7+kR8NA93N5+bx5P7fHmjafLBqJ6cNkxvbR1ednSTXcOhuOe3Dpm0SBLbf55U38rLcGVbv1dxS7OKVrD153IOaiG2om0RgVlJt0QP5daMNPnn6A+2+MHnJW3tOcGnmT1q5po6Q2y9VXCnu0v+6ZWivNnRkgKm55Pez5a8tSUr1dAA1Htqu5TV+qOs5PYiek8pgyE85qlsyaKV2dmdkH+l/wtzmbMat/tMQoktO6TIzL/JarnbD65NwxzNezW/oBQWI2q0d5S1va1Bb+2yM9zI9Cw5s2cLEyn3yesFzSjjpGtODYdK7dfZ5hM80Y/mmO5q/eG+S2dTOzXv5k+t/Pf//t+9+v67f/fv9Pbbb+vf/tt/6/0z22afeZlzzLmVX6WCw8pXyJ1zLXm97OF3Ibw06J34i/mTCe3qHTHD/IIhvuHQXv9k84BDwTxqfw5bmAgbdRJwvzOVkqztOxOlYB9OlfzDGMF8wXDIbdGw7CgdtqyAGV1gFuGZDkYe2P3y5tH7w5TNdBEzDaPEMN3o9Jq3vAdIQTvjXRSMUDHb3pSRWlKq0HbVcrk9p/36qDdlo3CI/47mavruRL26Xu+lTfSA714wPPN11F6+Xtd6qfUQDph+q12Wne5T/x/cRYRMDc0wXCdofHNAX630abIr9idXHt2WO//SC2bfTxfNFe16b1ayf97Fu8b0fBYPs/VWyA3+PIsJhE3gqpmtglVzW82f+lQWcHtBK5/J0VYQaNwQXE+nU+nhEY3MmKGBUc+K98vstR4lzQ+c7lRsqE0F1osfaUo96klmvOGGqRrnWLr5Dd097HCyTk18N6VxsziQV1QzrycYZmV6lMbMYkfmQEqmfImgOl6jnbTDfIc05PTetl+/o8XnyaBeZijUonLq1PlpqedaUhlv7lD13iZTz9SSsfFfbr335WwTMO/mif7dvJK3krIDp8wT5173HLaLBM6cOaP/+l//q/7bf/tv+tf/+l97AacNOu3J5phpeM25+3v5vwD798MddusvWuV/A8z3svp3piBfb86wGf5tF/Yw/39OacP0eHs9O/5d94fumlwOkEdBhnxwBeLfGfeY3T7Qd6bsEP3gZ80JHPFhPY7s3Z2iYb75d3O6Ew6Fj0ph1j7Ih21D4Oud509JGTFTGbz/p2zLEF1bvGUWLbI/dZ12JpjeYo8NDUdjiNx2xvycvuMNpbYpl2+7Sj6csJcVvfuLMM0lgzbcO+7/HDKtfNm+0Vi5U90pqaMo8X3tsG2ntfCnIdA6lUOcvNGvl+ECQNFZXtDY9YVWPvZ7Kb3g8A8r6n+rcKju7PaeP7TW/KkWE8z+Eg9mJV1Ja1bd+uKbUX32bNLLZLBcOlER2EIAgVMm0JbL5fYuX75cttqPHz9WpeNlL+QAAqdcwAyV/I//8T96f9/qX/2rf6V/9s/+mSdi9pteLBN8/vt//+/D/ZW4zIIyCxfML5TRgxxvUZHkghLevE8TlLrb/p9JsOd7QePz0YK5zdXn+LlpxkvH/MC4SD0+N+w7Y4Y/zkrpjoyywfeo9HfCrQX32NVgG4GTJPDgwQPduMEf1zxJ94yy1ibAd7s2p+M+q1r82NghuMdde/JH4BgFTMD5H/7Df9Bf//Vfez2h5u9/mn+mF8vsM8dsUFqtmF5v9kxPjSs8+j0UCed8O2zOXcV09+GMMvZPI3l/4ig29Nsbtm2GzJlAJD6XrcwcuGoV4XhFgXp+ZwoyKjNEv+AcPiCAAAIIIIAAAkcg0OAhuEdQA7JAoMkFzNDK/Q+zjVXKGwKb8P8Mi3PIDLObKDmCNxpuN+4NxbPD5uzQ8WB4rR0+rk59NL2gHn/8eJBDNMS2cyShpDcc3GbuDv21+3ivl0BdvjOxwsSH6HuHY0NLwyHXsWv5iAACCCCAAAII1EuAIbj1kiQdBBBAAAEEEECgCQQYptgEN4EiNESA73ZDWOueaLUhuPSA1p2cBBFAAAEEEEAAgeMT+P3vfy/zizovBFpNwHy3eZ18AQLQk38PqQECCCCAAAIIIBAKXLp0SeYfLwQQQKAZBViEqBnvCmVCAAEEEEAAAQQQQAABBFpQgAC0BW8qVUIAAQQQQAABBBBAAAEEmlGAALQZ7wplQgABBBBAAAEEEEAAAQRaUIAAtAVvKlVCAAEEEEAAAQQQQAABBJpRgAC0Ge8KZUIAAQQQQAABBBBAAAEEWlCAALQFbypVQgABBBBAAAEEEEAAAQSaUYAAtBnvCmVCAAEEEEAAAQQQQAABBFpQgAC0BW8qVUIAAQQQQAABBBBAAAEEmlGAALQZ7wplQgABBBBAAAEEEEAAAQRaUIAAtAVvKlVCAAEEEEAAAQQQQAABBJpRgAC0Ge8KZUIAAQQQQAABBBBAAAEEWlCAALQFbypVQgABBBBAAAEEEEAAAQSaUYAAtBnvCmVCAAEEEEAAAQQQQAABBFpQgAC0BW8qVUIAAQQQQAABBBBAAAEEmlHgd7UU6vHjx7WcxjkIIIAAAggggAACCCCAAAIIlBWoGoBevny57MUcQAABBBBAAAEEEEAAAQQQQKBWAYbg1irFeQgggAACCCCAAAIIIIAAAocSIAA9FB8XI4AAAggggAACCCCAAAII1CpAAFqrFOchgAACCCCAAAIIIIAAAggcSoAA9FB8XIwAAggggAACCCCAAAIIIFCrAAForVKchwACCCCAAAIIIIAAAgggcCgBAtBD8XExAggggAACCCCAAAIIIIBArQIEoLVKcR4CCCCAAAIIIIAAAggggMChBAhAD8XHxQgggAACCCCAAAIIIIAAArUKEIDWKsV5CCCAAAIIIIAAAggggAAChxIgAD0UHxcjgAACCCCAAAIIIIAAAgjUKkAAWqsU5yGAAAIIIIAAAggggAACCBxKgAD0UHxcjAACCCCAAAIIIIAAAgggUKsAAWitUvU87+mcksmk/29+p54pkxYCCCCAAAIIIIAAAggg0LQCDQ5AdzRnAy37Prau3cNyvF7XuJfenBoVvu3M+wHi+MMypXWDyKBuc09rqdiO5m4tSxrSYi6n3FhnLRdxDgIIIIAAAggggAACCCBw4gUaF4B6QeKIlm2gZYKt3KKGTjxZUIGLE059/GBy4mINlXudV96c1p3Q+RpO5xQEEEAAAQQQQAABBBBAoFUEGhaA7vwpo03Tz3d3QlEfX6cm5nvVHujZXkY7HDXqQbQ9p3NafzgeDlf1eyN3NHfNT1ta1ojpfTTDWG2v6Ni61r3ey3Gtv5bieSST/v7wBhb1ZM7px4fjGlnyz9ic6VHRNeHFpTZqLPtWRj3JpGyd4+W0+0vlwD4EEEAAAQQQQAABBBBA4CQK/K5aoR8/flztlILjly9flrSr/DOzO6XEGwWHww8m4DJB3tDdnCYu7mp9rEeZW+NKfHdHvWfsacvKakO5737SuAk6Z77WzvUJTXw3pbwXhJqexyDAfe31K0pbGWW27PVS55gZ5hp8NsHmrWVlZtd11QTCwWd1T2nDCYzN2YvP/fKlpjd057oNmaN0q2/VXvZaLPZ7H6qXjzMQQAABBBBAAAEEEEAAgfoL+DFh6XSrBqDmskoJlE72V+WdILD4nB1lvR5GG6C26+q7KWlrU9lHu+q9bq8Y0qgX/CWUkLweVXuk7Hs8mDQ9o2GPaeFVOz+YuZhS6t2rYa9s4RmH+VRr2atZ+MHv/u/BYcrOtQgggAACCCCAAAIIIIDA/gWqdZw1aAhup9LDprCbyv9WqdAJJcLezkrnHfSYHa6b0tR3OeW+m1LqoEk1/LpGWzS8AmSAAAIIIIAAAggggAACCFQUaFAAKnV+4Ad7y7fclWp3NOetgmsD1GVlvZVjd/XT92bGaErpKzUMdz3j94hWrJk5aBf8UengrvMdf0mkze9/KlqZ9/yFowpVD2lRFYETEEAAAQQQQAABBBBAAIHmEGhYAKozvbrj9TgGCwV5f6rErIrrv8zczMVhafmW+XMnPd68zaG77vzPSkBR0BYuQlTq9DO9GvV6YoMyxIfimpVs7w5580bNgkD+Ykh+wNx+Je31lpZdhMhbvMjWx0//oAsHHc6iVMXZhwACCCCAAAIIIIAAAgg0n0BbLpfbqzS/0IzhrXS8+apEiRBAAAEEEEAAAQQQQAABBI5DoFr82Lge0OOoLXkigAACCCCAAAIIIIAAAgg0rQABaNPeGgqGAAIIIIAAAggggAACCLSWAAFoa91PaoMAAggggAACCCCAAAIINK0AAWjT3hoKhgACCCCAAAIIIIAAAgi0lgABaGvdT2qDAAIIIIAAAggggAACCDStAAFo094aCoYAAggggAACCCCAAAIItJYAAWhr3U9qgwACCCCAAAIIIIAAAgg0rQABaNPeGgqGAAIIIIAAAggggAACCLSWAAFoa91PVlpBQAAAIABJREFUaoMAAggggAACCCCAAAIINK0AAWjT3hoKhgACCCCAAAIIIIAAAgi0lgABaGvdT2qDAAIIIIAAAggggAACCDStAAFo094aCoYAAggggAACCCCAAAIItJYAAWhr3U9qgwACCCCAAAIIIIAAAgg0rQABaNPeGgqGAAIIIIAAAggggAACCLSWAAFoa91PaoMAAggggAACCCCAAAIINK0AAWjT3hoKhgACCCCAAAIIIIAAAgi0lgABaGvdT2qDAAIIIIAAAggggAACCDStAAFo094aCoYAAggggAACCCCAAAIItJYAAWhr3U9qgwACCCCAAAIIIIAAAgg0rQABaNPeGgqGAAIIIIAAAggggAACCLSWAAFoa91PaoMAAggggAACCCCAAAIINK0AAWjT3hoKhgACCCCAAAIIIIAAAgi0lgABaGvdT2qDAAIIIIAAAggggAACCDStAAFo094aCoYAAggggAACCCCAAAIItJbA71qrOtQGAQQQaA2B+/fvt0ZFqMWpEbh58+apqSsVRQABBBA4uAAB6MHtuBIBBBBoqAC/0DeUl8TrKMADkzpikhQCCCDQ4gIMwW3xG0z1EEAAAQQQQAABBBBAAIFmESAAbZY7QTkQQAABBBBAAAEEEEAAgRYXIABt8RtM9RBAAAEEEEAAAQQQQACBZhEgAG2WO0E5EEAAgUoCj26rra0t+pfZds5+pZWbbWq7uaJXzl5v88WK+tvadPuR+bSt2+F2cGI83Vga2xknzzD/fq28iGdU+rN//W25pTVnvvqmP6pL1XT9crcV1NlLxa93eL1T1vDc4Fp7Tqx+pUstKXDr/6ZINDwW3o8wr3hq/n2J0ijh711Sbn88PT4jgAACCCBw8gUIQI/sHu5qfSypuadHliEZIYBAiwh4wVqXtLW3p73g35a61dZmA7uzSr/fJz3IKx+r86sfV7WmWaWvxA6Yjyb47Hqie79E6b58f1Xn4kHazFaYr8n/5Yo0+JbNu0S64a5tZadnNTszqawXAIcH/I0b9/TSqVPZdB9lNTkzq9npbCyQPauB+1HZfZstzUqafa/LhLlaudmtJysvg/K/1D0N6lzZgDEqn3HTzKz0bTYW1G/r9luDurRt893S7HS3oiDTSeObTzT4IPrMFgIIIIAAAghIDQ5AdzSXTCrp/DtUAPZ6XePJOe3U9c6ZMo5r/XWVRL283brUcE2VJDmMAAIIVBV4saJPBqR7v3wuE1LZV9fUS927Makvgh66s3/oV5/igd4rZb9dU9/KaMG1No1X+SfSjX6l37R7pLMffqbZB6vKVujh9M4pyitKw269+uYLTc6kNdrRp8kvS/TO2hODd78OT5QvyPuVVr6c1Ox7o0o49Y1dGnz0A87JmS197gXcfoC6+uFZm4MfqP+cjwWV8dS2tTAg9X+c1qUHg1ooCJ679PneXpC+ua5L6Rlp7Vk89PfT6LsRT5vPCCCAAAIInG6BBgagJrAbUX56Q7lcLvi3KC2ua/ekmZvg81pGibu2Hjnlvksr+6f6hsInjYXyIoBA4wW8HsxYkOjn6vd6rtkeujfT6r8hTf7ZGez6IqvVB33q/4MNwArLezZxSSoKNk2AtaoBJygtvKrWT37wa3oivcCyKJ/idErW1auD6cGN1bf4cr0yPY66p5dTbqhe4sRqu0yPq2fuB5cFptWuDY5vZ7ql7a/UX+P5nIYAAggggMBpEWhYALr7cEHLw4u6c73dsezUxHyv/D3+kFTbOxr2jAa9nHPzUW+jf2xX67MZbWpZI6ZHdcwPZHfmkxqfn9O418tqeiVjva7BeX4hCvNMzu9oZ35Ey9pU5prJr3Tv6s6fMtL0hiYuOlU506s7Y53+jqdzUS9vQX6SKZ9fxx5ltpzr5R5LypSFFwIIIBAXyD9bk95OqFQI6QeQdthtMAzXGaZaMqBzM7jyubZm1jT4lp07WcuwWjN/8wtNlhvWa9MPA0dJbw7os5k1rf4Ym0/5YFDn7NzMtjadG7ikrfsDBXX16jCT9npwK/bOPrqtc6an+MvC621x/HfTK7mmvvfTBXkUniNt/3kyPKfr43vqc0zj55q5ol9M2yG/wVGz7+d7Gi017FnSZJf1tu/dmixKmB0IIIAAAgi0pkDDAtBfn28qdeF8WbWd+R5lOhajntFb7pDWZemdoLfx7pCWvV7TdvVOTimlIS2aHtUwkJU2nyU07fWy3lHvmU5NhD2uOS12ZDTz0O9zLcxzQ1PK6/zYooaU0tR3Jr8JBSGlU+5d5Z9Jib9xA2nnsAmYb+WD63PaeDerniCY3H04rpFnU9rwyrOhqe7oOu+YbP1zWtQI80MjHrYQQOAAAoVDWIPht1WCra4pZy6jJtVtAsL4HNBpM9/UBksmUCweEhwvrgkc5Qz97XpvVmFvrT05Ngd0b1vqbnMXODJ1kO59bHs0TY9kiUDWLK7UNam+la8q9NwGw3Nv3NNX4ZBcWxD33Z+3+pk9x+tZjg9ttuf780HXwiG/Zv8rrXy6qv4KgfBsOH/Utbdp8o4AAggggEBrCzQsAK3MZoK6lKY+sOFep9LDm8o+soNzh5S2vY1vJJSqnJhS714NelX9E01wZ3tWR5bsxfE829U7Zntj7TkHeP8tr83hUfWe8a9tv5JWainrzVM1QfjQSOk8zDEtjRSUM/8XW/8DlINLEECgJQUSHX1SmTmL/hzOhBK25l6wFARoVYbf2kuid39u497elmYfDOoTd/XX2CJEe+4Q3WC1WBug2tV2TU/j2sC5KHDtmpSK5lNGuXtbV0Z174YTYD5a0OADt4e2Td3T0trAQsFiRGa4q5n3Gc31jKXrLUZ0zh+e6/SwFq7E6/f++r27QSDuBd3nvIWEiuewmpVr/Xz33CG/psxvf1YhEI6Xjc8IIIAAAgicLoGGBaDnL6S0+fzXo9d8OqeemYTfS5rLaXH4sEVoV6JDakRwmCqYH5uLDVc+bLm5HgEEWkGg/PzJUj2c0TzJbbP6bcm5o1bF/xMhfsBo95n3hBL7WTjnzQGtOivZeov/eHMoC1e4NSvUbs3E5qi62ZbY9obChivYur2FTo/ko9vqnp7VlhsEFqRl6nlOg29vac8JPs0pZz9cdVb3NYs8BfNW4z2Uv9xTX8EcVj/49FbXjeVryqywx9gPXr1AvIaVdwuKzQcEEEAAAQRaVKBhAWj79VENLY1oPBj+6vvtaM6bI2mCuk1lwkV8dpRdSil9pcww1/3idyfkD/71h8/6l8fz3NX6fG0LInV+MCXN9BQOkTVDb81QW9NDu7QQrqK7+yirzeG0N5TXBOHLP9i5nb8q78wB9QL0ma+jFX1fr2udP9Gy3zvN+Qi0vsCbA/qqxJ892c6Y4GZW4VDRQMIPWAfVXXWuox+sTna5Q17Nn2YxvY7lFy6qBdydQ+meb4bhqtJ8yoK8zVDYUuVwFgYyva9dk5rdLlwh2M3Tc6p1YSJ33qqbiNuzHPxpl3I9rtGQZhMwm5WKpT4TRMcCVTd5thFAAAEEEDhNAr9rXGXNXMxFzSV7lJyxuZi5lne84bLtYxuaGutRMukfG7qb84exVvpzKGd6NTqc1EhyWeqe0sZ8r004er/4kabUo55kRlJKKWfeZWcsT9MDaQbIfjQt9VxLKuPNLy0xD9QsOPSdNG4WKgpzMnNRTf6dunM3r6R3vYJy+UOL269PO3X0y2KHyrVfv6PF50FdvDSNTYn6hPmxgQACp1XA66lL3PaGs4YG3rBYOzcy3CsFq+Gu1RBEhum+1abBMIlZbe2tlvyzLeEplTa8RXn61P9LiWWTrqQ1q2598c2ovjJpeIsQRTmbXWZ+pFmB1xsKe6NfL0usxusFsl1f6P/9f6Q1SWtdbSUW8TH1SCs7bVI1ix25+ZhjxUHr9h8HZeZzrhbVzw/WB83Q3z8ktGr+tueDbrV5aQcnm/mssR7WomTYgQACCCCAAAJqy+Vye5cvXy5L8fjxY1U6XvZCDiCAAAIIHFjg/v37unnz5oGv50IEjlKA7+tRapMXAggg0NwC1eLHhg3BbW4WSocAAggggAACCCCAAAIIIHDUAgSgRy1OfggggAACCCCAAAIIIIDAKRUgAD2lN55qI4AAAggggAACCCCAAAJHLUAAetTi5IcAAggggAACCCCAAAIInFKBBq6Ce0pFqTYCCCBQJwGzsAsvBBBAAAEEEECglQQIQFvpblIXBBBoGQFWwG2ZW0lFEEAAAQQQQMARYAiug8EmAggggAACCCCAAAIIIIBA4wQIQBtnS8oIIIAAAggggAACCCCAAAKOAAGog8EmAggggAACCCCAAAIIIIBA4wSYA9o4W1JGAAEEDizAAkQHpuPCYxJg3vIxwZMtAgggcMIECEBP2A2juAggcHoE+IX+9Nzrk15THpic9DtI+RFAAIGjE2AI7tFZkxMCCCCAAAIIIIAAAgggcKoFCEBP9e2n8ggggAACCCCAAAIIIIDA0QkQgB6dNTkhgAACCCCAAAIIIIAAAqdagAD0VN9+Ko8AAidG4NFttbW1Rf8y2/Up+osV9bf1a+XFPpILynL7UfE125k2td1c0auDpFucXOEeL03HwHo4Fl7+zufCBPiEAAIIIIAAAsctQAB63HeA/BFAAIEqAq++6Vdbl7S1t6e94N+WutXWdlt1CkOrlCB2+Epas5Ke5F/FDmwrOy31vZ/W2diR+n3s071fIoe9vS3NTner/5t4WeqXIykhgAACCCCAQP0EGhyA7mgumVTS+Tf39BCFf72u8eScdg6RRPGlpozjWn9dfMTu2Zn36+CW3ewbf7hrT+EdAQQQaIzAixV9MiDd++VzdTk5dE291L0bk/risIHXmwNa3VvVwJtO4lU3u5Sekda+zaog7HuU1aRm9dmHZ6UDpVs14xIndGl0pa+4LCXOZBcCCCCAAAIIHL9AAwNQE9iNKD+9oVwuF/xblBbXdRLDttTwkPIntOzH/zWjBAggcFCBVz+uau1Gv9JFAeJZpd+PBV6xYboFvYIFx5wht7Ghst4QVju01QylLVPwrvdmpQeryjpDd7f/PCnNpP1AeR/pFuS53+HAZcpndseH43o9yU6dCvJ19ldIkkMIIIAAAgggcEiBhgWguw8XtDy8qDvX250idmpivlf+nl2tj0W9o2HvYtDLORf0OpreU//YrtZnM9rUskZMj+qYH8h6PZHzcxr3ellNT2as1zU4zy9EYZ7J+R3tzI9oWZvKXDNlqdC7euEjjXZk9HWpHtyncwW9vFHPqN+7Ol5QT7cMsZ7XgnQqlMURZRMBBFpbIP9sTXo7UXJI69nEJelBXnmPYFu3u55Ew1O3Z7U2sBAM0Y0fu6TBT0sEl49uq/vne3pph/m+PahPyvWwesNw17T6ow1R/eG3s++5/bTBvamUbvzYzJoG/7ifgcXbWhhY2/+w33i+lera2l8xaocAAggggMCRCjQsAP31+aZSF86XrczOfI8yHYtRz+gtNxhblt4Jek3vDmnZ63lsV+/klFIa0qLpUQ0DWWnzWULTXi/rHfWe6dRE2OOa02JHRjPBUNnCPDc0pbzOjy1qSClNfWfym1Bn2RJLnR9Mle4FvThR0MubmJlxhvRuKjHi1OXWjDTpf14c3lT2UdAfbALvW/LrZsp/VxqZr+9g4wpV4xACCJx4gS597gylfZV/EquRE9hd+Vx79wdKBrV6MKiFYHGhrqk9rZrhtCVfwTDcZ374q2D4bfpKyZNVNt2CsrxS/ucy14e71zT4lrsQUbcmZ7YqlDO8sHij5roWX8oeBBBAAAEEEDiYQMMC0MrF2VX+WUpTH9hwr1NpNxjTkNIXgxTeSChVOTGl3r0a9Kr6J+4+HA97JEeW7MXxPNvVO2Z7Y+05Vd7P9JbpBXV7NU2PqvtKKfGG87k7ratn/M/nL6S0+fxX/8Nv+ah31/Tm3lqWnuVP5HBlp7ZsIoDAIQUSHX3Sz/mSQ2G9IPNGQgkvj1dauRkFZp9862ZsglN/sZ5wJd1SK8WaYHB7VpNdUTqlVrq1KXvDcKezXi9rwfBbe4J9r5Ruwcq2n2jVXlP2Pb4I0Z72pkr0upa9PjhQqUzVruU4AggggAACCBxYoGEBaEFwdeDiHeDCp3PqmUmEPYmLwwdIo8Ilthc0eObvnVnYs2p6VA/46p7ShtN76/byHjBFLkMAgRMucPYP/eqLzbX0q/RK2W+doaePFjT4YDZcKXf100uxmpsgNFg99pd76pvuVsng0gRmwXkvV/o02VVhpV1vGO6kso8qDL+1pSiT7vYfB7U2sxXkuarP3rYXHMF7mTIdQc5kgQACCCCAwKkVaFgA2n59VENLI7GVYnc0583JbFeiY1OZP9khpjvKLqWUvuLOFz3EPelOyB/8a3o9bTrxPHe1Pn+ABZGCXtBM2LPqpx8ON35t52PZfGt8Nz29W+4c012tP7Q+NabBaQgg0HoCbw7oqxVp8K3CQHA7c84LOL0VZ8NaP1HeWxTolVa+nAz3KrYgkN5M6JL6lIgtbBRfpMebYxr2sEbJRVv+MNzJrm5v9dtyw2+rpmt7eF+s6IvpKPXDbnm9x0EPreQH7DbNqmWyJ/KOAAIIIIAAAnUVaFgAKpm5mItKzPSEw2GTyQUlJv1hr51jG5p6NhIcG5HumvmbVepmgr/hwkWIiq64+JGmlFGPtyjRjLLOCYV59ih7wQzd7dRH06q+CJGbzgdmLmr0Mr2isvWcdXOMzqm6daZXd8x811t2YaYeZYMwuuq1nIAAAi0tcPbDVe1tS912ddq2NnXL9Bo6f5rlyqju3bDzIz+RPr2nPgUBqfmTKNuXnLmT3Xqy8lXRn14x+Wy9PahzNh+zqNGXZeaKBuLeMFyzbVe/LXEnKqXb9fE99T0I8vxU+myl/JDjEklX3HX2w880q8nA7RPpffPXS/1XpTLZc3hHAAEEEEAAgfoLtOVyub3Lly+XTfnx48eqdLzshRxAAAEEEDiwwP3793Xz5s0DX8+FCBylAN/Xo9QmLwQQQKC5BarFjw3sAW1uGEqHAAIIIIAAAggggAACCCBwtAIEoEfrTW4IIIAAAggggAACCCCAwKkVIAA9tbeeiiOAAAIIIIAAAggggAACRytAAHq03uSGAAIIIIAAAggggAACCJxagd+d2ppTcQQQQKDJBczCLrwQQAABBBBAAIFWEiAAbaW7SV0QQKBlBFgBt2VuJRVBAAEEEEAAAUeAIbgOBpsIIIAAAggggAACCCCAAAKNEyAAbZwtKSOAAAIIIIAAAggggAACCDgCBKAOBpsIIIAAAggggAACCCCAAAKNE2AOaONsSRkBBBA4sAALEB2YjguPSYB5y8cET7YIIIDACRMgAD1hN4ziIoDA6RHgF/rTc69Pek15YHLS7yDlRwABBI5OgCG4R2dNTggggAACCCCAAAIIIIDAqRYgAD3Vt5/KI4AAAggggAACCCCAAAJHJ0AAenTW5IQAAggggAACCCCAAAIInGoBAtBTffupPAIIIIAAAggggAACCCBwdAInLADd1fpYUnNPjw6InBBAAAEEEEAAAQQQQAABBOoj0LAAdPfhuJLJZPRvbF279SnzIVLZ0VxyXOuvyyexM++X2Q1yzb7xh8df+vKl5ggCCCCAAAIIIIAAAggg0PwCDQtAvaoPLyqXy3n/Fjsy6pnfaX4RSanhIeUXmyFgPhFcFBIBBBBAAAEEEEAAAQQQqEmgsQGoU4TOd4akZ3mvF9TrUZyf07jXQxr0SD6dK9tbanslk8keZbaiRM3+qKcyPjzX/xz2ws7vaGd+RMvaVOaa6eWcU9lw+MJHGu3I6OtSQ33dcibdnlG/d3V8LOr1nXvqliHW81qQToWyRNVlCwEEEEAAAQQQQAABBBA40QJHFoDu/LAsdSTUHnBtPkto2usdvaNerWv8Vl5T3/m9pRvvZsPeUjOUd+TZlDa8czc01V2b9858jzIdtgd2Q1PK6/zYooaUCvKZUGeFpDo/mCrdC3pxIuzVzeUWlZiZcYb0biox4tchd3dIy7dmpMmgB3h4U9lHwTDe16a+0mLQO5y7K42ckN7hCmQcQgABBBBAAAEEEEAAAQQqCvyu4tHDHlwaUXIpSMQMxx2LQr7Uu1fDYFS/5bU5PKo7Z/xz26+klZrJasec/3xTQyN3onNrKtOu8s9Smpq0+bWrd6xXKt/nWZzqmV6NdiT19dNepQuOml5Ntyc2panweEqJN8IPUndaV4M6nb+Q0ubzXyVTE1Nf0xebXI5O7k5oV537rGd0OVsIIIAAAggggAACCCCAQLMLNDYAjQWdzY4RL5/pBV2YXVe+IzoS9qzOm+DWDLtdiA7uZ6t7ShvzvQSc+zHjXAQQQAABBBBAAAEEEDjRAkc2BLei0hsJpZYWwqGsu4+y2hxOe0NkTc/h8g92tuavyjtzQE2a+b/YYa0/KRsea1eiY1OZP9nrdrU+f4BFhbxe0Iwythc3qETqwnl/63Ve+YoVK3PQ1HfLnWO6q/WHtqxlrmE3AggggAACCCCAAAIIIHDCBRrbA1orzple3bmbV/JaUhlzjdc76A+fbb8+ramxHiWT5kBKqW4pEaRreih1rUfJGXPNkIac+aGdYxvOdVJqekOmv/GjaanHy2dIi7nK80BNNiaP1JJXKi/XwjxTSgVl2debre+tpOwgXL98+0qFkxFAAAEEEEAAAQQQQACBEyXQlsvl9i5fvly20I8fP1al42Uv5AACCCCAwIEF7t+/r5s3bx74ei5E4CgF+L4epTZ5IYAAAs0tUC1+bI4huM1tSOkQQAABBBBAAAEEEEAAAQTqIEAAWgdEkkAAAQQQQAABBBBAAAEEEKguQABa3YgzEEAAAQQQQAABBBBAAAEE6iBAAFoHRJJAAAEEEEAAAQQQQAABBBCoLtAcq+BWLydnIIAAAqdOwCzswgsBBBBAAAEEEGglAQLQVrqb1AUBBFpGgBVwW+ZWUhEEEEAAAQQQcAQYgutgsIkAAggggAACCCCAAAIIINA4AQLQxtmSMgIIIIAAAggggAACCCCAgCNAAOpgsIkAAggggAACCCCAAAIIINA4AeaANs6WlBFAAIEDC7AA0YHpuPCYBJi3fEzwZIsAAgicMAEC0BN2wyguAgicHgF+oT899/qk15QHJif9DlJ+BBBA4OgEGIJ7dNbkhAACCCCAAAIIIIAAAgicagEC0FN9+6k8AggggAACCCCAAAIIIHB0AgSgR2dNTggggAACCCCAAAIIIIDAqRYgAD3Vt5/KI4AAAggggAACCCCAAAJHJ3BqAtCd+aTmnh4A9vW6xsfWtXuASytfsqO5ZFLjDw+Ssn/tgepTuVAcRQABBBBAAAEEEEAAAQQaJtDgANQPlJLJpOy/4wqaOsdymrh4AMczvboz36v2A1xa6ZKd+RHlpzd053qQ8tO50Cg5vxNdava7n70jnZrILUq35uScGV3DFgIIIIAAAggggAACCCDQhAINDEBN8OkHWblcTv6/RWmxEb2JTShbqUiv17WwNKRRG3xqV+uLeU19Z5wWNbSUDQJLs19aHOsskVqnPprOa+FAPaglkmMXAggggAACCCCAAAIIINBggYYFoLsPF7Q8vBj18HkV6dRE2Ju4q/WxEj2jZshrclzj4bFxrb92e1KjXr/dh+NKjo1r3PawmqGyZXoSC4bguuckTfq+sjnH9tQm7bDb+BBc91p7jiSvLPNz3rBaP42onPF7uPsoq83htEqFlQXnPv1a2Xc/Knte+5W09P1PDRgeXFAKPiCAAAIIIIAAAggggAACdRFoWAD66/NNpS6cL1vInfkeZToWo57RW1EgaC5KT/q9phvTUuZaVmmvF3VDU93LyhbM5Uxr2h5TRj0/pP00v5tSKuxJdIuxo7lbtrcxp9x3aek3SU/nNPJsShtBb+3Gu9Kv7mVm2wSjzrUb72bV4w6PXVJQzpwWh5fL9k4am6F33PCzXb0jCWWumQDY9BqboNPv/Yx6SeOFkXQmocRWvricJU5lFwIIIIAAAggggAACCCBw3AINC0ArV2xX+WcpTX1gg7BOpYc3lX1kF+RJKHHGSSHsLWxXokPK/8WeJ6kjUTA/MwzsTHCmvPJB72aU2nkluje9YM+bj3qmV71mbugbCaW2MupJ+j2X7dd7i3sef8trc3hUvUHZTA9kQZAbllM6fyEVZVnL1sWJIBjP+b3GYe+n0/vr9LjWkiTnIIAAAggggAACCCCAAALNJNCwANQEYJvPi/oQm6Du7eqd93tX0z/4Q269lWjNYkNe72daWW9Ib2GP7NEW3PTSypsjaoYym8WKzBzaxY6Mvi7o/T3aUpEbAggggAACCCCAAAIIIHAYgYYFoO3XRzW0NBL7MyM7mvN68UxP5qYyf7JruO4ou5RS+kq915otQWOG0QbDZs3KuBvTfqBs5nD6K/SaFWbNUN9N5c3QXPdlekmXFsI5ozXP5XTTkN87uvyDrXvsoDef1ASd5ed+hle8zivfnVD5gc7hmWwggAACCCCAAAIIIIAAAscu8LvGlcD/UyFzyR4lZ2wuKU19d8cbMts+tqGpsR4lk/6xobs5f2hr0ZBZe22d3s9cVfpZlK80pMVcp9pfp5U3czBtNsOLypmhuW55TC/p3byS15LKmPO6p7Qxb4cR2wurv3tDd2ey2hnrLB7mqx19PZPQaM4Pxk0gn7CGJr+xKH0TAOvd6YIhyNFRthBAAAEEEEAAAQQQQACB5hJoy+Vye5cvXy5bqsePH6vS8bIXcqCigFlxd+GC83dAK55d6qCZG2oWZ5ooEcSWOp99CCBwkgTu37+vmzdvnqQiU9ZTLMD39RTffKqOAAIIxASqxY8NG4IbKwcfYwKdY4tKzPTEhijHTir70f8bq/r/2bvX2LjO+973P90vtnWjTMuSY2ti1ajikykdztnV5qh2y+0TosSuCBRI6+6OiIJUzosrJSnhAAAgAElEQVQiJdkG6CuTByVdoAe7QIZszougEl9QRE/QtDgeoVVAw+HZdTSKcbKU0BNk20lljSJHsk17XEu2FVG3OXjWZWbNlcPLzHDI7xRTrlnruX7WksM//89ac5LgsyQRBxBAAAEEEEAAAQQQQGDFCVRxCe6Km+sKG5BZomwtckxLqbvILqmGAAIIIIAAAggggAACCCxRgAzoEgGpjgACCCCAAAIIIIAAAgggUJkAAWhlTpRCAAEEEEAAAQQQQAABBBBYogBLcJcISHUEEECgWgLmwS68EEAAAQQQQACB1SRAALqaziZzQQCBVSPAE3BXzalkIggggAACCCDgE2AJrg+DTQQQQAABBBBAAAEEEEAAgeoJEIBWz5aWEUAAAQQQQAABBBBAAAEEfAIEoD4MNhFAAAEEEEAAAQQQQAABBKonwD2g1bOlZQQQQGDRAjyAaNF0VKyTAPct1wmebhFAAIEGEyAAbbATxnARQGDtCLS3h9fOZJlpQwtMT8cbevwMHgEEEECgdgIswa2dNT0hgAACCCCAAAIIIIAAAmtagAzomj79TB4BBBBAAIHqC9y+k9ZPf3FT73xwS+l0Wo89vEVPP7FdWzdvqH7n9IAAAgggsKIECEBX1OlgMAgggAACCKwegZtz93Xqu7P6p/M3dPPeg/rc7jvavumufja7VdvXX1VHy1b1/O4+7duzdfVMmpkggAACCJQVIAAty8NBBBBAAAEEEFiMQOrGXX01mtSt9IP60997TPt23M5pZu7ugxr/3qf647/5d/3tiQN65qk9Ocf5gAACCCCwOgW4B7Ti85pQNBRVouLyK6GgGXNI/WdSixiMUzc6s4iqVEEAAQQQWNMCJvP51eglNTXt0X//kx128Pncb+yS/71lY1p/fXyPfvMLTfr6319V6vqv1rQZk0cAAQTWikDVA9DEWEihUL9isyubNHWmX6GQGWv2nRt8BTVgDSi4IqZhgsP5TRNjPUoOTWn0WJMz6plodn5jvlDa7Pd/tkub+Y5LJxot6F4RJ4hBIIAAAmta4Fv/+p5upR/Sn/z2Js3dlh14GpBfvHfTfpttE4z+cnZOv9+2Q48279a3/uWa7t69u6bdmDwCCCCwFgSqHIAmND0R0eCQNP36YrJwNT4F3eOyLMt9m+ArVCQwq/GYFtvdbEynJiLq9YJPpRQbT2rwrJnfuCIT02421+yXxvuKhdZBHR9K6tSiMqiLHTj1EEAAAQQaWeD2nft6+Qc31PHMZn16657e+/CmPZ13P7yp7//0M/ttAlHzeurAZn14/Y5+6/A6fffCnFIfO/sbef6MHQEEEECgvEB1A9CZaU12t6vrSLv06jnlhKCzMfX7so2hvlj2uD9T51v2amcpx6L2slInU5mbnXOyrW4Gsy+miyar6c/s2X3m1inN42QAIxOn3Oxt7hLc/L4yc8sZezZL6S/vXxJr9mczrSnF+rzPTpYzOpbNzHr1TGZzUnGNdJq5Fp9P6vVpxbvb58/YzpzW9PPHS5ZrKnbuSqNxBAEEEEBgjQuYp93eTm/T7m339MHHd7V1y0aZ4NP/emLfdvvjm1fm9NY7t/TO9d26pR164+1P/MXYRgABBBBYhQJVDUATr00q8mxQaj6qdk3rXGYZbkLRzhEFTrrZxpORLK0JEk9I414m8qTU4w8iJ6R299h492QmO2eC056Lg5ryjh1K6uaxXl+mTzJBmYZKB1vZQXhbBxRoiyt5zfvs/pyJ5vQ19bx01Ryyx+5lGS1ZJwN23dyxTan91Q5f0JnXds7HuJIHh5yM7NlBafi0nbUM9o0rorCbzSy+LPjq5bhjn2mvSV09ATdoNUtzjYOT/cxmSTOFsxvNAQXOJ535ZfeyhQACCCCAQFGBdz6Y054H1+uDG3f14fW7Sly+pW9OyX7/7NoGRf7Lw3Y9E5SaYx/8aqdee3u71m/aqqsfcB9oUVR2IoAAAqtIoHoBqLsEtL3FaDXp6PPSyLfd+w5nk0q2Deq4fSxP81pScU2qx8uOnpiULiaz2VFfVu/AwXCmsh1w9XTJvdtRwT4TmAXVnglSEzo9LLUf8Upkqi58Y39A4fMj6nCzj03HupwMohl7d6+6mt0mWwY00CLljs1YhDX5mu8ezJIjCGfHawLBkuUqPNAykFlibN8Xmsl+Og8csrPK/kx0hc1SDAEEEEAAAU/AfM/n7XsbdCWV+x2fD2+7rpHjzpNuTfBpglITfFrvbLGrrpPs7wj12uEnAggggMDqFKja17DYS0AVVzw06ZMLKNFnwsJ5Xm2DmhrLBpNe6cwyV29HBT+DLwxKL51T6vGkJrt7ZXnBYQV1TV4zeT6swIt5hZu7NGp1SXICtx47Gzkqs6dxXglFT0i9VpNSZ4bthxVZx5pklgSfnumyA+fGmQsjRQABBBBYKQKPPbxF12/O2cMxAaZ5meAz+WH2b94m+DSv719yluJuXC/dujun5l1V+7XE6ZD/jwACCCBQd4Hs/xos61BSOveq3CWi3kN9LJkls9Pmaz3sZZ3ZJbmpK8ls72528XTm6z9Sip2ZP1tosqGT49n7SBNj7r2RzV3qPTSijhNJDb4wb+ibHYcdXJqlqkPZjKZ71Cypde7bNPeJTmnQW6Zrxp65Z1TSTNQulzs2Y5O7PDZ5xQ2tZ89p+rxvCEvYtPssk2VNnTnlLsOdpxM7Wx3QgXmKcRgBBBBAAAEj8PQT27Vt/Sf6+Ud79aNfbrHfP3h7p967/pD++dwnOj19UxevyX4f3vsf2rbpnrZuvKct96/r8Oe2gogAAgggsMoFqvOnRhNIqV1DednG4LMR9byW0EBLUAMnAwp1hjQiKdyWXUork108mVToREhe7jQ8NDVvdrHp2KjGL4fUETItSjJPtHVPnulXFwM6mjce93D2x0SPQhPZj5GTlkaLLBM2D+ZJmgcAeUVNX3Y5d+zuvKSIxi2pqSV3bGY+Xrt2hrazQ6FhSW0RRdq8Rsv9NE+nlTrsfkwfhfeBmjGGh6dLZJzNcuSAnf00vTQd61Ug5I1hUFN92b7t+2afH8osbc4eYQsBBBBAAIFCga2bN6jrN7frez99T481OxnO+/e3KH3/nrZtuKU9uzdr1wObdD/t1D2484Z+OXtTv/N0Wnt3O+ULW2UPAggggMBqEVhnWVa6tbW15HwuXLigcsdLVlzAAZNR7LjcK6voV4EsoKESRc2y0ulnrTW3rNTM+9RB3/eAlvApvdssMZ5We5EAt3QdjiCAwHII/OM//qPa231/nFuORmkDgSoJTE/H9Qd/8AeZ1j+5eUfd/+fP9FjzQ9qzc7M+vbNT9+7cVvR/32WX+T/+75v69Jb04Kbr+uj6bV26el1/27NHv3ZwnzZurM7fxjODYwMBBBBAoKoC88WPdfuvvAmOejLZRpPFW8jy2AWYeU+s9WX1FlC7oYuap+WazGa/FhOEmuCzRzppzX/PbkMrMXgEEEAAgeUWeGj7Jn3za5/X1755SXO3t+rXH1+ndevW6e9eftfuateW9dq5Oa23rnymax98pr/6ox0KPLaX4HO5TwTtIYAAAitQoG4BaLDPklWLoNA8+XVsBcrXZEjmHlVvIfJCO1xK3YX2RXkEEEAAgdUmcODh7Tr5F0/qW/9yTa9Ys3pk10btesh54u3Hn8zpvY/u6j/92gb9+e812cHn1q3c/7nargHmgwACCBQTqFsAWmww7EMAAQQQQACB1SPQtHOb/vIPn1Bvx0298fYn9vd8mq9pad61zX7gkLnn84EHHiDzuXpOOTNBAAEE5hUgAJ2XiAIIIIAAAgggsFgBc0/nI3t36Mt7dyy2CeohgAACCKwiAQLQVXQymQoCCKwuAfNgF14IIIAAAggggMBqEiAAXU1nk7kggMCqEfA/UXTVTIqJIIAAAggggMCaF1i/5gUAQAABBBBAAAEEEEAAAQQQqIkAAWhNmOkEAQQQQAABBBBAAAEEEECAAJRrAAEEEEAAAQQQQAABBBBAoCYC3ANaE2Y6QQABBBYmEP+3VxZWgdI1E9i1c/mf5vp0y5GajZ+OEEAAAQQQqKcAAWg99ekbAQQQKCMQ/I1nyhzlUL0Erlx+W48eeGLZun/36i+WrS0aQgABBBBAYKULEICu9DPE+BBAAAEEVpzAvXt3V9yYGBACCCCAAAKNIMA9oI1wlhgjAggggAACCCCAAAIIILAKBMiAroKTyBQQQGB1CmzYuGl1ToxZIYAAAggggMCaFSAAXbOnnokjgAACCCxW4O5dluAu1o56CKxEgdt30vrpL27qnQ9uKZ1O67GHt+jpJ7Zr6+YNK3G4jAmBhhYgAG3o08fgEUBgNQus38B/ohv5/O7/3Od17Z1LjTwFxo7Aqhe4OXdfp747q386f0M37z2oz+2+o+2b7upns1u1ff1VdbRsVc/v7tO+PVtXvQUTRKBWAvx2Uytp+kEAAQQQWDMCJvg0L4LQNXPKi070o48+0k9+8hPduHGj6HFv544dO/TFL35Re/bs8XbxswYCqRt39dVoUrfSD+pPf+8x7dtxO6fXubsPavx7n+qP/+bf9bcnDuiZpzg/OUB8QGCRAnUMQBOKhqbVbg0ouMjB176aGXOPkkNTGj3WtMDunbo6aWmgZYFVKY4AAmtSYP06nhO3Uk/8/TJPwX3s4FM5wzZB6C8v/zxnHx/WhoAJPvfu3WsHl+Vm/O6779qB6nPPPVeuGMeWUcBkPr8avaSmpiYN/Net+vDj23ruN3bl9PBvb3ysvz6+R6em1unrf39V33lxm5p2bsspwwcEEFi4QNV+u0md6VcoFMp5R2f8AwxqYMUEnyY47Fds1j++wu3EWF7wORPNzm8ska1g9vs/20fMfMelE1H5SmbrsIUAAgjkCaxbv168V55B3mkq+GiCzfx3QSF2rAmB69eva9++ffY9hea+wlJvU8aU5VU7gW/963u6lX5If/LbmzR3W5ng8xfv3ZR5m5cJSH85O6ffb9uhR5t361v/ck3c/127c0RPq1egagGoTdY9Lsuy3LcJvkJFArMGwZ2N6dRERL2ZzGdKsfGkBs+a+Y0rMjHtBpZmvzTeVyyvG9TxoaROnUk1yKQZJgIIIIBAMYF79+5rud7F2mff6hC4c+eO5ubmKnqbsrxqI3D7zn29/IMb6nhmsz69dU/vfegEnO9+eFPf/+ln9tsLQp86sFkfXr+j3zq8Tt+9MKfUx07Z2oyUXhBYnQLVDUBzzJwMYGTilJtpNFnHbDYwMebLlvbFlAnR/FlGX5bSX77fF9CZ/dlMa0qxPu+zk+WMjmUzs149k9mcVFwjnWYM2TH5h596fVrx7vb5lwvPnNb088dLlms60i69ei47P38nbCOAAAIINITA/fv3tFzvhpgwg1yUwO3btysKPk2QasqutJdZzeb9ruTfXmnjXOh4zNNub6e3afe2e/rg47vaumWjTPDpfz2xb7v98c0rc3rrnVt65/pu3dIOvfH2J/5ibCOAwCIEanwP6AEF2uJKXpPU7BvtTFQ9Fwc1ZXXJ3FmZOhPTVUlNszH1n3CyjF2m/ExU0WtS6vV+X3kTZHYo+ngl91bGlTw4JctqkkzbnaeVODagYJ/JYJ5S4Oyo7H58Q/M2r16OK/LsqPfRjE5dPQGFOkMakRQemlJQTvazd6zM/aHNAQXOTzvz87XGJgIIIJAvsGkzT13MN+EzAmtPwHmGxKRv4pE6PE+i6dio/L8F+Yaz/Jv272hJ9VbpVq13PpjTngfX64Mbd7Vh3Tp9eP2uvvfmFnse6+9v0Mhx52FDJihNXL6lD361U6+9vV3rN93U1Q8+Xv750iICa0yghhnQMrL7AwqfH1GHm31sOtblZBCvJRXv7s0GhS0D9gN87GCwxwlWTSB49PmwJl+r5M7KsNqPuMGhCQTLDKmiQy0DmSXG9kOJMtlP8z8WbkbXn82tqFEKIYAAAgisdIF79+5qud4rfa6Mr54CTvBpHn6Yc0vTuG+lWD2H16B9m3txb9/boCup3O/4fHjb9Zzg85tTsoNP6x0nOF0n2ffxNui0GTYCK0agxgHoVSXPhxXYnzf/5i6N2veKtmvaDtzmfyBQXgsr4GNC0ROy7xFNnTllPynX/I/F+KERnc55+NIKGCpDQAABBBBAAIEVL2B+n5jsHs978n5QA2PeH+GdW428hz5mbkEyGcRQv/r7vNubzO9Vvj+O+243sh8aORbN/uHcd8wP5F+Ca9fp61e//4/t/lumch7EmDtGb0mvvRItFFXUdwuWM/6UYi+NKK5J9Zj27T/k57bhv10qf/zR/9fM3X87lVM3YyPpsYe36PrNtD09k900bxN8Jj/M/lpsgk/z+v6l7frVnQ3auF66d3dOzbtqvHjQGQb/H4FVJZD9l1b1aXl/xRvKZjTdPs1/PJz/MJj7RKc06C3TNZnRzD2j7hLcGenAwbAmM3/9S+ncq2Z5bPahP8kr7h2ks+c0fX55Jmb3WSbL6gSdpe/9zIxiNqlkW0AHMjvYQAABBBBoNIH79+5pud6NNnfGWzsBs+IrfLD0bwyJsQ6NHPIe+Gge9pj7B/z2F50HQU4NSSOd5qvvzGfze9akpv1/HJ+Qe8zSePekenICyFLzbdeQ155G1PFau5OlPTuocObBjJIZ4/TzXgZ3Su2vDvu+dWBSetZ9WOXJiPu7XZO6XhxUWBGNm/btYLtJXWNuOcvS1FAyd4y+8Q/8Tpd6u33zM78LalDHfV+B9/QT27Vt/Sf6+Ud79aNfbrHfP3h7p967/pD++dwnOj19UxevyX4f3vsf2rbpnrZuvKct96/r8Oe4NaLUFcF+BCoVqO6fcSZ6FJrIDsXcszDq+w+Ad8Q8mCdpHgDk7TBPz7XLdWn0ZDJzn6Xs/xhJTS2jGr8cUkfI3H3p3H/ptRt8YVDq7FBoWFJbRJE2r9FyP83TaaUO+35O8x+8wu8mNWMMD08r0Rcs8oChhE4PB9Rr7i01d4ce61Ug5I1hUFN92b7Nw4z0/JB9r2t2L1sIIIAAAggggMBCBFJKXgxr8EXvD/BBtXfHder1lLqOmHYCCvift5F5kGKTAoekafPH+hb3tqTMMSn4bEQaTypV5LednNEdCuT8LpNJBNi3OE0rOSsFm80YpfiE+zuR20DEPAvEXg0XUbv3e6FJOuR0kPfBZFhP+O6E7e7NFvCN3+w0c+gZj+n4WJeufntEen4qZ6xbN29Q129u1/d++p4ea3YeNnT//hal79/Ttg23tGf3Zu16YJPuO0lSHdx5Q7+cvanfeTqtvbud8tnO2UIAgYUKVC0ANTerW8fKDcdkO93/aNpLcLuKF7bvsxwoOBbss2T5ArtMgYK2vLqmP//t877+7aBxnvE2m7+ohXTqzPG8pTCm59y2nM+WvJ4zY1NuoJrdzxYCCCCAwGoReOrpLxVM5ec//VHBPnasfoEdO3bo/fff1yOPPFJ2sqaMKZv/Mquv4pftxzLmH2qoz0UfmjTPd6/nTDDvoZRm5VzH5ZwSuR9ajmtQwzo3G1DSfIWemyDwF/pq56P6/k9+ps3372rPzs369M4W3btzT53/+WG72P9466Y+vSU9uOmWPrp+W5q7rv/223v0wAMP+JthGwEEFiFQtQB0EWNZ8VXM03JNZrNfU0WC0PmG7yxB1klrvr8pztcQxxFAAAEE6ixw7969kiN4M/FDHQ7+r5nj5nO58pmCbKw6gcOHD+vNN99UMpksOzcTfJqy+S+zoioS6lH/Qf/vHQlF+5J2di9wKK6ebyfUZX/3eELTE2G1ny3zJP78Dgo+m6f5TyrsZgwzX4lXUK7SHU62dcTNRtojm4kptr9LJdIOZRrOZnTN0mTJlwEtqOV9U0GP+y0FBQX00PZN+ubXPq+vffOS5m5v1a8/vk7r1q3T3738rl1415b12rk5rbeufKZrH3ymv/qjHQo8tlcbN/Krc6EmexBYmAD/ihbkZTKd1oJqZAsvpW62FbYQQAABBFa+gBeEmp+81q7A/v37tXPnTt2/f78swvr160tk1szvDuOKerf12K2ENXh21F5S2tQ3pcG+DoXce5hMptH+OrmFZBdNm/5bpsxtUMeWEsTmTjXojtG7bcq7nUrlxuiuOusJTUptg5oac1ah2Z/NrVdtYelQbj8Fn1raFVFSAe/bDwoKSAce3q6Tf/GkvvUv1/SKNatHdm3UroecJ95+/Mmc3vvorv7Tr23Qn/9ekx18bt3K/Z9FGNmFwIIF1lmWlW5tbS1Z8cKFCyp3vGRFDiCAAAIILFog/m+vKPzclxddn4rVE/jpzOvL3vjTLfZNe8veLg0iMJ+As5y1V5adRZ2vdAMdN/eMmgcjVTCvu3fvKvXxTb3x9ie6+sGv7K9aMU+7NQ8cMvd8mmW3ZD4b6Nwz1LoLzBc/kgGt+yliAAgggAACCCCAAALLJ2C+Gi+pwbPeA5rKt2yCy0f27tCX9xbeh1u+JkcRQGAxAgSgi1GjDgIIIIAAAgggsAoE7IdGroJ55E7BLF32P3gy9yifEECgvgI1/B7Q+k6U3hFAAAEEEEAAAQQQQAABBOorQABaX396RwABBBBAAAEEEEAAAQTWjAAB6Jo51UwUAQQQQAABBBBAAAEEEKivAPeA1tef3hFAAIGiAjwBtyjLitjJE2tXxGlgEAgggAACDSpABrRBTxzDRgABBBBAAAEEEEAAAQQaTYAAtNHOGONFAAEEEEAAAQQQQAABBBpUgAC0QU8cw0YAAQQQQAABBBBAAAEEGk2AALTRzhjjRQABBBBAAAEEEEAAAQQaVIAAtEFPHMNGAAEEEEAAAQQQQAABBBpNgAC00c4Y40UAAQQQQAABBBBAAAEEGlSAr2Fp0BPHsBFAYG0JfPTRR/rJT36iGzdulJ34jh079MUvflF79uwpW46DCCCAAAIIIIBAPQQIQOuhTp8IIIDAAgVM8Ll37147uCxX9d1337UD1eeee65cMY4hgAACCCCAAAJ1EWisJbizMfX3xZSqC9UiO52JKpQZc0LRUFSJRTZFNQQQWLsC169f1759+5ROp8u+TRlTlhcCCCCAAAIIILASBaqeAU2MhdQzEdbg2VF1NdeDwAR9PZr0dR0emtLosSbfnlptBjVgBZe3MxOUd44onml1eayd85ZpVOoel9W3zGP3Nc8mAgiUF7hz547m5ubKF3KPmrK8EEAAAQQQQACBlShQ5QxoQtMTEQ0OSdOv1zNvaYIyS5Zl3uMKDA8rNrsST8dixxTRuD03S9bJgEY6lyfLagJ1x2xKgxd71H+mnudwsTbUQ2B1CNy+fdsOQE0QOt/blOWFAAIIIIAAAgisRIHqBqAz05rsblfXkXbp1XO+pbMmK9mv6Fi/QqGQ/c4ENyajF4oqOubsN8ejM4V0JkOXqWMO5yx1LSyf3XNAgba4kteye0xbBeOQZPZn+04p1pf9bPc/FlW/O/7sMltJ9hzcNk/4c6/+JbhlDMzQ/G2YPjLLeLPjLrrV0q6IkkqaADunjf5M0J0606/QWFRRd+zZORZtUVKTjj4fVvzyVcfZm3Mo9xz4HbPjddw839BYdgFyTvnM/iW4LNt8SzmwHwEEEEAAAQQQQAABBJYiUNUANPHapCLPBqXmo2rXtM7lZB3jSh4ccjJsZwelnKzkpPSsm7E8GdHkicKMXvCFwZyg1u6rp0vzLqydPafp8xG1tzhsJhjruTioKTuDOKX2Vzt8QWd52vjFgIbceoMa0Wk7UE4o2jmiwMns+Eu3km9w2r0/dCFt5LVugn4FFGg2bUyr3cv8nm3X9Eu++2cnpHY3azrgWuS15PuY0rlX4wofPCC1DLhZ0bxs8kzU52hp6nnpqqTUmWGNHBrP1Bk/mLT/EGG7y7dfPT73xbgs53x9U2cTAQQQQAABBBBAAAEElk2gegHobEynJrxAz2TQpJFvZ7NfUljtR9xw0QSoOVlJr54kf0bPP207qHWDvpy+/IW87bhGOt2MZGdSvdaAvLsZr16OK5IJXJ1M3+Rr/nF6bRT+DD9/1A14mxQ45B6fTSrZNqjj8wZ1przfIKCA18WC2jCVJtXjZSVPSONmfqYN+ec9ovj5pB0U2t10t2cMvG7zf8aHO9zMcIemn/fum/VnNH331u4PKHx+RB3uQ5aajnXZ7Tc9HpAmejIZ3OAx548Ext3e7467Z0JKXvGW+C7CZRnmmz9/PiOAAAIIIIAAAggggMDyClTtIUSp16cVN/8X8i9BDSjRF5w38Klsik3q6oko9FpCxw9OS0NDZdr1Hsxjlnf26NSZ43V6CFFlM1t4KXMPaDaoztYvvt8L87Llim8Ve1hTYqzDyWiOmRDeeJ5yKjd3adTqcveF1CPX3M6YDmSWA8fljMlUKta+kzctPp759y5tvvO3TwkEEEAAAQQQQAABBBBYikCVMqBmyaZ8D/5xlqOOd09qusj9nJo5rRHfslj/hFJnTmmyrV1Hiz1Bt+W4/XCcjuGAeit6qq15Cq15CFF2me2Bg2FNjntLU52lpvayYXcQmaycvXTXP7IS280BBc5nlxunriRLFCyze7na0KRO+R4clDjjzbNM3xUcspfimnJ21tGpYJbUOveSGuMpDboZ7cSYe++pHaCOZ+5PNe7xYW/JsXO/aqzYteEfTzkXc6xK8/UPgW0EEEAAAQQQQAABBBBYvEB1MqAmWFO7hvKCxuCzEfW8lpBzz6GzPHTEHruTLfOWxTpLSr3Mqclqlbq301kyq0PzLyfNEgU1cHZQ/Z0h9dtfxzKq8cshdYTckZh97vJZ+z7Tzg6FhiW1RRRpy7ZSeiuogZMBhTpDMi2G28Kli5Y8skxt2PN0x2/6Ml+lYu7LLNnv/AdyTcLyZtd0pF1Js8zZa8L0ZTsG1ONamEMm6zlgrotjjntPJkNurgGTQS33KufindflnW+50XAMgVoK7NixQ++//74eeeSRst2aMqYsLwQQQAABBBBAYOh/gv0AACAASURBVCUKrLMsK93a2lpybBcuXFC54yUrlj3gLN0MFPtuUPMk07z7NEs3Ze5HHJZerNd3jJYe2XIeMdnFjsu9fA9nHioueSB8XNUCly5d0ptvvqkbN26UnacJPg8fPqzPf/7zZctxEAEEEEAAAQQQqIbAfPFjdTKg1ZhJkTadJ6z2ysrLtBYp2nC7zFeUmAfzOC+TBc7mh729a/EnLmvxrDNnI7B//37t3LlT9+/fLwuyfv16PfDAA2XLcBABBBBAAAEEEKiXQJ0yoPWaLv0igAACCCCAAAIIIIAAAghUS2C+DGiVHkJUrenQLgIIIIAAAggggAACCCCAQKMKEIA26plj3AgggAACCCCAAAIIIIBAgwkQgDbYCWO4CCCAAAIIIIAAAggggECjChCANuqZY9wIIIAAAggggAACCCCAQIMJEIA22AljuAgggAACCCCAAAIIIIBAowoQgDbqmWPcCCCAAAIIIIAAAggggECDCRCANtgJY7gIIIAAAggggAACCCCAQKMKEIA26plj3AgggAACCCCAAAIIIIBAgwkQgDbYCWO4CCCAAAIIIIAAAggggECjCmxs1IEzbgQQQGAtCXz00Uf6yU9+ohs3bpSd9o4dO/TFL35Re/bsKVuOgwgggAACCCCAQD0ECEDroU6fCCCAwAIFTPC5d+9eO7gsV/Xdd9+1A9XnnnuuXDGOIYAAAggggAACdRFgCW412GeiCvXFlKpG2/ltmr5CIYVC/YrNJhQNRZXIL1Plz4mxkKIzVe5kOZufjanfOz/+7eXsg7YQWGaB69eva9++fUqn02XfpowpywsBBBBAAAEEEFiJAlUKQFOK9ZmgyHk3VHCyEs9SyTGlFBufVOSkJcsaVVdzUAPWgIIlyy/HARPkmmA321awz9JAS/bzit9q7tLoWJea5hlo6ky/QmO1DueLDMoEyUv8w8KKmUuR6bGrMoE7d+5obm6uorcpywsBBBBAAAEEEFiJAlVagtukrrEpqa9DyZ4GC05W4lkqOaarSp4PK/BiyQIcQACBVSJw+/ZtO/isZDqmLC8EEEAAAQQQQGAlClQpA1pqqrmZUWfZqCnrZNWiY/2ZrGn/Gd8CVjsD5GVUs0tMnaxOVNGcTGtuHznt5Awrt5w/02WWlHrZ2+z+BYzxxGROTwUfMstmTT/ZbKK/3+y4S/ebGOvRpOIa6Qy5S35NWc8nr55Zcmo79qs/k532lu168/XqSrat62osvCx2Tp9uX7lLcHNdvXrznuN8pByj7LhMX/192evEnB//WLNuueMIZVwkVbLsdjam4eG4NNFjXwuZdktci/nDN5/95zO7JDt3XBkfu92oor5rzzmWUuylEcU1qR5zPtylw/45+8+PPY4cu37F/meJufgHXbJ/p1DOXDJZ4SLXmHLnl/33k+uR8XSd+sei6veuN295tH98bCOAAAIIIIAAAgisDgHLstLlXvMdL133w/TLf9aa/saPsyXeGG1Nt46+4e54I/2N1r70y++bj2a7Nd0X+9A59v7L6b7Wb6Sdks6xTDs//ka69c9eTpuSH8b60q2Zck5V00emnbQZg9eH2637w66bGUs6/UbM16Z//6g3h8WNMbfXdDptz803ph9/wzayx+POK22Pu9J+fW3ZjrluWYvCvnP9Cs9XZuwF58PfZzptzL3zs7hznOnJ2cjpL51Om3PunpPC9n3n23dt5LXoXCveeTXte9b+7bxK+deId516c7XH5bVTrK7v2BujznkpHL9rac8565jTdr5HXl/ONeWed7us7/z4ry9v/vn1zedi/bv/tvIdsuc779+E92/S10/Ov6uMR+61ZpuUOFZsqGt13z/8wz+kL126VNHblOWFAAIIIIAAAgjUQ2C++LGGGdCUkhfDGnyh1B2KYbUfce/Kaw4o4MX3s0kl2wZ13LvHsKVdkfPTOufdg9jd7rvn0fQhxYc73Axmh0bOx5W85jWW/dn0eMDJbrnZluAx557Aq5ezWS+TWeqZkJJXvGxshWPMdlO4dS2peHevuprdQy0D9v2Tpt9Ij3dfYpOOPh/W5Gve/Ycl+i1sPW+Pr17mSEABr2+zL+PXpMAh/1xNdsvNjHaaDFwlr/xzHFR7d1zTr8/jl9+0MfIyfmYMJqN8MZl5qFP44AFfDd8c9wcUPp/UVe+oLxPYYbKZS33Ndy362s89n1Kwz9ybO59PRO3edW7m4muvcLPE+SlxfRXWL7bH17/5d6akkrNSxf8mJJX7d1X6+pbCzx9178l1rsNio2MfAggggAACCCCAQOMLVOke0PrCmIfyzPtQnJYBWdaAsxwzFFJcEY2bz5LCQ1MaPZb/iJpMWFPfydWkd7OMskfJoSlZxsEsz+xM1qTnTCdtg5oq8qCgis+CGfOJpAbPWnawb5asdlzOtN7gG7U/PxX/myjz76rB0Rk+AggggAACCCCAwDII1DADajIbvmyYySZVMgGTDT0/otPe13zMTGuyrV1H/Vm8TDtO9mRy3PcVKDOxnCe2ekUTY+69l+aJqNZ4Jttz4GBY8eHT2a8ymY0p5vXtVc7/aY8xm5VNXSkzM5PZmjiVHdNM1L6/0vSbHXdK516NK/JsqWxx/gCq8znwuBuE2xnJSvpwzvHIt73MbULTE74MZSVNmDJ2JtN3zs19hWe8NittxJTLZnvtLN5CqhYru4BrMfd8mvsfzX2sy+Tjjq3o+SlxfRWbTrl9qTOnMv/OFvJvoty/q5V2fZebP8cQQAABBBBAAAEEqiNQpQyoydCY5a+SzockNyMZ7BtXINSh0LCktvA8Swy9CQc1cHZQ/eZBO/Yuk6l0lqp6Czu9kuZnsG9Kg30d6giNuLtNeX8JZzv4bEA9nSF5pUyGZ8AEtcdGNX45pJ6Q9yChsAbPdhU2kLMnqIGTAYXc9sJtZRZPmoD3ZDJTVnbmVWpqcfr1xm1nnLzlmDl91eJDk7p6IgqdCMlWsM+Vtyg6qONDUoc912zW2BuV5x9yTpb9FTGZ5cZeofl+ekZe/25Wer6zkNNsc5d6u7Pn0T4nh3JKzPuh6VivIqEehSa8rHjpazG/sSb3OvLOp7rHZV+G7vVZ4OMtKc9vyHz2z8XNDJc8P55d5tp2rv+mlvy55Gf4TUfmQUfedZ/9d7aQfxPz/bvyPOp7fRdDXvn7duzYoffff1+PPPJI2cGaMqYsLwQQQAABBBBAYCUKrDM3iba2tpYc24ULF1TueMmK8x1wl3X2Vv17K+cbCMcRQMBbZs2/x5V7LVy6dElvvvmmbty4UXaQJvg8fPiwPv/5z5ctx0EEEEAAAQQQQKAaAvPFj1XKgJaYinkojO8rSsy9mvVdZFpinOxGAAEEVpjA/v37tXPnTt2/f7/syNavX68HHnigbBkOIoAAAggggAAC9RKobQDqPaCkXrOlXwQQKC5g3wtd/BB7V4bA1q1bZd68EEAAAQQQQACBRhao4UOIGpmJsSOAAAIIIIAAAggggAACCCxVgAB0qYLURwABBBBAAAEEEEAAAQQQqEiAALQiJgohgAACCCCAAAIIIIAAAggsVYAAdKmC1EcAAQQQQAABBBBAAAEEEKhIgAC0IiYKIYAAAggggAACCCCAAAIILFWAAHSpgtRHAAEEEEAAAQQQQAABBBCoSIAAtCImCiGAAAIIIIAAAggggAACCCxVgAB0qYLURwABBBBAAAEEEEAAAQQQqEiAALQiJgohgAACCCCAAAIIIIAAAggsVYAAdKmC1EcAAQQQQAABBBBAAAEEEKhIgAC0IiYKIYAAAggggAACCCCAAAIILFWAAHSpgtRHAAEEEEAAAQQQQAABBBCoSIAAtCImCiGAAAIIIIAAAggggAACCCxVgAB0qYLURwABBBBAAAEEEEAAAQQQqEiAALQiJgohgAACCCCAAAIIIIAAAggsVWBjJQ1cuHChkmKUQQABBBBAAAEEEEAAAQQQQKCkwLwBaGtra8nKHEAAAQQQQAABBBBAAAEEEECgUgGW4FYqRTkEEEAAAQQQQAABBBBAAIElCRCALomPyggggAACCCCAAAIIIIAAApUKEIBWKkU5BBBAAAEEEEAAAQQQQACBJQkQgC6Jj8oIIIAAAggggAACCCCAAAKVChCAVipFOQQQQAABBBBAAAEEEEAAgSUJEIAuiY/KCCCAAAIIIIAAAggggAAClQoQgFYqRTkEEEAAAQQQQAABBBBAAIElCRCALomPyggggAACCCCAAAIIIIAAApUKEIBWKkU5BBBAAAEEEEAAAQQQQACBJQkQgC6Jj8oIIIAAAggggAACCCCAAAKVChCAVipFOQQQQAABBBBAAAEEEEAAgSUJEIAuiY/KCCCAAAIIIIAAAggggAAClQqsvgB0Nqb+UEgh8+6LKVWpBOUQQAABBBBAAAEEEEAAAQSqKlDlADShqBcMej+XEBQmxpzAsv+MF1amFOtz9kVnjFNKsZdGFFdYg2ctWWNdapqJLkswWth3Vc9LpvFi/Rbuy3fIVGcDAQQQQAABBBBAAAEEEFgxAhurNhKTiew0wWBE49aAgnZHCUX7ksvYZZO6xix1ZVq8quR58yGgQLO7s2VAljWQKbE6N/IdVucsmRUCCCCAAAIIIIAAAgg0tsA6y7LSra2tyz4Lk6XrmZAiJy0NtBRv3ivjHQ0PTWn0WJPkBa9tgxo8NKKRibD+/M+lb3wj7hWV7CznqALf9vqZUmC8QyN2AOoUs9s7cs4JhNsGNWUyopLy+1X3uKw+KRrq0aSvB7l1dKZfHcOFfXc1m8xjbp8l5+vNydd+pqzJ0p7w9Vym3/kdjLfJPJu5RDQ4lNSIO/aMr8kVF8xJchycPxX4hskmAggggAACCCCAAAIIILAsAvNmQC9cuLCgjpxgNqXkRVMtrMD+4tWdINAslR1VJpAbHlbsyGg2o3l+JBNQPvi/jWo85QSb/kAqkWneZAHHlbQDL69dSbOZAvaGF3z62/BKDFiWvFypU25Ew2eOavTYqMYv5/ftBZ9ehtcN+k5E1Z7J+HotJxQtyAa7x9zg0xuPExiW61f6YlkHr0/zc1LTmpJ11g3Ch08rcWxAwZmoE1CXDHSlhZ53f69sI4AAAggggAACCCCAAALFBOYNQE2lhWdIvaWwxbo0+xKanjA/4xrpDGkkUyyu5DVJXtDqy1o6tTIFF7nh9RtW+xGTC819Fc0K5hbJfpo9p2k72zqpnpAve6mkkrNS0FsCnK1hB4RO2WyAnHjNqRsf7lBoOFs4fvmqZOdrs/sWvhVRr8komyXJtrbTgtdn+Pmjdg/eHbX+9hd+zv212UYAAQQQQAABBBBAAAEECgUqCkALq823J6j2bmlywg0oiwZjpo1sIJbTYl7WMudYtT5UkBUs3rWXAS1+1Nkb1IA1pUBmua4TeE8PTanXreZlQMu1stzHAo8XBuHL3QftIYAAAggggAACCCCAAAKeQNWeght8YVBhk/M7EVV2max5CJH5ahQnQLUzoN/OHjUZSOdptt7wcn8eOGhaXMor2+/067l5v9QV9+FIhwJF844FfTcfVXubGcukTmWeymvuL+1XrGgA7TwoyLIsTQ1l5xF8NmJPKG6Wx3pTM/eLjjmfCvqVVGyfV7WSn179ydcyPVZSjTIIIIAAAggggAACCCCAwJIEqhaAqrlLo2dNEGqWqLrfy+l7yE+wz9J4t6SJHudrUkKhvAf9FM6r6Ui7HdTay1VDpQK9wnr+PV6/ThvuuMYSajrWKzsUdMeT+9AhqbBvE1BOabBN8rdlHrxU8DIBZcbAnWf3uPPAJfOU3pOmZ5+Tfb+o00phv8XGUtBj2R1N5p5Wn33+XMtW5iACCCCAAAIIIIAAAgggsEiBeZ+Cax5Gw/2Ai9RtkGreg5kyT+VtkHEzTAQQQAABBBBAAAEEEGgsgSrdA9pYCGtvtN7XtGRnbu5BLfV1OdlSbCGAAAIIIIAAAggggAACixcgAF28XQPXNA9Fyn7lTANPhKEjgAACCCCAAAIIIIBAAwlU7x7QBkJgqAgggAACCCCAAAIIIIAAAtUXIACtvjE9IIAAAggggAACCCCAAAIISCIA5TJAAAEEEEAAAQQQQAABBBCoiQABaE2Y6QQBBBBAAAEEEEAAAQQQQIAAlGsAAQQQQAABBBBAAAEEEECgJgIEoDVhphMEEEAAAQQQQAABBBBAAAECUK4BBBBAAAEEEEAAAQQQQACBmggQgNaEmU4QQAABBBBAAAEEEEAAAQQIQLkGEEAAAQQQQAABBBBAAAEEaiJAAFoTZjpBAAEEEEAAAQQQQAABBBAgAOUaQAABBBBAAAEEEEAAAQQQqIkAAWhNmOkEAQQQQAABBBBAAAEEEECAAJRrAAEEEEAAAQQQQAABBBBAoCYCBKA1YaYTBBBAAAEEEEAAAQQQQAABAlCuAQQQQAABBBBAAAEEEEAAgZoIEIDWhJlOEEAAAQQQQAABBBBAAAEECEC5BhBAAAEEEEAAAQQQQAABBGoiQABaE2Y6QQABBBBAAAEEEEAAAQQQIADlGkAAAQQQQAABBBBAAAEEEKiJwMaa9FJBJxcvXtS1a9d048YNu/SOHTu0f/9+HTp0qILaFEEAAQQQQAABBBBAAAEEEFjpAnUPQD/77DNduHBBmzZt0uOPP64HH3zQNvv000/17rvv2kFpa2urHnjggZVuyfgQQAABBBBAAAEEEEAAAQTKCNR9Ce4Pf/hD7dq1S0899ZQeeughrVu3zn6bbbPPHDNleCGAAAIIIIAAAggggAACCDS2QF0D0LfeessONvfu3au5ubmib3PMBKWmLC8EEEAAAQQQQAABBBBAAIHGFahrAHrp0iU7w1kq+PT2myyoKbtmXzNRhfpiShUDmI2pPxRVotixKu5LnelX/5miI6pir8vctLEr5bosXSUUrcO5WZah0wgCCCCAAAIIIIAAAlUQqGsA+sknn2Tu+Sw3N3NfqClb2cv80h9SyP8eq3V4VmykZlz9is0WO9Z4+5qOjWr0WNOyDjwxFlqRQe3ixxXUgDWg4LIqLaSx1XXNLWTmlEUAAQQQQAABBBBYmQJ1fwjRsrKYjFbniAInLVktXsspxfqGFZsdVVezt4+fCCCAAAIIIIAAAggggAACtRaoawbUPNnWPO12vpcpU8lTcBPfHpGGpjSQCT5Ny03qGvMFn/aSVS9Dms1ImiWlobGoL3uau6zVZMEyWdVMRtXJMEXH+p1jZjmnWS7ry756y1QTYz2aVFwjnaadbNvF25XkH+eJyXmIkjrVlx1fdMYUL8x+lc7kmbLZMTl9e59NAJ9tO+TO3b8Ed0F2oZCc8eVNaSaqngkpPtxh+3llSvnYc+lz3Y33WEL2OFx7z92bS9R3/ry2c0dgDHzz9JbmlhiXcs6zZ5XbonMOvGN510qofLY3Z97uWArOn39pds54nOu6+DWXez5znfrVnznXpg2/iTeP/DnyGQEEEEAAAQQQQACBBQhYlpUu95rveLm68x0zbb/yyivpS5culX2bMvOP48P0y3/Wmv7Gj8v1+kb6G6196Zffd8u8/3K6789eTn+YTqc/jPWlW1u/kX7DPfTGaGu6L2aOuMdGvSPptDnm9GPay5Zzq/p++PvzbztF7D7LtJuZy4+/kW51x+lr3Nk0c/DPyZR152Ha9+aQTpv+s/PLbSfvmN2mU7ZgjLGsl9f2vHaZsZc/R35zM76CvjPuzjlozdiZ8fvOg9/Lnot3vtLptM8n7Tv/uR5O+9788sdl1/NbmjYzY/G35HfNG6PP2F/D3vaP33Z42bku88abex3mXtcv2/8OTJ++/enceaXT5ny4x+3xZMvmntPy561g/OxAAAEEEEAAAQQQQKCEQF2X4B4+fFjT09P2930++uijRcNm812g5mFEpuzCXiZ7Y7KO5hXW4NlRdSmppOKa7AxpJNNYRFclHTCfu9sz9+sdOBjOlLh6OS5NxBWayOxS+GBKsjOtYbUf8d8LaTJMHRo575UNa9DbzPtZst39SSXbBjWUk8nNq5zzMaCAt7y4pV0RnVJyVgoeaZc6TytxbEAHzpzSZHevBnLqzf+h6fGANNyj0MVBTY11KXisy65U8PihMnaRnlH5hebv1SlR0qfFaS180D5rbnO+87A/oPD5pH1enZIRtXuWfp+8gZgMasdwPLM3PJTZzN24Zl9Fiod8mem2gFIKzjNP3xibAwoomduu98ke/4g6QkmNm3tIj3U57TYfVbs6dHqmSwP7Yzo1EVFvn6l0QIE2J7uePGlpoKWrxHLzlJIXpfhEh0LDXmdS5Jqk/eaz7zoyHzPntEmBQ9L0FXPNL+ZMZvtiCwEEEEAAAQQQQGBtC9Q1AN2+fbueeeYZ/fjHP9Znn32m5ubmzEOJzLLb2dlZO/g0ZUzZ8q/8X5LNA2AsDdhLUU/5qkacX+p9e8xmQUCVdzw8NFXkoTsmdM19JcY6NHJoXNaYefSMCYL9feeWNZ+KtrtcDypq7lJvd0jTM8cVeFUafHERj8NpGZBlDWSWBMfl+PlDv8JZLd+eoj7L13y2pZmoOoYDGrdG7T9CmOWuZc9cmxOQVyUca+7SqGUCfWcJbI/3B5TmJnX1RBR6LaHjB6eloSH3DyZmmbklu4ZZanzCu66y0/NvRewg1b/HLPnO+8xHBBBAAAEEEEAAAQSqIFDXe0DNfPbt26dwOKzdu3frnXfekWVZ9ttsm33mmClTySv4wqA03FH8HkPTgJ11mtQp39eHJM6U+HoTX4cmGxofPp39qpPZmGL2fZa+Qr7NTGZu1mRcS79KtmvGeX5a59ygIHWlXCu57adMprOtXUfdjKgxSZ4wQXFviayYVz9pZ03Np9Tr0/LygIkx9z5ZOygaV8RkkRcQrJg5Tr7mPYX4qpKZzLDXb+mfJX1KV5n3SL5PToW2gJMJl5MpzDnm/+BmKE9nroGUYme8OfoLLm7bZGKd+1TNH1GmNNgWV9JkKc2r5bgGL/bYwXKv9xRic7+we29usM/S1FBY8cuFfxwx90ObTObkuO+an4mtmiczu0L8QAABBBBAAAEEEFjBAnXNgBqXDRs22IHmF77wBT355JO6e/euzbVx40Zt2bKlgsynT9cOkgLOw2R8u00WbcAOyIIaODuo/k7fEsTucVnzZEDNV46MXw6pJ7Pk0izpdZai+rqxN+0g2Gu/LazsQt6gjg9JHfbyXzcLW7LdoAZOBhRylwqH27Kt5PfnfJ70jc207S7ZNAfNss02KfBsueynf2xSuDuSGXfw2YB6fEuWPcv5MsbeOJuODWmwzzxYyOwJK2zG4h3M++m3s7N0JX3yKs77sYyPV9cEdupQR8gsznbG6R0qGFdLl0ZPJhU6EXKXeDsZx+JXhNdK5T+bjrQraR5W5VUx16i3hFhNOvp8WDqUXS5un+OLnrGpZK4B53wXXHN9U/b5cObplSUD6lHzEwEEEEAAAQQQQKC6AuvMw31aW1tL9nLhwgWVO16yIgdWhoDJjr0kDY35gtK6jcxZkhww9+N696xWeyxm/p1J9db1+ziXc5LO1wrpxRoaLufwaQsBBBBAAAEEEEBgTQvUPQO6pvWrPvmUYi+NKNBjzfNwnCoOxA4ARzJLer0MahV7XNVNp84M28uprVoF8Ktak8khgAACCCCAAAII1FqADGitxekPAQQQQAABBBBAAAEEEFijAnV/CNEadWfaCCCAAAIIIIAAAggggMCaEyAAXXOnnAkjgAACCCCAAAIIIIAAAvURIACtjzu9IoAAAggggAACCCCAAAJrToCHEDXwKf/Rj36kt99+u4FnwNARQAABBBBoHAHzdXFf+tKXGmfAjBQBBBBYgQIEoCvwpFQ6JBN8fuUrX6m0OOUQQAABBBBAYAkC3/nOdwhAl+BHVQQQQMAIsASX6wABBBBAAAEEEEAAAQQQQKAmAgSgNWGmEwQQQAABBBBAAAEEEEAAAQJQrgEEEEAAAQQQQAABBBBAAIGaCBCAVso8G1N/X0wpt3zqTL9CoZBCoagSeccqbZJyCCCAAAIIIIAAAggggMBaEliFAWhCUTswNMGh847OLPyU2gHmWCJbsblLo2NdarL3JHR6WBo8a8myBhTMOZatUtmWGW+/YrOVlaYUAggggAACCCyPQEdHh9atW5fzNvt4IYAAAghUT2CVBaAmmOtRcmhKlmWCQ/Mel8azmctloZxNKqmAAs3L0hqNIIAAAggggEAdBL7+9a8X9FpsX0EhdiCAAAIILFpgVQWgqTOnNNk9rtFjTp7SUQlqIJO5TCnWl82M9p9xF9SaJbShqKJj7rG/+b80PByXJnrsLKpdLrPMNqXYSyOKa1I9JsNqsqSZY+55mIlmsq8hL7uZsy8kr+/EWI8mFddIp+k7KifnWmKciz7NVEQAAQQQQACBfIEvf/nLMm/vlf/Z289PBBBAAIHlE1hV3wN69XJc4YNDJXUSYx2afn5K1pgJUE2QN6zYkVF12TUmpWctWX1O9dQXfq6Oy72y+oLOjswS2SZ1vTio6c6kes3yW3N0NumUsbdj6j+RtJfndpkM6UxU0WuSWgbs5bpOQZOpdfvuG1dk4pQCZ0dll5dUcpxkXLPObCGAAAIIILAMAibj+corr9gtkf1cBlCaQAABBOYRWFUBaPm5ppS8KMUnOhQazpaMmOBwv/kcUXtLdv+it64lFe/u1agXLLYMaMBuzAS8HRo577Uc1qC3mfOzzDi9NnPK8wEBBBBAAAEEFivgz3r6s6GLbY96CCCAAALlBVZVAHrgYFjxy1cl91FBxaYeOWlpID/QzGQ3i9VYnn0mqzlyaFzWmMmZmgzoqbINFx1n2RocRAABBBBAAIHFCJD5XIwadRBAAIHFCayqe0CbjvUqMtGTub/SIUkoan99SpMCh6RJ/wOJZmLL//TZ/QGFJ05l2zVLcN2n8IYPHnCGZD/EqNQJq9E4S3XPfgQQQAABBNaYKTttSQAAIABJREFUgD8LusamznQRQACBmgusqgyoFNSANa5oyL/MNqzBs6N2TrSpb0qDfR3qCI240BGNW+YezkJ3O5gN9Sg0IYWHpjR6pLBM0T3mK1lOJhXqDMnpxekjuH9Q6nTH1RZWOFM5qONDUodd3pQdULDUODN12EAAAQQQQAABBBBAAAEEGk9gnWVZ6dbW1pIjv3DhgsodL1mRA1UX+M53vqOvfOUrVe+HDhBAAAEEEEBA4n93uQoQQACBpQusqiW4S+egBQQQQAABBBBAAAEEEEAAgWoJEIBWS5Z2EUAAAQQQQAABBBBAAAEEcgQIQHM4+IAAAggggAACCCCAAAIIIFAtgVX2EKJqMa3Mdp988kn7fpSVOTpGhQACCCCAwOoSMP+7ywsBBBBAYGkCBKBL86tr7S996Usyb14IIIAAAggggAACCCCAQCMIsAS3Ec4SY0QAAQQQQAABBBBAAAEEVoEAAegqOIlMAQEEEEAAAQQQQAABBBBoBAEC0EY4S4wRAQQQQAABBBBAAAEEEFgFAgSgq+AkMgUEEEAAAQQQQAABBBBAoBEECEAb4SwxRgQQQAABBBBAAAEEEEBgFQgQgK6Ck8gUEEAAAQQQQAABBBBAAIFGECAAbYSzxBgRQAABBBBAAAEEEEAAgVUgwPeAroKTuJamcPtOWj/9xU2988EtpdNpPfbwFj39xHZt3bxhLTEwVwQQQAABBBBAAAEEGlKAALQhT9vaG/TNufs69d1Z/dP5G7p570F9bvcdbd90Vz+b3art66+qo2Wren53n/bt2br2cJgxAggggAACCCCAAAINIkAA2iAnai0PM3Xjrr4aTepW+kH96e89pn07budwzN19UOPf+1R//Df/rr89cUDPPLUn5zgfEEAAAQQQQAABBBBAYGUI1D0AvXjxoq5du6YbN27YIjt27ND+/ft16NChlSHEKOoqYDKfX41eUlNTkwb+61Z9+PFtPfcbu3LG9G9vfKy/Pr5Hp6bW6et/f1XfeXGbmnZuyynDBwQQQAABBBBAAAEEEKi/QN0C0M8++0wXLlzQpk2b9Pjjj+vBBx+0NT799FO9++67dlDa2tqqBx54oP5KjKBuAt/61/d0K/2Q/uS3N2nutjLB5y/eu2mP6Yl92+19Jgj9/bYd+sUH9/Wtf7mmv/zDJ7RxY90u77p50TECCCCAAAIIIIAAAitZoG5Pwf3hD3+oXbt26amnntJDDz2kdevW2W+zbfaZY6YMr7UrcPvOfb38gxvqeGazPr11T+996ASd7354U9//6Wf22wtEnzqwWR9ev6PfOrxO370wp9THTtm1q8fMEUAAAQQQQAABBBBYeQJ1CUDfeustO9jcu3ev5ubmir7NMROUmrK81qaAedrt7fQ27d52Tx98fFdbt2yUCT79L5MBNa83r8zprXdu6Z3ru3VLO/TG25/4i7GNAAIIIIAAAggggAACK0CgLgHopUuX7AxnqeDT22+yoKbsmn3NRBXqiylVDGA2pv5QVIlixxayz/QRCikU6ldsdiEVq1/2nQ/mtOfB9frgxl19eP2uEpdv6ZtTst8/u7ZBkf/ysD0IE5SaYx/8aqdee3u71m/aqqsf/Kr6A6QHBBBAAAEEEEAAAQQQWJBAXQLQTz75JHPPZ7nRmvtCTdnKXglF7UDKBFPue2zJ4VllXZctZca18oI7Z8gpxcYnFTlpybJG1dVcdiILOLg8czbf83n73gZdSeV+x+fD265r5LjzpFsTfJqg1ASf1jtb7DGuk+zvCF3AgCmKAAIIIIAAAggggAACNRCoSwC67POys4E9kh1ImWDKvKc0ePHUisvqLfvcl9TgVSXPhxXYv6RGqlb5sYe36PrNtN2+CTDN2wSfyQ+zl60JPs3r+5e261d3Nmjjeune3Tk17+IBRI4M/x8BBBBAAAEEEEAAgZUjkP1NvoZjMk+2NU+7ne9lylTyFNzEt0ekoSkNtPhbbFLXmC+rZwepXnY0m5FMnelXaCzqy57mLmtNjHl1QgplMqpOhi861u9kW80y2cxSVqd8/xln4WxirEeTimuk0+zPtl28XUn+cZ6Y9E+oyHZSp/qy44vOmCKF2UfTlzcefyM5YzNzcJf1Rr05u/P1jzXbTp5BKNtHTrvzzjmvHd+S46ef2K5t6z/Rzz/aqx/9cov9/sHbO/Xe9Yf0z+c+0enpm7p4Tfb78N7/0LZN97R14z1tuX9dhz+31T9VthFAAAEEEEAAAQQQQGAFCNQlTfToo49qdnZW5js/y71MGVO2/Cul5EUp8GxTmWIJRTun1X7W0qhZZmoCrZdiOjrW5dSZkNotSwMmfBsL6dSZ4xo91iQTnPZoXJYVtMuZY9EZyw1040oenJJlZfu1LNOCeZmgalixI6Pq6htXZOKUAmezwXDpds04RxQ4aWnUBNMmqB13myzxo/1Fd06m7Imo2q0BHR+Shl9PqeuYGVtC0xMR9frG6TUVzB/bbEzSpPSsJavPKWWP9eKgpqwuNSmlWF+Hoo8XMTCmnaeVODaggnalBVua3rdu3qCu39yu7/30PT3W7Dxs6P79LUrfv6dtG25pz+7N2vXAJt13kqQ6uPOGfjl7U7/zdFp7dzvlvbnyEwEEEEAAAQQQQAABBOovUJcA9PDhw5qenra/77NUgGm+C9Q8jMiUXdjLBH8m62heYQ2awE9JJRXXZGdII5nGIroq6YD53N0uJ8SUDhwMZ0pcvRyXJuIKTWR2KXwwJdmZ1rDaj2SDT7nB2ch5r2xYg95m3s+S7e5PKtk2qKGcTG5e5ZyPAQW8+zZb2hXRKSVnpeCRdskNBg+cOaXJ7l47uM6pWvJDRO2+/s1YIz2jcmbapKPPhzXyWsINwn0GzQEFlCzZask5F7XMNvPVzkf1/Z/8TJvv39WenZv16Z0tunfnnjr/s/MAov/x1k19ekt6cNMtfXT9tjR3Xf/tt/dUlDnP9sIWAggggAACCCCAAAII1EKgLgHo9u3b9cwzz+jHP/6xPvvsMzU3N2ceSmSW3ZrMpwk+TRlTtvyrSYFD0vQVExiaMCmoATubaQLRU76qEY1bA5lA0ztQ9Amz3kETwg5N2dlQ3y7JDl1z9yTGOjRyaFzWmAll8/vOLWs+FW13uZ5C29yl3u6QpmeOK/CqNPiiF14XjqOWe4rOuYilf0wPbd+kb37t8/raNy9p7vZW/frjzvfF/t3L79rFdm1Zr52b03rryme69sFn+qs/2qHAY3u1cWNdLm3/0NlGAAEEEEAAAQQQQACBPIG63ANqxrBv3z6Fw2Ht3r1b77zzjvvgIMveNvvMMVOmklfwhUFpuEPOPZBFatjZuUmdcu/LNCUSZ0p8vYmvusmGxodPZ7/qZDammH2fpa+QbzN80M6nSrMm41r6VbJdM87z0zrnBqKpK+VayW0/ZTKdbe066mZEjUnyhAmKe5f0dFsz1slxzyqlc6/GFXl24QFtyTnnTqPopwMPb9fJv3hSB5vX6RVrVjP/ntLFa+b+z5v29tT/N6tHHprTf+9p0v/ya49q61bu/ywKyU4EEEAAAQQQQAABBOosULc00YYNG+zg8wtf+IKefPJJ3b1716YwmastW7ZUkPn0yTV3adQKOA8S8u02GbcBOyALauDsoPo7OxQadgt0j8sy9yb6yudvNh0b1fjlkHpC3sOAzJJe977RvMJ2EOy13xZWdiFv0L4ns8Ne/utmYUu2G9TAyYBC7lLhcFu2lbzu3I+TvrGZts19mu6r+aja28y9sQsPFr0mzE/PoCPkLF62s5i+Jbr+stnthcw5W6vcVtPObfrLP3xCvR039cbbn9jf82m+pqV51zb7gUPmnk/zwCoyn+UUOYYAAggggAACCCCAQH0F1lmWlW5tbS05igsXLqjc8ZIVOVBfAftBS9LQmC8ore+I6B0BBBBAAAEEEEAAAQTWuEDdMqBr3L3K008p9tKIAj1WNiNa5R5pHgEEEEAAAQQQQAABBBCYT4AAdD6hhjxuvgPVLDDmhQACCCCAAAIIIIAAAgisHIG6PYRo5RAwEgQQQAABBBBAAAEEEEAAgVoIEIDWQpk+EEAAAQQQQAABBBBAAAEERADKRYAAAggggAACCCCAAAIIIFATAQLQmjDTCQIIIIAAAggggAACCCCAAAEo1wACCCCAAAIIIIAAAggggEBNBAhAa8JMJwgggAACCCCAAAIIIIAAAgSgXAMIIIAAAggggAACCCCAAAI1ESAArQkznSCAAAIIIIAAAggggAACCBCAcg0ggAACCCCAAAIIIIAAAgjURIAAtCbMdIIAAggggAACCCCAAAIIIEAAyjWAAAIIIIAAAggggAACCCBQEwEC0Jow0wkCCCCAAAIIIIAAAggggAABKNcAAggggAACCCCAAAIIIIBATQQIQGvCTCcIIIAAAggggAACCCCAAAIbKyG4cOFCJcUogwACCCCAAAIIIIAAAggggEBJgXkD0NbW1pKVOYAAAggggAACCCCAAAIIIIBApQIswa1UinIIIIAAAggggAACCCCAAAJLEiAAXRIflRFAAAEEEEAAAQQQQAABBCoVIACtVIpyCCCAAAIIIIAAAggggAACSxIgAF0SH5URQAABBBBAAAEEEEAAAQQqFSAArVSKcggggAACCCCAAAIIIIAAAksSmPcpuMVa35n4crHd7EMAAQQQQACBBQpcD76ywBoURwABBBBAoHEFyIA27rlj5AgggAACCCCAAAIIIIBAQwkQgDbU6WKwCCCAAAIIIIAAAggggEDjChCANu65Y+QIIIAAAggggAACCCCAQEMJLOoe0PwZcv9KvgifEUAAAQQQKC7AcxSKu7AXAQQQQGBtCJABXRvnmVkigAACCCCAAAIIIIAAAnUXIACt+ylgAAgggAACCCCAAAIIIIDA2hAgAF0b57lwlrMx9YdCCvXFlJKUOtOvUKhfsdnCojXbMxNVyDemmvVLRwgggAACCCCAAAIIIFATgSoHoAlFTUDhf7sBz5Jm5wVPoagSS2qodOXEmDPu/jMmPCv2KjK3SoOnGoy/2Iirt6+IxXKc5+oNmJYRQAABBBBAAAEEEECgDgLL8hCiouM2QVbniOKKaNwaUNAulFC0L1m0eOPu9M+vcWfR9HjAHnygeYFzWDPneYEuFEcAAQQQQAABBBBAAIECgaplQBPfNsGnFDnpBZ+m76AGxrrU5A7DyzJ6GdLojDc+L6MWVcxeGurPRiYUtQNbU3ZSPSbrOJaQvKxiX0wxO3vpLCfN76Ngmam37DOTpY3q+2f61TPhjCU+3LHwpaneWDJLWlOK9bmZ4LH/p/j4TXf5Y8lkEQs9jJWzbDak/jMxX6Y5mxX2jnu+5mfW2LN2f7YMyMr8oUBZz4xL8bpLO895cz4xmTeovON5GebC+WXnXtgQexBAAAEEEEAAAQQQQKDeAvNmQC9cuFA4xk25u/xlWltbzR2FSl40ZcIK7M8t630ygaEJ8iInLQ20mACtQyMn+hU4O6quTBZuUtOaknX2nJNNHT6txLEBDZwdVDI/uzrrZlbPj2jkvNeLFOyzZPW5n02Ad2JSIy/FdNQEwu5ntQ1qyhcYm9Ljl53xhYemNHrMC5mz7Wa3TBCcDZyc8l0aPSt7zHZfPUl7TJm2XlhfOH53LF4ZE1x1DI9o+MxRjR7zepvUyLC3nf0ZH06q17LUbptO6tSZ4/aYm46NyvLqupnKyRNRtfsDzWwzvi0vyJ8vu7vE86yY+u2g0+3HOx/eSMqZPH5aHcNxqXtcVp+TX/eqeT/916W3j58IIIBA3QXK/G9o3cfGABBAAAEEEFgGAScmLN7QvAGoqVbQQN6NlwXHdVVJXxBY2HVC03aG0QtQm3T0+bB0Pq7p11Pq8oImRdRrB38BmQWiJqM67ys/mMwsES2smXjNCRzDzx/NZGULS823p0SQ1tyl0ZNJhU6MqMNYtA1qqEwg643Fzrj6gsz45au+AeT2lbriHAoPHbeXOKcOhvOUTOa0R9nw2NdURZtecB3WYM4fBrzKSzvPRzXtnNPudneJtteu87OsyeNu2Ykehcy1lH/ei123uc3zCQEEEKiPwLz/G1qfYdErAggggAACyyEwXxKoSktwg2rvNsOPK3mt3DQCWvA9h+WaKzjmZfJMAGXJOjsoE6Kt5JfJgFqWlX2XyO7NPweTVXaCT5NltqxxReav5JYIasCa0mCbVyGukU6z1Df/gUzLc57DBw94HRX9WdTELBn2n8/zI+rILHku2gw7EUAAAQQQQAABBBBAoM4CVQpApeALTrBnlnxm/9hrHkJkvvbDC1wmNW3f95nSuVdNfjOs9iPllru6Ws1ORnReu9mknIW5xQPd4LNOSBZ/9Zz9VST+9g7Y2UT/ngVum8yrWV5qloiejEjnzXJaN4ArMv7MWMwyY68r04a5v3VRLy876WWZF9pIk7rGnEB4aqh02L6U8+w9+KiYvxntvCYmy2wH6/5geaHzpDwCCCCAAAIIIIAAAgjUSqCiJbiLGowJDtz7IP33SJqlksdNcNFnaVwh9ZwIZZaIRk767/8s16sTwE5OuEtETZD3QpHyzV3q7R5R3CuXX8Rk0U7KWSYbGnGPustcj7QrrLicJbGllqCaKt4yVbe6WQr6ojRs36Ma1uALQan5gAbbzP2bHQpddu5ZNBninPH3eWPJa697PH/UFX4O6vhQWJPDTvbSm11FlYstW+4eL34v7FLOc/OApoaS9r2uHRl/3wgz56fQxLlHNndRduXXj68PNhFAAAEEEEAAAQQQQKBmAussy0oX3sOZ7d+s4c0/vjPx5WwBSdeDr+R85gMCCCCAAAIIFBfgf0OLu7AXAQQQQGB1CBSLH/0zq9oSXH8nbCOAAAIIIIAAAggggAACCCBAAMo1gAACCCCAAAIIIIAAAgggUBMBAtCaMNMJAggggAACCCCAAAIIIIAAASjXAAIIIIAAAggggAACCCCAQE0ECEBrwkwnCCCAAAIIIIAAAggggAACBKBcAwgggAACCCCAAAIIIIAAAjURIACtCTOdIIAAAggggAACCCCAAAIIEIByDSCAAAIIIIAAAggggAACCNREgAC0Jsx0ggACCCCAAAIIIIAAAgggQADKNYAAAggggAACCCCAAAIIIFATAQLQmjDTCQIIIIAAAggggAACCCCAAAEo1wACCCCAAAIIIIAAAggggEBNBAhAa8JMJwgggAACCCCAAAIIIIAAAgSgXAMIIIAAAggggAACCCCAAAI1ESAArQkznSCAAAIIIIAAAggggAACCBCAcg0ggAACCCCAAAIIIIAAAgjURIAAtCbMdIIAAggggAACCCCAAAIIIEAAyjWAAAIIIIAAAggggAACCCBQEwEC0Jow0wkCCCCAAALLLDAbU38opFBfTKllbprmEEAAAQQQqJYAAWi1ZGkXAQQQQACBBQgkxkIKmYAyFFViAfW8oqkz/U79sWxtr83+M6VD1Ew9u29nDNEZr9VV9tML2hc510LPlGJ9q9xslV0CTAcBBOovsLH+Q2AECCCAAAIIrHWBhKYnlt8g2GfJ6ivdrgmoeiak8NCURo812QVNQHq6dJXGPTITVejEpNQ9LqsvaM/Dnv+JkHTS0kDLYqbWpK4xS12LqUodBBBAYI0KkAFdoyeeaSOAAAIIrAwBO185M63JtrDCOUNKKJqTEc3/7Cs8E1XHcNzZMdFjZ0JNFtPLbhbNgM7GdMoEvW2DGnKDT9NA07FRNxjL7y/vs5dN7IspZmdv+xWblbwsYfSMu0TYy8iaANCXecwuHc62G/OyuKGQcsbs9ZWp36/Y/yxcgpzpuyCDm1JsfFJSWIMvOMGnmWvwhUHbfPKEm3X2+unrd5Y32/058zKWJlg3r/hwh0KhvPlm+sxmRZ35OuXsipn2PbP87Kln4ew39XMcnO75/wgggEBDCxCANvTpY/AIIIAAAo0uMD3jBEeR59sXP5WWAU0NueGryfBZFWT0riVlh6yHAnJyn4vs/vyIRopkbyeHR5z2TbNu9tFkWs3Y7LGeH9FwztLgSU1rSNZZJyiMD592liKboK3TtBXRuGXZ9S1rVF1f6FJvt6Tz0zo3azrxssgRtRdkM68qed6UCSjQ7Jtnc0AB+2NSSbsN99j5gHpNXycjJtzUyEsx6dioxk1/Joy15zGqLn9b9hETfHZo5HxYg2fNWMcVMfU785ZVnx9R8lmvfWly3NzHa+r2aNIEyXZdZ65eZtrpmf+PAAIINL4AAWjjn0NmgAACCCDQwAKT48OaPh9R+5HaTiJ1Jbk8HbYNasoODHMDsshJN1jsCyrxmsk+epnDUCZbG7981TeGiHpNJjYTFDqHUq9PO4Fsd7uyuUvnWPBZJ0Ccfj0lmSyyHRweLyjn66SyzbaADpiSLe0yPeh8Uv6Rlmxk9pymcwLdoNrtoHVS05kMqZN1Pm6C5P2BvKy3adkErPmZ0ZI9cgABBBBoOAEC0IY7ZQwYAQQQQGA1CYTPxxUvElxVe45NR9qd4OdismZP0fUyoCYLar/dezEXPVc3QIy/ek4xO8gNq/1IsXzuAQXaTC95mc7ZpJwwPC8zuugBuRW9AHZB7Tj3k3pZVlN18kRIIW8J84LaojACCCCwcgUIQFfuuWFkCCCAAAJrQGDUBGNlA7G8oKmESdPjzmLSEocLdzd7S1hzl8Kaex1zn4JbWf+FHWT3OJlKkwF1l9WaQ2ZpbQXBVSZQnpgu8nTgoI6bpcfeMuDu3iLLYk1nTerqyS6n9Z4JnPi2s0w4PFQia+pmVeX+geDAwdy7dLMzdLeaj6rdBLoVLQsuqG3vsB8clVn+W7wMexFAAIFGFuApuI189hg7AggggMAqFnCCq8lhZ0nmyHwztbOBk5o0DyGakMwS2OPz1DHBzrhC6jEP1RnOFo6cNNsL7D9bvXCrZUDWSdlPoe0JOctx7ULd44Vl8/c0d2n0rOz7QLN1zX2SzpJfJ0CNK573gKH8ZmTGcDZgt9MRymoap4In4J4fUaaMWWLs/oEg05ft5YwhN+w3WcwpydwH2hn6/9s7G+g6quve/y8YYwyxZcDlKkiAAsnCBDuxnIKuHp+iNgmFFSQht5ZKgJqPpE5eWuPX9VLLCshy0tcINwX8UmgcKF2SWyuSswr5KG6UglNdvVRSVm0CtHURRMYSAYoNwcVfum/tM3PunJk7c790r3Tv1f+uJc/MmXP22ed35oxnz97nDKxaJN8fphEWLAsQyRxQ42fUbaRylwRIgASKmkBoaGgotmLFisBGDA8Pw3t+4d5VrvyHlz3rOuYBCZAACZAACZCAPwH+H+rPJetU/XkVMdYe/uzUFlTSCx7lQlbWDWJBEiABEihuAn72o9kihuCaNLhPAiRAAiRAAiRQRAT051WA3/v9KRqfRdRqqkoCJEACxUyAIbjF3HvUnQRIgARIgARmNQFr4Z7P5oqBhPsO5UxarrSiHBIgARIoKQL0gJZUd7IxJEACJEACJEACJEACJEACJFC4BGiAFm7fUDMSIAESIAESIAESIAESIAESKCkCNEBLqjvZGBIgARIgARIgARIgARIgARIoXAI0QAu3b6gZCZAACZAACZAACZAACZAACZQUAS5CVFLdycaQAAmQAAkUG4Genp5iU5n6kkBeCFx88cWorq7Oi2wKJQESKBwCNEALpy+oCQmQAAmQwCwk0NTUNAtbzSaTQCIBeRmTzAA9djyGX7x2BGNvfoBYLIaKxafj4xfOx7y5pyYKYwoJkEDBEqABWrBdQ8VIgARIgARIgARIgASOHJ3E9h/+Ct8deBdHTp6FykXHMf+0E/i3X83D/FNex42fnIff/0wY4bPnERYJkEAREKABWgSdRBVJgARIgARIgARIYDYSePvdE7jnm6P4IHYW/uCWCoQXHHNhOHriLHznx79Gy5/+BzrvPh/LP3a26zwPSIAECo8AFyEqvD6hRiRAAiRAArOMwMSORoRWd2PC026/dJUWCiGk/zZHjVJRbNHp3q2PfKNgwm50s1FHKIQtgwlZAEyge7WZrxHdB9z5LDlbYGopOVQ7bN2D8gBWexp3TAAHutHobZM+1gwC8yTqlZyjrV8Cs9y0102IR0EExPN5zzdfwTnnnI1v3LlAGZ/XfqIM5t/pc2LYcvvZuPKyc3D/X72Otw//d5A4ppMACRQIARqgBdIRVIMESIAESIAEUhEQo6m8uRoDsZiaAyfz4AZQi5A2wGwBHVHnvORRfzubEU5VgTpvGVm1+7owrsuOdWEk4jVCxTgsR2/9eFyX2FgjeitDUAajq65WdIoRGfCLrOwAMIJRj/GKwX60ogGNV2vNG9A15tO2TRFDcmKegfY+tKx3DPx0ORpCYRnDuWmvWy6Pggg89v0JfBD7EO687jQcPQZleEre1yaOqD/ZF2P0wK+OoqF2Acp/YxEee+YgTpw4ESSS6SRAAgVAgAZoAXQCVSABEiABEiCBdAiM7u8D2utgmluRu7rQ0Naf4GFMR55vnsHtaOnpwIBpsFY0Y1t3A1q3OkZcdHMtWtsH0LtGG4cAKprRG+1AX/N2tz5NDUDzugTvaLz+mjp0oA+9e9xGanR3K9C+Ac0V8ZxZ7ShGPb3otw3cbDjmtL1ZtaL4Ct14442Op972VktaOr9jxyfxvei7uHH5XPz6g5OYeOuIKjb+1hHs+cX76k8MUfl97Py5eOvwcVy9JIQfDh/F24es9HTqYR4SIIHpJ0ADdPqZs0YSIAESIAESyIpA1SUNgNfYFKMvttFllGYl3C5kGX1uI1dOhdf0IhY3SqPobwM6VpqmsC1AGZOt6DdDdpduwAaPF9KtYwR17UDfrn4jDDlJHe7CGR9lzjGJLlm1N2OVi7LA/fffn6C3X1pCJkCtdnssdgYWnXESbx46gXmnz4EYn+bvwvB8dfjSL4/i5bEPMHZ4ET7AAvzrf75nZuM+CZBAgRGgAVo8k7PFAAAgAElEQVRgHUJ1SIAESIAESCCIQHjNNnQ1taJWz31MmKNolWyNmPMyrX3/OZzemiYwug9ouKTKe8J9fGAUI2hAla9nsgpVTcDIqNubGdk0gI6eFmw3DVNDqgrDNbyUVvhtB+pqjEzoQ0ult22J8zvNErIffaIFfU2NqLP1TZdjXE4e2huXXcI7q1atgvzpn/dYp/ttx948irPPOgVvvnsCbx0+gb2vfoBH/wHq798Onorfu2GxKiZGqZx7878X4vn/nI9TTpuH19/kPFA/pkwjgUIhQAO0UHqCepAACZAACZBASgJhNO+050COdaGhpwXlYoymMQd0o8uQS1lRHjJEsDHagdZI4oJEqjI7DFfPA/X3xCbO74zFej0huolGam2bJ6QY6XGcGoQU7Z2a8KIpbXo8zf1UDZB5y8dOnopfvu3+xufiMw5j8+3WSrdifIpRKsbn0NjpSmQIUHOSU8nneRIggZkjQAN05tizZhIgARIgARJQBMJV1UDPKEYz4aFCb2OIiSHaVhuwSm0mAiVvGFVLgb79KTSpqEI1+hIXDVLVjWK0B6iuMuaGajVq1loeXI/BbJ22wnBbd8t6uUlCXrWswK1ppA5Aljdq6F4bHKKcDse8tDewASV1Qns99TbdxlUsPh2Hj8RUdjEw5U+Mz9G3nEdXMT7lt+eV+fjv46dizinAyRNH8Rtl/MqgRYb/kkBhEuAILcx+yYtWodsez4tcCi1MArHv3luYilErEiCBtAmoxXKWbrBXr5VVZztRNebx+CnjKG2RKTOqUNhIP6KbIm6jbXALQhFgQM03tYzF2t1RbKzxzANVK9d2YMDX4xpG89Yu9FZ2Ynt7oirxulcCrQiSkVguOCWCjWNdaKwsx5aqGCwvcDYc89PeYL1L60wmnk/d8o9fOB9nnPI6/v2/Pgq8Y6UuOGWh2un96Xs4cuxU7D9opS859x28engBxDQ9PnkYSyoXaTHckgAJFCAB5zVSASpHlUiABEiABEhgVhCwF7KpNT2DB7rR6VroR4wgCS91h7BO7OhUxpp7ruQUqGkvpWt+aRRbIq0uT6Ka09lW6/7kinyH05MvQRO1oi7Q2taXcAqaQ0RWv01cCCmxQBopegXfeOhvdhzz0t401C+FLJl6P6XN8+aeis9eOR+nHJ3ABQveVX8L5gMfmncSZ5z6ASoWHUfZmYCkye+ihe+qvNd/PIZzF9mJ1in+SwIkUGAEaIAWWIdQHRIgARIggdlIIIKNsQF0tNU6n62obEF1VHvtLCaRTTGMd484ixCFQijf1Yhxzyq4fosQhUJuwzWYsjU/cmCpPb9ULXhUC0RjcH1yBaLzOBp3lRs696JxzJsvsabwmg0qNDbxjOVplHTfFXZ9FyEKIeQylhOlWvW1otbOly5Ht6R8tNddA4/cBO65qRxzJ9/B3Ml3Ef7QB8rYPOv0k7gpshjXL1+I8CLLAJVzkgdH30bzdQtx5plnugXxiARIoKAIhIaGhmIrVqwIVGp4eBje8wv3OiuaScHDy54NLM8ThUOAIbiF0xfToQlDcKeDMusggcwJ8P/QzJmxxOwg0NPTg6amJldjX3/zCL746CtYXDYPl15wlnrZMeeUSZXnxOQpasGhl3/5axx88308sGYBLv9oOebNm+eSwQMSIIHpJeBnP5oacA6oSYP7JEACJEACJEACJEACBUPg/MXz8e31F+OxZw7i2aFf4byyOSj7kLXi7aH3jmLiv07gio+eij+65RxUVZxL47Ngeo6KkEAwARqgwWxm4Zlr8OJ3L8WS119G6MvPJ2//utWIXQ9sv20n7k7IuQw//usaVI8OYtEDez1n7To8qerw/YPYcMczeMjv3Eyn3Xwz3rnzXIw8+SRueMZfmfsfuBOdl8+Nnzz0gl/746dT7Fic8JPHcdm2FFl5mgRIgATSJSBzNCtb4DP7Ukno8IT8piuW+UggnwTOWXgG/vh3LsTaG4/gX//zPfWdT/lMy2+UnYEllfPUnE8Ju50zh4+1+ewHyiaBXBHgSM0VyVKQsy6MJa8fwkvnh/FtwMewzF0jX8rSsFJGXtVbBWeofvsv7sXa8w9h+21P2tzEgKzBOw/AxwjPHUdKIgESIIGMCKhPjjRnVISZSaAQCIhxed65C7Dq3AWFoA51IAESmAIBGqBTgFdaRZfhx1eU4aWfDWK8rAaNDyzD3Qney9Jqcc5ac/PNaDz/GPqfNL3Bz+Oyn4QRu/5SfBt782rM56wdFEQCJDAjBGTeG38kQALAxRdfTAwkQAKzgAAN0FnQyWk18eYLUH3mIfRu24uXFlejruoC3I+9rnBYy8tnSXvp9UNusSpE9cMok9T3D+El99mMjhxvom3QqXDf+ej/jyOo+6iEuH4YnX99M2CH65p6wQwflnJXAC+hDEvOFANxBGiqQfWhQ8D5ZZauEK+lYzi6ZEHKBIfc6kbd/6lzUfb+W/iBNzR3206EPOGzLvmmriJMtVMRBMQTrStQW3focrYeZJdIHpAACRQEAe+iKwWhFJUgARIgARIggTwR4GdY8gS22MQqI+r1CeWpe+iBV/DSmefippuNVqxbbYeYPo7QbeIltQ0llWUZftz0YeCFQchKu6GfAUtSrIC+5Pp7Iau0mn8vrrPqu/vLj2P762VY+xfXALgGL15fhpd+8iRu+MpObHjhGGDMFZWQ3LVlB7FB6r1tEP1ll+KdB5Y5ip9ZBvxMzjmGZNn5QK/O/76uxzIAHVmiw1zUrRQdkv+WLJoLHHrXZaz7lXDr+jJeOt/UVbdTdH0cG96ZjyVxITKn9lKUa75PHkT59Xfix2b/xPNyhwRIgARIgARIgARIgAQKlwAN0MLtm2nUbBluqgL6d+uFh57HwOtzUf0px5D79sfKANtABfbihp8ZHlDlPT2GkSF7waFtL6P//eTqiwdPGavKELT2zcV27v6yZaDF7EWRzHOOZNF7Ll76mV64yNKrTHlvda5DGPB4IQ+98LIdErsXo0YzIB7L+CJIy1Bl2thaXNZbS9dDo7+0DdXnsf2FY4jrKvNv4eiqXgLourR3WodEP/MMej39o7NySwIkQAIkQAIkQAIkQAKFTIAhuIXcO9Ol27pLUXfmXODOexG706j0fD1/0TLGDpnW2mtHcAjzrcwXzkcZjmA0HoIqhl0Nqg1Rme+KgfYRdF5+BNsDV+QtQ/mZgPKmXu+uwfEeutOTHplhxDiGQymMaC3rpXeOAVULcD+QxAtq6Tr+pndVYEvK/YvnA++/ZYTdHsL4+0C5nFZ8y7D2u/dira5UbXNqIbsk84AESIAESIAESIAESIAE8kGABmg+qBaZTPFuJn4yxJpzWCthsdssg7JukWHwKKPIbqgyRs9FlYSEKiPU9h6+MwUQN9+M1suBQ3aI7N2+RqhlpEmIrb+HNLP6v73ywygz5mWq+ZppiHho6C20Xm6FLD8UN8IBuD7dYulavVi8yolG6ENvHkHn5WbYrWWwquoVXwkbduaqpqEWs5AACZAACZAACZAACZBAwRFgCG7Bdcl0K3QNas83wmfj1UsYLrDkY9YcyLv/XRbu+Uh83qEKydV5n/klRt435kuqkFF9MputnlM6gkV3WKG4en6oW9pe/GD0GJZccbPyPso5MRpjf+0cu/OncVRmeTLFeGw8P438ksUOia27c7X6fI1VympD2euv2N8NtXSNh9ziGqy9fC7iIbnbJtRiSbL6sPqpkFxrF4pvmVqZ2EqRlwP3uue62lm5IQESIAESIAESIAESIIFCJkADtJB7Zxp0u/+Bj2CJ3wqu8h1Q0+jcJgsAAXUSpvvde9GIQ3CmT+7FDbahqBYVunM+xl9PrrzfIkSx74oBJwvu1KAOB9Gh5jzK50wOYYm96I54Gw+d+WF0qrzAQw88ie2H5NjSS32LMz6PM7kO3rN37z5oy74XsSagVxY80gapN7PnWBZO2vDCfBUmay2sVIPq0UGEDM+tW9dLseT1l41vhD6Py548CFxeYy3MJKv3xkOALb7j+pw9L3aRnhPq0YWHJEACJBBIYEcjsDkaeDo/J6JAqBE4kB/pGUs90A2s7s64WGYFJoDVISAUmgHemWk6I7nlOtwxMSNVs9JpJDAj95tpbB+ryppAaGhoKLZixYpAAcPDw/CeX7h3lSv/4WXPuo55UJgEZNEf/mYPATGE+SMBEig8Aon/hz4FrC4Hlg4AmyL5VVgeCPdvyH89rlaIAdoJjPUCFa4TpXswuAXYWgXsbC78Nm4OAZeMA2vC06erXIfYlt86Z6JdmqC0r7lPHwFosK9/GQv9QGyjfU5eVJQD9Qb/OJtRIFRryAAQjQE1AEz57fZ9Q6d1e2S5xrvUHyDTXVNujkQnV/1esXb7zU8hN3VZ40bG0O46514lL44qe437iJRdB2ztBSDnWgzhmreHlc6h6qhLZI+A/jD7UuunZXHrS8DPfjQz0gNq0uA+CZAACZAACUw3Af0Amm/jc7rbNZvrGx0BllbNZgKzt+1i+O5qBGIx5y9aDTwhkQdVQFMrMGjjOdBvGaf7R+2ECWBXH1ClXwaIIWXLGesCInYkwZpeoLsB0Manpt3eATRv10eerW18ioEa120A2JrvaACPGvFD0cc2vuP6xIClLRafiiqgTfjYvz29QBOcSAph11NtvNTqcNolvCu36JIWJ7MO9WIoDOwcAJrXOTJ3rLNeBOqXMcqor3bkioz6Xqf/nBq4lyEBGqAZAmN2EiABEiABEsgpAdP7IYLlzb+Ebqo/4yFKvZ3X6SEnhFE8A6EtgDz46nL6AddP0X2dTj4pp3+ueg35ct6UbYavusoYsly6ejwuuj61lYdQCQtudHSKh2Z6zul6TV3McGJJX23IkXPyAKmZaLlmCK65L/pIe3Q9imujE0qrwohFJ83ZbK/RKCknHpO2Wiuv9IXotln3q21EKPk+skRnsx2ij8nZbLNRrbUrHhwt0+hDxcYwNPSxyG0D0Fzu6CqC5Lxup1mftx3/kuzaM1lJ3xj1J+htJJht1aHbwsTUQ7Gz+bs4hizjIJt2mcyDrh1DTd9d0aWtI9HzXbPR9uSFgfoGYNQOPz4wCtQ3GobWKNDTYXk5vRVU1AFNfY6x5D2vjuuA7hHn3mDm2dFpGWLauFLnIom66jLm2JFrQd9TNHvzGtHnpKzZf6bnUMvVW199AGyyvbyqvSNOe/cDqK8GdttTCIRde52W5t7WSLpR1n3WOIoAYqyu7wakXc3VjscVUUACGMa0t9ouJsa/eKG9P7Pdwkvfb0SOeY/T48CVP+Be4q2jhI5pgJZQZ7IpJEACJEACRUjAfCCUhyCJwtVv6+VZSz94bza9BePALuPNPVqBlbanJNoBRJI90BjemfZWR748JOt6Y4ZnQB6U9nU55+ptxql0lZBiJW8gRaf0AZdss/KKl8f0SMA4J14LeSiGlhsDUOs8GEstSzc4dYoBKGGeooMw2WV4U1Jo5Dq91eYq9lOlhE/K8bjbk2UWqGh2vFOSVz+s7quyy0ooctQKGZSQSqUfPAaa7qNxAC1WKKLkEz6mV8isV/aDrhF5qBfPkjwU6/4UntLn7RLBaHvFdHhnMsZmO9S3wjzXXtyjFrHba7dR1+/V2XUcBSIjhtdPe/w2uNst3rBu+TDZBLC+xQpNVf0yYBl32bQrF9eOGEVNKTzfVzc61+LuEeDqZqDdNpaSlVcevwbD4+cC5xys2eDvBd0vYymFbo4UQAwtxdS+7lz3lIA+V/cEo//ESxv0S6mPGOsA9oixHgX2NQJr6oB9trdYogyC2jMoY93wjuqXQfqlijYCRTe5VuTaVOG9hrEpfWHKCGqHTg+6f6rznvtYsnunllfiWxqgJd7BbB4JkAAJkEAREVAPPa2O9ynSaj9wTQD7DE+VhK71mN4Qw2uS6u2/GRq6ssN5oAvyWkooXE+L5WUVlGvseY1JdW0A7kp3PmsDcLUdcpjg5THOSd3y0Go+TIr3TnuT5LzrgdQoq9qgwxwzuR6Mh1gpFve4hIGlnrpTia03vDXK0OhyjFPps55ex9tj9pHIXWmzlHYEenZSXCOb5KVFufWCI9nc1FSMzXaoNhvXntLPAGF60aSvUv4kRLUPqLQ9bmLMKwM+AsjLEuVVsj1T6pqx+yGiPU6R4HmlqdqV82vHnn+ojR79Iil+LUp/2dfXJbahJYa1i6/NQmS45j8mAxkJ9oImK5ZwzvBgu+ZXSsaAPpfrun1DaiM5oS6P5157VKuqAQlPFrlqTMj1L+NEQpXh3DeUPPO+KS/xDGNSQpW1MS1b3+vfvJ8mKJhGgtkGb9SHcS8SSYH3zjSqKZEsNEBLpCPZDBIgARIggSIlYL6NlybIIhdBD0vaY6bPa+9aLpou3jM/r6UYAaq+OtswNla0TaZrLnTyk6G9dZqB6UH2yz/b0lJeI2mEJuaCsXhaJaRR95N4WlP+ZF6e7THdbYcB61DGu7osz6F4t0wjR7y7UgfWWdenNvT86spFu/zk6rS4cWknaC+iyxOojel+YKn9UkK8omJoiZEcn/8pMow5oLEMFvHy84Je0mDVoXVNuhVjqtbxjIvnPdc/lz663yWywKhIXsyIx18Mc/USxvaKigHnmv8pZYw5oKbxaYjz3ZXrVDz+ao6tETmS9GWPj6Sg+6dPVpU0E/fOIF1mIJ0G6AxAZ5UkQAIkQAIkECcgi1roh2b1AGsvwqEyTAA7JA7X9vTEwxtlrpXMW4pLcXZkblVTYxpeiAlga6vb46K9QOoNvS1SvFjKIyEhlfKAaHsKkuraZ4fO6bf9jnpJ9wa3B8+Bk4Ly0GousiKhbNpbklRwkpM9hmd0d2uSjDk85WUnRlVafZZMhxTXiA7P1XPegkTlknE8HNX2zgbVqdOlP/VYEMNSDDe9QI+8CJFQSQnRjXvXo07oshh7EmqtQzS1TL3NSbtsL5c2irVsvRUdxVPrfamkz+ut6LKr1/HYy/Ugnn2ZP5qTl0q2F9ScgylGqdTh0t3gp3Uzt9oYNu8H5nnvvmqHEeouBnXQz1cfb2bxiI9Y3k69grZ4RSO1RjSCt0wmxxLyLfNOI4D0ncyf1defnFBh94ZRKqLj90Ofevzunz7Z4B3/En2i7vN+mUszbU5pNout8iPAz3L4UWEaCZAACcwwAXlwVovC2J8fiI4CElKof+K1kZ+EUMqKuSH9uQF5469XhZTwM208SXqSz3+oB11buISmaQ+ieJgqy62FN5qMuVvinZGQSP2TMuohuRkI1HXAWuFS1DBlaRmurR1mqNLszye4zhsHwmq/eMZ0WyV/krYaRX13lcFgyJNVRKflF7E8LnGuKfosXZ2CrhG5vmQe7yYJdZY5b7IoEKxQRLPfxXuaK8Y1MkdTX68Nbs9WUHskBHuflNEZhIsRyq1CxquMlysRYKks9qTHhFwPduhlvtqlVQvaiuGsQo+1TpLR0w4ZU829wFa92q14RQHI/Np0fiJfGZdi4AV8vkl5QU0DUF4gGeNS1RM03sLAeplLbneEGsPVqTVTRpy98JfklnISqu77s19oyT3NHMLx+4sUsj2esqqwNkDVFANvuL1vBU6iec+TVPUplSrrkzT6/irpa7ZZ99gd9qdsZCzAaI/kUfdMR3R8z7zeUt3zhFPQvTMusLR3+B3Q0u5fto4ESIAESKDACCR+B3SK39IWr1HlqHvOU4G1OVgdmWc2y74RGgyDZ1IREENaFtvKiZcwVWU8TwIkkC0Bfgc0W3IsRwIkQAIkQAIkQAIkUBgE9Oq9ND4Loz+oBQlMgQBDcKcAj0VJgARIgARIYMYJSDiXhOIW5U/C8CTMjT8SSEFAPnOxM0UeniYBEigKAlyEqCi6iUqSAAmQAAmQAAmQAAmQAAmQQPEToAFa/H3IFpAACZAACZDADBGQOZzGZ1lmSIucVSuLu7hWCc2Z5NISJJziq4VOY9Omo39mqm3TiNG3qulg61vxTCYmuX/J3PpUqxn7qS7zlKe6Mref3BJLowFaYh3K5pAACZAACZBAxgTy8tCd5OEupYJTKZtSuJ3Bpw5Z9VKvCpyumHTyCd+Q/V1L2WbzYJtOPaWeJx/9IwZDvl46iGyz32fCaE/3msg5WxlfnvanxdlnXKbTBjEYvfXp4+nkLqsgc55yyh6jAZoSETOQAAmQAAmQAAmQQJYExPhsrgZiMedPvv1KL0mWQIukmBif8ukbs9/R6f/t3iJpUuZqymde9HU/ADSvy1/71Vx4uy75fqx8LkWzl+988ldQBGiAFlR3UBkSIAESIIFZRyDuDbM/cq/f2scNFNsjsNnwomlPgtd7IyuFBsnTZZSnYIv17VGp6389aH1TUL6VJ8c6n8jSuoTMj7GbetYGd9dmOWd/4zNe3iybZaiay9Nh6gXApbMdGuxKM9rnp583DNH0YGkuSNIfCTSi1jcO9bcp9XnxNomXxK8+XY+c22z0gVwPok88zW6fi4cRDu0tH+8DWwmzbXLN6OtC6wi7r+LXYfyEtbOv0+f68PFeea9RLUbqi1+rdt/Fjz3XifZgmbwyaZ9cx37tkGujDUCzfHvUzNPv0zZbcZOb1ku3SW+lbW0d1ndWdZpsN/U637M05eg+lzySHu9jw1uu2ht1pHn7y5QX18tzrSq+abDVeujxn45+jmYBe1VAU59jgGYyLvW16KdPQG2uZGGny7r62c613vDUmm01hbj09dx3zHzSD/paC+pLM/8s3acBOks7ns0mARIgARIoEAJLRy1FNpcDS/Vb+wEgYhgTYshdss16oz/WBTRvt8rIx8939TsN2d0KrLe/6i7y6sdtL8A4sMv0PrRa31MUD8E3vgqYHgMJQZWHW3EaaA+CPPfqh1qvnk7t7r1NAwC0B2Sjdc5b1tVGd3H/oyhQ2QJEbU+H6KWNFqXziONxiVZbD7uyeqpuR8zwwvjpZ1YqD61xD5bwK3ceLIP6wywv+wekb6sdo8N7PtWxGEdadx3Wt6/KThNjRnj0Om0eawTWdztSzfLtrc7LBVfbYoBcg+JBkjz64fmAXFddScIJGx3dpJy6PiKAVL9nwtYhahlimYY171hnjIUYcIk9RpyWWXtptW8caPIWtI/l2mgH0G2PE804mVzoMSpLT9c6vMwqpN+bqswU976Lv/faAhDv43EALVYdazYAbcZY39MLdK+15Iq8QL2Me8fOZiAdttno525h4pFcTz0dzvWUybhMei9LrCohRV746HEk98+IaUD2Aevt+4m6t5r3SVtSsvthQmWeBL++9GSZjYc0QGdjr7PNJEACJEAChUNgkxhnE8C+BuAuHSoWAdr7jAf5BuDqsKVzhfFgW1EHoNf2KtgP++ohWuQZnp1QOdBjeB9gPAj6kVCGU6vjNYi0AvvECPDq6Vc4KM1b1tvGoHJGunqwN4yimjqgx26/nGvf4Bh78oCrWazWHo4kHlujGrW7Xx5MbWMeYaC+AditPVAB/eGVMdXjdulfz6/eSFP9pL3MIcs47zGMNbP8JQ2OIFfbxDNnvyBY2QFstQ3YJ1oAsy6ntLW31LgOpZy6PgBcLSHH9guSHZ2AqYNXRtBxVTUgHnn9cmGN7gdPAVN2svZ5iqU8TCZXRwqIJ00M1VFtbKeU6mRw8fdeWzC4h4GlupiMF/2CYALYJazte4LIC9TLuFZFVDpss9JP62luzWtzFIjZ15nKYnpik43LVPcys76gffEE2/cAeYHl+jU49wy5n5peWp0v8H6oMyTZxseQ2ZdJ8s+SUzRAZ0lHs5kkQAIkQAKlSEAeXgE8EQUG+xMf9rWnUL/91x6edFA0eeavifekGH9er+t0tkG9LBhxwg7zUneH491R/Ww+5GdYYY141MSgz9JzKdXFPam2kRR/qZKBLto7thW24WB6rDKQk4+s2luqx5Sfd1f63XwRkCs99AsC5Z1udAwnkZ+OXpJvWtnqCAiJhjA88KJHpuMy63uZGLq1Dh/xcmbzK5X7YTZtz0MZGqB5gEqRJEACJEACJJA2AZnvJR62pX2WIakKigHg8VwECVSheZ3A1hHDg2q/bdfeLCk7KPP8goR40tUDtB36p05NADvE+2frqUMslWfAUzbwcApt1DK9eonR3WQ/iMu5NmORF5mzpcNJL7G9dZnoKx61OD8xpvqAldpDrRVKtbVDUis9BpSEOGrd9muPpfR5Knme89Jm74P9DiME15M9fuhqmxgDWr8wsL4aqJQHdju8M14oaGcC2NpqeO0ASGh4RELKDY+0X3HTSJPwcf2T+c5yraqFZcR4ydCIl/bFvdWjQI8WPMWtyNXeXREloZm6H03R2gjXHlx9TrfLxT+Da0u/IFjfYnjnAaSrl+ihdUjGNlv9dDsTthFAhb+bYeyidzrjcor3Mq1Lle0tTnYPGNzuDhPWZb33HYkEUfdDnYHbTAnQAM2UGPOTAAmQAAmQQE4J2CGVm8aBffZCQKFaIGosWJK0PjuUFR6PiMiT+WM69Cwi8/wCBCkj1liESB5Oox1ARIeulkvsnlVY5k7qRVvW9wYIlGRtfIkM28DJqI1G+J5qgxglEUDN4bL1EntQe2aVzmI8GefE4yvGkK++PvqZrZF5Y0s1P3s+bSYeZC1L5HSPOP0gbdm/wQoPNrmHxIOtC6W7tXno9inZdj8lE+FqWwiAEdYrYc0yd1eHdwbJiYd82nOXTU+gCmVEcoNdG2n6+pSwcP1bafSjjIXubcHXri5jbtdsM8ZSZ/AcUCljXh9+xqRLbq8VBqt1lvm3QWNKPscRv37sa1LmcUt+F/9Mri074sGcSyn6iTwJz01Hr3TYZq2fCcu7b4xdWejH5O66j/iMy0zuZd5q5aXZeuNeJi/qXD/jPhOROeQ+EQTJ7ocuWTxIl0BoaGgotmLFisD8w8PD8J5fuHeVK//hZc+6jnlAAiRAAiRAAiTgT4D/h/pzYWqBEBDP8e46YCqfrhDP4Hrj5cCMNk3m/3UCY3Vh/0AAAB8qSURBVEmMxRnVj5WTQOkR8LMfzVbOMQ+4TwIkQAIkQAIkQAIkMFsJRIEgL1DaSCYAFSIqq8TO0E8MYHOxGZkfGeSpnCEVWS0JzGYCNEBnc++z7SRAAiRAAiRAAiQQJyBz9ZKFVcczJtkJAztn0PgUzSRkMlaki2YlIctTJFAqBDgHtFR6ku0gARIgARIgARIgARIgARIggQInQAO0wDuI6pEACZAACZBAyRLYHPJfRbRkG8yGkQAJkAAJ0ADlNUACJEACJEACM0lAVq7cLJ84yeFPDDtZaTJXP5GnV9iUrffzEn71yDw8vfqtOi+Lwdif19D5ZaXQbFaW1eW5JQESIAESKDoCNECLrsuoMAmQAAmQQEkRkA/aT2XF0XzDkG9WYgAQPfXfUv3tynxXTvkkQAIkQAKlRoAGaKn1KNtDAiRAAiRQnAS0x1B7G7VXVB+L59H0akr65i2OZ1J7JeUzGm1wvn2pv21oytGyYXsl5eP0QZ7N/X3OB+M12U3Gt/KU3tpDqj2c9kqosL9NKLptrgWgv7lnfxdUdDL182uPqnMCWK3rkK2uB4C0N+6dNdK1rtySAAmQAAkUFAEaoAXVHVSGBEiABEhg1hEwjSkx2Fbankbxior3cV+X7XkcB3aVOwabgNpX5ZxDi3WuZiPQDkA+PSEeSwlx9XoxUWvIEQNzm5V3p8/KoeYH47WRG++kKFDZC4zZOo81Auu7Afn4+9YuAB2O3E0DABrsvIYBG5cV0B45v7kcWKq9sCJH//RnQ4z6D+hz3JIACZAACRQiARqghdgr1IkESIAESGD2EJDPXsS/UdjhnhMp3sf12igMA/UNwG5jvmh9nc0pDCxNgkzktNU6nkLxkI7qOaINwNXh4MLqkxa2gVffa8uwPZgHJBRXezVD1rcXe6YQnuvbnglgXwNwV8RHxyqgya5fPKmiK+eU+nBiEgmQAAkUDgEaoIXTF9SEBEiABEiABPJHQHtE9TzONUmMziAt1vQCsXGgqdXwoNpeTi03FuDdDJI5pXT7m5NS9247RNcMU56SbBYmARIgARLIBwEaoPmgSpkkQAIkQAIkkAsClzQAWyWkVX4TwK4+YKWfJ9DOErQROc3bnbMyb1PPvXRSffZk7qV3XuUo0NNgeW0rqgAJGzaNvh1aXx9xWSWJd7cP2GN7bJXX1RYk7dDzWWVF3e4GYL/tgVVzZA1vcVZ1sxAJkAAJkECuCdAAzTVRyiMBEiABEiCBXBEQj+PSFjvstRyoH08vxNSctymGpshptxcEkgV7ZN5mPOw3mbJhYH01UGkuANQJjOnyEWCsy1nwSGTvF6PUDofVdaq5oxFAbFMlyw7hTVa1eU7mjzaXWxzW9zpnKuqAfUZocXN1Ya8o7GjOPRIgARKYtQRCQ0NDsRUrVgQCGB4ehvf8wr2rXPkPL3vWdcwDEiABEiABEiABfwL8P9SfS9qp4vWsHAWmNdQ3be2YkQRIgARmPQE/+9GEMsc84D4JkAAJkAAJkAAJFBwB+dRKpNVRKxpz9rlHAiRAAiRQVAQYgltU3UVlSYAESIAESGAWEpBPy8QXObI/LTMLMbDJJEACJFAKBGiAlkIvsg0kQAIkQAIkQAIkQAIkQAIkUAQEaIAWQSdRRRIgARIgARIgARIgARIgARIoBQI0QEuhF9kGEiABEiABEiABEiABEiABEigCAjRAi6CTqCIJkAAJkAAJkAAJkAAJkAAJlAIBGqCl0ItsAwmQAAmQAAmQAAmQAAmQAAkUAQEaoEXQSVSRBEiABEiABEiABEiABEiABEqBAA3QUuhFtoEESIAESIAESIAESIAESIAEioAADdAi6CSqSAIkQAIkQAIkQAIkQAIkQAKlQIAGaCn0IttAAiRAAiRAAiRAAiRAAiRAAkVAgAZoEXQSVSQBEiABEiABEiABEiABEiCBUiBAA7QUepFtIAESIAESIAESIAESIAESIIEiIEADtAg6iSqSAAmQAAmQAAmQAAmQAAmQQCkQoAFaCr3INpAACZAACZAACZAACZAACZBAERCgAVoEnUQVSYAESIAESIAESIAESIAESKAUCNAALYVeZBtIgARIgARIgARIgARIgARIoAgI0AAtgk6iiiRAAiRAAiRAAiRAAiRAAiRQCgRogJZCL7INJEACJEACJEACJEACJEACJFAEBGiAFkEnUUUSIAESIAESIAESIAESIAESKAUCNEBLoRfZBhIgARIgARIgARIgARIgARIoAgI0QIugk6giCZAACZAACZAACZAACZAACZQCARqgpdCLbAMJkAAJkAAJkAAJkAAJkAAJFAEBGqBF0ElUkQRIgARIgARIgARIgARIgARKgQAN0FLoRbaBBEiABEiABEiABEiABEiABIqAAA3QIugkqkgCJEACJEACJEACJEACJEACpUCABmgp9CLbQAIkQAIkQAIkQAIkQAIkQAJFQIAGaBF0ElUkARIgARIgARIgARIgARIggVIgQAO0FHqRbSABEiABEiABEiABEiABEiCBIiBAA7QIOokqkgAJkAAJkAAJkAAJkAAJkEApEJiTr0Y899xz+RJNuSRAAiRAAiRQ8ASuvfbagteRCpIACZAACZDAdBPImwEqDam+kv/5TneHsr7iIDDy/57j+CiOrqKWM0CgFMaHtIE/EiABEiABEiCBRAJ5NUBPTsYSa2QKCZCAIsDxwQuBBIIJcHwEs+EZEiABEiABEihmAnk2QIsZDXUngfwSODmZX/mUTgLFTIDjo5h7j7qTAAmQAAmQQDCBvBqgkzF6QIPR88xsJ8DxMduvALY/GQGOj2R0eI4ESIAESIAEipdAXg1QvsEu3guDmuefAMdH/hmzhuIlwPFRvH1HzUmABEiABEggGYG8GqCTDDFMxp7nZjkBjo9ZfgGw+UkJcHwkxcOTJEACJEACJFC0BPJqgJ5kCG5+Loyhr+GCG9sSZX/2bzD8nTVYnHiGKQVIgOMjf53yZm8TVty7K17BZx4/gMcaw/HjdHYsGcux6+0/wYp0CjBPTgkkHx+DeOScq/ANV43tqfvq4A7ct/R2XP4PJ/ClT7kKew4G8cjvj+J3eT/1cOEhCZAACZAACUydQH4NUHpAp95DfhKq/wSjb/4JgEE8uvgq/OKxA/hWg/1wPQmc9CvDtIIjwBDD/HTJm31NuOI+4Jv/egKf/TCAgzvwhU9U4N6YMU7SqPqkPYVdPHEcU2kAy3GWVOND/nv5tHHvG3loDurvqsLPtid5CTcJSLeqPk3y/9PIQ1fhG7G/QRP7Pse9SnEkQAIkQAIkAJySTwjynzz/8stAHqbE0aw4/8vXULV4Dh75F/O4Cd87MIHvrZ2DqrVfwyOyXSz7O/CG7p8DO/B5SVN/X8OwTuc2b9evjDuOjXwwGMTf3rcLN/7lI7glbMsPr8G2N05g261hm/kgHolf73Pw+d6JeF8Md+px0IS/fcW6O8bsceCcc5dhP+a+H9MZH6573yTwyWvagb+/HX9r3//e6G2y72lzUNU5GO9js5xfHklr/FMoWVcstu6HfvlS9Xs+/2+lbBIgARIgARIoZgL59YAyBDfP10ZMvc2PxWJQ4WrVd+GhW9pw/z9F8fnqGvz8n9qAW57CFeUxDMpT19M/x/k/P45/f3wQ3wpfjbbPXIdH61/Ft5bfjsu+fxyPrAB+vvU03Hb3Rfjnv0riRchzq2aL+OQhhrOFQo7bOf4KXgDw8crzrDGRIH4CT99zFbbe8pR1jQ9/HR/77Qo8WnkcX8DXcdv/Af7o+8fxhRWSrxLAciVnYtdq3PbiU/jniTVYPL4DX1xul2FsbgLhXCUkHx+ee59UWn4RVgF44bVxnIw9gZrPL8ffTezEcsj97ip84aIxPFpjlBv6un+e+p34u1dOw++8ZF8jQ1/Dx/xk1WcW0p0rLpRDAiRAAiRAAsVOIK8GqLwh5i+/BMy3+UAYV36mHvjhKH41CUT/DFj5f6/HOXbYGW6px5XnibfiIpx/C/DnP/gJflXxKv5cVPzt06ytUvdVjE0C5+RX9VkvneMjD5eAfa1rr2VCDeM/wY+eBv7w6TVqXEwuvwudt7Rhwz8NorHq5wDaceVyGSP2WHoaiE1OIPqDXcDTu/A/wp+Li4y9NoHJ5TRC4kByvJNqfLjvfRJSYIXXylu5EXn5BuB3wsZc+VdexeQVVh65PkaeD8gzGVZRJVJe5QuSNcm+z3GXUxwJkAAJkMAsIZBXAzTVHJ5ZwjivzVQ2vsxTso39Rb9Zj5V/sAsDNy7HN1GPP/vNME5OTmBSntZg5ZP5bPFjO/1//v1x3FdtqMq5TwaM/OzqPsuP9Fkq9bwqLAHwi9cmcNLPOLTHiVz/mr8aC8axpMsY0edlq/Lc/BSe+8s1ONdAq/MYSdzNEYFUbL33PjFA5bekIoyTKny6HV0HvoJPGvqcHB9VR6r/1b3PJ4/0v7Ju7ftlknyGaO6SAAmQAAmQAAmkSSCvc0AlhIp/+WVgPScZdYSvww0378Iff7ENuLkenwpb59Sz2TN9iB6U41GMPQP81qevw6Ll1+FLAB5+PoqTsXE8/fnT8PFvyr4hk/s55yHjk4zzcY1diVsfvRW7v/glPK2u9RhOHtyBL1echi9/bxwn1fgAHn58B96Q63r4O/jjZ4AvXX0lFlWKqdKGwWHRaxzRH8kqujFMxs7Dpz59K6DHz/DX8PGKJkc+x0fOr+V0xof33jfyd5/D7pufwq3LY1h69YNOX9r9/5eqX20PaCxZnpi2ZVW7gmUlv37T/D+Y2UiABEiABEhg1hHIqwc0VQjVrKOdhwarhzB7kRRLfBifWiUPy9/DDauuw9lyzl6oCL+9HAcenItl35eQ26fwj7fIoixhrP3eg3jk1muwrFMkPIinttWoBTvyoC5FGgQ4PgwYOdw9+5ad+MfJ1fitK+bif9tyb3j4l3hIXe/Ap7c9jwMXXoO6Z6xwWjm39pMyTr6Cp+7/Kj732bl4BLfii/fLOLLCMM++5WF8/YcX4H/bMqXMp1U4ew4VpygXgVTjQ+59//jFC7Dsi7rYg3jqtd+17nmfNPsSwP3Po1P6eFwboMDk8oA8k0D5BbcCnZ9D3TOjeOq14Hy6Zm5JgARIgARIgATSJxAaGhqKrVgRvJLG8PAwvOcX7pWlHpzf4WXPOgf23nPPPYcPXVibkM6E/BN4++9XY9WXl+OJ0a9gmapuAj9adwE24ik8u+13Obcz/12Qsob3Xhvg+EhJiRlmK4FSGB/Shmuvvda3C9P5P9S3IBNJgARIgARIoAgI+NmPptr59YByFVyT9TTsD+I7H7kW3wJw/V88jMtjTiiZNT1KwgmdtGlQiFUkISB9wR8JkIA/AY4Pfy5MJQESIAESIIFiJ5BXAzTVIhLFDq/w9K/BHfuP4g5bMYf/eVj58FGslHQuLlQw3eb0T8GoREVIoGAIcHwUTFdQERIgARIgARLIKYH8GqB08OS0syistAiolTZLq0lsDQnkjADHR85QUhAJkAAJkAAJFBSBvBqgk+rbBQXVXipDAgVDgOOjYLqCihQgAY6PAuwUqkQCJEACJEACOSCQVwOUIVQ56CGKKFkCHB8l27VsWA4IcHzkACJFkAAJkAAJkEABEsirAYo3BguwyVSJBAqEAMdHgXQE1ShIAhwfBdktVIoESIAESIAEpkogrwZo0BL0U1Wa5Umg2AnIZ4o4Poq9F6l/vgiUwviQNvBHAiRAAiRAAiSQSOCUxCSmkAAJkAAJkAAJkAAJkAAJkAAJkEDuCeTVA5qNujt37symGMuQwIwRWL169bTVzfExbahZUY4ITOf4yJHKFEMCJEACJEACJJBHAgVngEpb+cCSxx6n6JwSmAmDkOMjp11IYXkkMBPjI4/NoWgSIAESIAESIIEcEGAIbg4gUgQJkAAJkAAJkAAJkAAJkAAJkEBqAgXpAU2tNnOQAAmQAAmQQHoEPvjgA7z88st44403cOLECZxyyikIhUI49dRT1fF5552Hyy67DPPmzUtPIHORAAmQAAmQAAlkTYAe0KzRsSAJkAAJkEAxEPjpT3+KI0eOQAzNd955B2+//TYOHz6s0srLyyEG6p49e4qhKdSRBEiABEiABIqeQMEaoBM7GhFa3Y0JF+IotoRC8XSVR459/rbIJ0gHt/ies/JvQfRANxp9ylrnG9F9APDXQytl6+MnI0F3XcZ/621L4w53yxGoq6VnyvOwdFVcfFRwt9Nu1+aoJ+cEuleHEJcRqFMIoYSyHlE8zBGBoL6yr92Ea9O+Xry1232ZcN3B6nO/MRbvY+91kG7fB9aZqHv8mvPV22xT0HUelO4V6G2vKdu5p/jpE93suTe57gFeucY4EhW8DHW/pcvS2wweuwi89957yvgsKytT6VdddRWuvPJKnH766ZA0MUwlD38kQAIkQAIkQAL5J1CwBmhi0+UBrhat7QOI7WxGWGdo6sJ4LIaY529jDYCajU56tANABwbi+TYiUtGMXn081oUGNKBrTMvqRXOFriT5tiOqyxhbU8fkxSEPruW7Go12jKNxV3nc0HaKm/rpukw9U513JKW119apjPDkef3qjCG2KZK8GM/mhsBgP1rbO9DR1g/v6wJVgWd8jHcDLZVbEvJO7OkF2juAXf2elz5hNO/U15reDkCNppXSx1FsqWxBdXwMDKCjrRaJhmxicwPrHNyC8uZqZ6xGO9Aa8RiCStwEute3oC9RdJYpYqSWo7d+3LlvjDWitzLktKemTrV9ZNTzgghR9LcBDfV1zr0proXcu8rRsnTAkRsbACIeI9R1/xHW6bOMV8UdXwJiXJ599tlYsGABbrjhBhWCK2G4n/jEJ1SanPv1r3/tW5aJJEACJEACJEACuSVQNAZodHM5WtCF8VIzbAa3oLatAwMug1Ue+gfQ0dOC7eLJnaFfQxPQst7rhZ4hZVitD4EJdG9tRcfKtahqakWn12vuUyJ8dSMaMILRA+bJKLY3A4131aE65TXnvAhSL3kQwcZYDNa+yIygrh3o2z9qVuCzn6RO9eJoI+KvMJTR1+fRWbyR29GiXhv5iM8iKbrZesHVuyb+eguQl1TRDvQ1b7eNdrt9XkNdXgSgAxvMsnEdRjHaA3Qog10nRrC2uwGtu31fG9iZrDx93rq0CG7TJjAxMYEf/ehHeO2115Txee6550L+xAiVNDk3NjaWtjxmJAESIAESIAESyJ5AUSxCJOGhykiLGZ7P7NtcUCWju1uB9gHnYTuunfWgW7s7io018Ufx+Nnp2KlevwHVkVqs21EH10P5dFTOOlITONCP3p4ObNgZRlV9A1rEUFmTfIyI17GvqRHbTO++GE9NjRiviGC0HUh2zU3sWJebF0EZ1OkPIootEWBgrBGdPb3+WTJKtTyYHVGfsaYM4Fr0D25EpAaIrOwA2nrRf6A5HiURPI5FiSpUycscz1gOr+lFLCMdmTlbAqeddhrOOussRKNRNf/z6NGjyht9xhlnYP78+SoEV6Jo+CMBEiABEiABEsg/gcL3gKpwPKBrzPCImFx6WlCu50vprWvulZk5P/utkcR5qH5zxBJrn8DoPqDhkqrEU/LYekkDsG/UCInsQ0uluy53PanO+1aTJDGCjS7vj1/WxDpDIb9wSb+yTJsKAWVMtteplxfhNRvQ0SNGkUeiZ3yo0FaXtx0Q40mHjkbu6kJDUDivHotbkxi5B7rR2eb19nl0ksDddOuEzAftVN7FOgmrt3+SNtK91ufFjZUhcUzWolUX9tseGMUIGlBlGubxfJYBGQ+7tT2yvXt0GK5tvLo8nPHCAMJo3ipca+Nz0tMJUZbw5u3NffG+MSVyPzMCx48fx7Jly3DTTTfh9ttvxx133IF77rlHhePKIkQSgit5+CMBEiABEiABEsg/gcI2QOXhOTKChqa+4FBQzxw3NRfU84Cdb4x+c0CdkMRc1p4439JdT6rzWehSsxED7a2oDVwMJbHOWMycl5pFnSySBoEJ9O8Cuu7SHjvxmPfBMYpsEd7xEQVqXS8IxHgyQkcr6tDY1Ir+hNBv8Ti2oqF7W9zrl6ikNR+0r33ACMlNzCWGVXp1Wov+lDf3oSNqvIA60I11uxqxzTfc1aovcUxa81b9tMk8zRNmbIffmgZygkxjvvl4dwP6msuVMZr8BZJPSHCCYCakQ2DOnDlqwSHJK+G44hGVOZ/i/XzrrbeUN5QGaDokmYcESIAESIAEpk6gsA1QWTYo2oteez5keaARNHUQMyMhjKqlwfPlRvf3AUurfBY1mV5tLa9YrbP67fRWz9r8CMj8xx6397m2DcZcRb9CsjDXWnQ1OYaq5V1sRa2OHgiVo6UHaN3qnvvrOz/SVYUs4GMvEmbM01Yrw2rZdmRCunWqVawjrRBj0nzREn2iBdXrk3hhXXr5HVgr4uqVfZU3sqIK1fCZZ6qKW3M4q6ucuaFWGK618JMVfmt5ov1q86ap0NtYDGKItkbMBaF8XuYYLL1yeJw+Afn2p99PvgMqhqe8uKQB6keIaSRAAiRAAiSQewKFbYA2dWGtCruLYKOsUttWekaQ+SDr7t5UYX3u3Hk9qmjGNnlY3rodqZaWyaseFB4noEJYu43VWtVqzuLl8/Nexot5dsSLKt5FvbqtvZWxZobz6oWyAo0hy/gcEX08eSKbDNkqMiH9OkOREbUqtWl8Wt5TIB5iWymr4FqGuNub6Gmq69BaOEmvnG3Nb7a8mr6LAvl5OFUYrrBOY5zK56B8pgWEq6pdWvEgfwROnjyJyclJ3wrE8JTzNEB98TCRBEiABEiABHJOoLANULO52gjy/RyDmbHI9nWIq+sB1V5pNG6Az3ybwmu2oQutaO2ZeV2oAdDf1oDGqx2PnMUkiRGloSnPqV3WXsQoIXRUheHaXlL5PqXyQhohsFqW2jqr4qa1UFVGdfqFcruNx5jx+SS3oepSMq2DyCafz57Y7W9ImG9qs47I3NIOJDA0axRjVaYTuCI4rBWMYc/hNbNzP/cExAPqZ2CKUSrn9Db3NVMiCZAACZAACZCAl0DxGKCylIcYQTIftNJY5MazyIorrM7b2myPfeowvS1xb4wONVRbM7QuecXiJRqv7zUWU7K/RZiHuawJuroM32R6htG8Xr7+6P25w0A1fz+Pj7ckj7MnIKvW1vksmGN51I3vt3qvXWVMWoadhLL2+RpAYdTVyzzF7XhGVs2F4XH0XuPKoARgLLCjroGA62oqdaa3cE/2TOUTMhtj9jd4dTsre9E4FvNdBVqxlup8GZp6WHK79jmLEIX090Y9HmOzFPdzR+DIkSN49dVXMXfuXITD4bgxKl5w+RTLoUOHIN8K5Y8ESIAESIAESCD/BEJDQ0OxFStWBNY0PDwM7/mFe1e58h9e9qzrWA6ee+45XHvttQnpqRJ27tyJ1atXp8rG8yRQEASyvV45Pgqi+6hEnglM9/gIas5jjz2mPsNSVVWFiy66SGUT4/PYsWN4+eWX8eKLL2LhwoW4++67g0RknJ5sjKfzf2jGFbIACZAACZAACRQIAT/70VStKL4DairMfRIgARIgARLIhMB9992Hr371q9izZw/OPPPMeMithN8ePnxYGaXr1q3LRCTzkgAJkAAJkAAJZEmABmiW4NIqJouPRIK+PigrXvrNcUtLMjORAAmQAAlkQODBBx/MIDezkgAJkAAJkAAJ5IsADdB8kRW5NRsRi23MZw2UTQIkQAIkQAIkQAIkQAIkQAJFQ6CoFiEqGqpUlARIgARIgARIgARIgARIgARIIIFAQXpAZeEK/kiABPwJcHz4c2EqCZAACZAACZAACZBA4RMoOAOUK+AW/kVDDWeOAMfHzLFnzSRAAiRAAiRAAiRAAlMnwBDcqTOkBBIgARIgARIgARIgARIgARIggTQI5NUDKt9B448ESMCfAMeHPxemkoAQ4PjgdUACJEACJEACpUkgbwbotddeW5rE2CoSIAESIAESIAESIAESIAESIIGsCDAENytsLEQCJEACJEACJEACJEACJEACJJApARqgmRJjfhIgARIgARIgARIgARIgARIggawI0ADNChsLkQAJkAAJkAAJkAAJkAAJkAAJZEqABmimxJifBEiABEiABEiABEiABEiABEggKwI0QLPCxkIkQAIkQAIkQAIkQAIkQAIkQAKZEqABmikx5icBEiABEiABEiABEiABEiABEsiKAA3QrLCxEAmQAAmQAAmQAAmQAAmQAAmQQKYEaIBmSoz5SYAESIAESIAESIAESIAESIAEsiIwJ6tSnkIL967ypPCQBEiABEiABEiABEiABEiABEiABNwE6AF18+ARCZAACZAACZAACZAACZAACZBAngjQAM0TWIolARIgARIgARIgARIgARIgARJwE6AB6ubBIxIgARIgARIgARIgARIgARIggTwRSGsO6PDwsKv6fnzddcwDEiABEiABEiCB7Ah4/4/NTgpLkQAJkAAJkEBxEEhpgK5YsaI4WkItSYAESIAESIAESIAESIAESIAECpoAQ3ALunuoHAmQAAmQAAmQAAmQAAmQAAmUDgEaoKXTl2wJCZAACZAACZAACZAACZAACRQ0ARqgBd09VI4ESIAESIAESIAESIAESIAESocADdDS6Uu2hARIgARIgARIgARIgARIgAQKmsD/B6jPIQV4pPNOAAAAAElFTkSuQmCC;" vertex="1" parent="1">
          <mxGeometry x="90" y="240" width="708.28" height="548" as="geometry"/>
        </mxCell>
        <mxCell id="aqT0Fe9fvLwvooHaSvqg-8" value="Contract external&#39;s code" style="rounded=0;whiteSpace=wrap;html=1;fillColor=#f5f5f5;strokeColor=#ABABAB;fontColor=#333333;fontStyle=1" vertex="1" parent="1">
          <mxGeometry y="-120" width="150" height="40" as="geometry"/>
        </mxCell>
        <mxCell id="aqT0Fe9fvLwvooHaSvqg-9" value="- Unique&lt;br&gt;- Format : {agency code}-{distribution channel code}-{product code}&amp;nbsp;" style="text;html=1;align=left;verticalAlign=middle;whiteSpace=wrap;rounded=0;fillColor=#ffffff;" vertex="1" parent="1">
          <mxGeometry x="150" y="-40" width="470" height="60" as="geometry"/>
        </mxCell>
        <mxCell id="aqT0Fe9fvLwvooHaSvqg-10" value="BKK06S074-GRAVY-OBUSI" style="text;html=1;fillColor=#ffffff;fontStyle=1" vertex="1" parent="1">
          <mxGeometry x="150" y="-70" width="240" height="30" as="geometry"/>
        </mxCell>
        <mxCell id="aqT0Fe9fvLwvooHaSvqg-11" value="TO BE" style="rounded=0;whiteSpace=wrap;html=1;fillColor=#f5f5f5;strokeColor=#ABABAB;fontColor=#333333;" vertex="1" parent="1">
          <mxGeometry y="840" width="120" height="40" as="geometry"/>
        </mxCell>
        <mxCell id="aqT0Fe9fvLwvooHaSvqg-18" style="edgeStyle=orthogonalEdgeStyle;rounded=0;orthogonalLoop=1;jettySize=auto;html=1;entryX=0;entryY=0.5;entryDx=0;entryDy=0;" edge="1" parent="1" source="aqT0Fe9fvLwvooHaSvqg-12" target="aqT0Fe9fvLwvooHaSvqg-13">
          <mxGeometry relative="1" as="geometry"/>
        </mxCell>
        <mxCell id="aqT0Fe9fvLwvooHaSvqg-12" value="Agency contract" style="rounded=0;whiteSpace=wrap;html=1;" vertex="1" parent="1">
          <mxGeometry x="120" y="910" width="150" height="60" as="geometry"/>
        </mxCell>
        <mxCell id="aqT0Fe9fvLwvooHaSvqg-15" value="" style="edgeStyle=orthogonalEdgeStyle;rounded=0;orthogonalLoop=1;jettySize=auto;html=1;" edge="1" parent="1" source="aqT0Fe9fvLwvooHaSvqg-13" target="aqT0Fe9fvLwvooHaSvqg-14">
          <mxGeometry relative="1" as="geometry"/>
        </mxCell>
        <mxCell id="aqT0Fe9fvLwvooHaSvqg-13" value="Add" style="rounded=0;whiteSpace=wrap;html=1;" vertex="1" parent="1">
          <mxGeometry x="310" y="910" width="150" height="60" as="geometry"/>
        </mxCell>
        <mxCell id="aqT0Fe9fvLwvooHaSvqg-19" style="edgeStyle=orthogonalEdgeStyle;rounded=0;orthogonalLoop=1;jettySize=auto;html=1;entryX=0;entryY=0.5;entryDx=0;entryDy=0;" edge="1" parent="1" source="aqT0Fe9fvLwvooHaSvqg-14" target="aqT0Fe9fvLwvooHaSvqg-16">
          <mxGeometry relative="1" as="geometry"/>
        </mxCell>
        <mxCell id="aqT0Fe9fvLwvooHaSvqg-14" value="...." style="rounded=0;whiteSpace=wrap;html=1;" vertex="1" parent="1">
          <mxGeometry x="500" y="910" width="50" height="60" as="geometry"/>
        </mxCell>
        <mxCell id="aqT0Fe9fvLwvooHaSvqg-20" style="edgeStyle=orthogonalEdgeStyle;rounded=0;orthogonalLoop=1;jettySize=auto;html=1;entryX=0;entryY=0.5;entryDx=0;entryDy=0;" edge="1" parent="1" source="aqT0Fe9fvLwvooHaSvqg-16" target="aqT0Fe9fvLwvooHaSvqg-17">
          <mxGeometry relative="1" as="geometry"/>
        </mxCell>
        <mxCell id="aqT0Fe9fvLwvooHaSvqg-16" value="Auto generate&amp;nbsp;&lt;span style=&quot;color: rgb(51 , 51 , 51) ; font-weight: 700&quot;&gt;Contract external&#39;s code&lt;/span&gt;" style="rounded=0;whiteSpace=wrap;html=1;fillColor=#fff2cc;strokeColor=#d6b656;" vertex="1" parent="1">
          <mxGeometry x="590" y="910" width="150" height="60" as="geometry"/>
        </mxCell>
        <mxCell id="aqT0Fe9fvLwvooHaSvqg-17" value="Persist agency contract" style="rounded=0;whiteSpace=wrap;html=1;" vertex="1" parent="1">
          <mxGeometry x="780" y="910" width="150" height="60" as="geometry"/>
        </mxCell>
      </root>
    </mxGraphModel>
  </diagram>
</mxfile>
